<?xml version="1.0" standalone="no"?>
<!DOCTYPE svg PUBLIC "-//W3C//DTD SVG 1.1//EN" "http://www.w3.org/Graphics/SVG/1.1/DTD/svg11.dtd" >
<svg xmlns="http://www.w3.org/2000/svg" xmlns:xlink="http://www.w3.org/1999/xlink" version="1.1">
<metadata>
Created by FontForge 20161003 at Tue Apr 17 12:35:14 2018
 By www-data
Copyright (c) ARS Type :-Angus R. Shamal, 1999-2010. All rights reserved.
</metadata>
<defs>
<font id="ARSLightItalic" horiz-adv-x="573" >
  <font-face 
    font-family="ARSLightItalic"
    font-weight="300"
    font-style="italic"
    font-stretch="normal"
    units-per-em="1000"
    panose-1="2 0 5 3 0 0 0 2 0 4"
    ascent="800"
    descent="-200"
    x-height="515"
    cap-height="666"
    bbox="-196 -196 1289 999"
    underline-thickness="50"
    underline-position="-150"
    unicode-range="U+0020-1F698"
  />
<missing-glyph horiz-adv-x="563" 
d="M-19 0l142 666h484l-142 -666h-484zM571 636h-408l285 -580zM140 610l-123 -580h406z" />
    <glyph glyph-name="f_f" unicode="ff" horiz-adv-x="617" 
d="M703 714l-22 -54q-29 9 -61 9q-40 0 -61.5 -18t-30.5 -59l-16 -77h123l-12 -57h-124l-97 -458h-62l97 458h-226l-97 -458h-62l97 458h-89l12 57h89l16 75q29 135 158 135q43 0 80 -11l-22 -54q-29 9 -61 9q-40 0 -61.5 -18t-30.5 -59l-16 -77h225l16 75q29 135 158 135
q43 0 80 -11z" />
    <glyph glyph-name="fi" unicode="fi" horiz-adv-x="538" 
d="M161 515l19 87q27 123 146 123q50 0 88 -21l-25 -54q-29 19 -69 19q-63 0 -80 -77l-16 -77h123l-12 -57h-124l-97 -458h-62l97 458h-89l12 57h89zM526 634h-62l17 80h62zM392 0h-62l109 515h62z" />
    <glyph glyph-name="fl" unicode="fl" horiz-adv-x="536" 
d="M161 515l19 87q27 123 146 123q50 0 88 -21l-25 -54q-29 19 -69 19q-63 0 -80 -77l-16 -77h123l-12 -57h-124l-97 -458h-62l97 458h-89l12 57h89zM392 0h-62l151 714h62z" />
    <glyph glyph-name="f_j" unicode="fj" horiz-adv-x="548" 
d="M161 515l19 87q27 123 146 123q50 0 88 -21l-25 -54q-29 19 -69 19q-63 0 -80 -77l-16 -77h123l-12 -57h-124l-97 -458h-62l97 458h-89l12 57h89zM511 515l-119 -558q-29 -140 -143 -140q-63 0 -100 41l41 42q23 -29 59 -29t55 27t30 79l115 538h62zM536 634h-62l17 80
h62z" />
    <glyph glyph-name=".notdef" horiz-adv-x="563" 
d="M-19 0l142 666h484l-142 -666h-484zM571 636h-408l285 -580zM140 610l-123 -580h406z" />
    <glyph glyph-name=".null" horiz-adv-x="0" 
 />
    <glyph glyph-name="nonmarkingreturn" horiz-adv-x="333" 
 />
    <glyph glyph-name="space" unicode=" " horiz-adv-x="270" 
 />
    <glyph glyph-name="exclam" unicode="!" horiz-adv-x="262" 
d="M220 526l-96 -333h-30l51 333l31 140h74zM108 0h-74l20 96h75z" />
    <glyph glyph-name="quotedbl" unicode="&#x22;" horiz-adv-x="358" 
d="M372 638l-68 -201h-25l18 201l6 28h75zM206 638l-67 -201h-26l17 201l6 28h76z" />
    <glyph glyph-name="numbersign" unicode="#" horiz-adv-x="641" 
d="M620 431h-121l-75 -196h115l-9 -43h-122l-74 -192h-46l75 192h-171l-74 -192h-45l74 192h-115l9 43h122l75 196h-115l9 43h121l75 192h45l-74 -192h170l74 192h46l-74 -192h114zM453 431h-170l-75 -196h170z" />
    <glyph glyph-name="dollar" unicode="$" 
d="M235 -98h-49l19 92q-66 11 -117.5 45.5t-75.5 81.5l64 36q45 -81 143 -101l56 263q-86 40 -126.5 79.5t-40.5 100.5q0 84 63.5 132t153.5 48q17 0 26 -1l16 76h50l-18 -85q100 -27 150 -107l-55 -38q-39 60 -109 82l-51 -237q88 -41 130 -80.5t42 -105.5
q0 -86 -66.5 -140.5t-172.5 -54.5q-3 0 -7.5 0.5t-6.5 0.5zM438 181q0 37 -27.5 62t-91.5 56l-53 -249h9q71 0 117 35.5t46 95.5zM174 508q0 -39 26.5 -63.5t89.5 -54.5l47 225q-5 1 -17 1q-63 0 -104.5 -28t-41.5 -80z" />
    <glyph glyph-name="percent" unicode="%" horiz-adv-x="759" 
d="M654 666l-475 -666h-54l475 666h54zM682 164q0 -72 -46 -122.5t-115 -50.5q-62 0 -99 41.5t-37 104.5q0 72 45.5 122.5t115.5 50.5q62 0 99 -41t37 -105zM633 164q0 46 -23 73.5t-65 27.5q-49 0 -79.5 -37t-30.5 -91q0 -46 22.5 -73.5t64.5 -27.5q49 0 80 37t31 91z
M394 529q0 -72 -46 -122.5t-115 -50.5q-62 0 -99 41.5t-37 104.5q0 72 45.5 122.5t115.5 50.5q62 0 99 -41t37 -105zM345 529q0 46 -23 73.5t-65 27.5q-49 0 -79.5 -37t-30.5 -91q0 -46 22.5 -73.5t64.5 -27.5q49 0 80 37t31 91z" />
    <glyph glyph-name="ampersand" unicode="&#x26;" horiz-adv-x="661" 
d="M21 177q0 141 182 200q-36 74 -36 133q0 76 47.5 122t121.5 46q67 0 112 -38t45 -102q0 -67 -51.5 -113t-152.5 -79q77 -138 129 -215q66 70 106 181l58 -20q-42 -125 -127 -209q32 -36 78 -36q30 0 51 15l17 -55q-34 -19 -76 -19q-74 0 -120 55q-80 -55 -177 -55
q-88 0 -147.5 50t-59.5 139zM235 46q71 0 133 43q-64 96 -141 238q-137 -43 -137 -150q0 -61 41 -96t104 -35zM231 511q0 -50 34 -116q90 28 127 61t37 77q0 39 -25.5 62.5t-68.5 23.5q-46 0 -75 -28t-29 -80z" />
    <glyph glyph-name="quotesingle" unicode="'" horiz-adv-x="192" 
d="M206 638l-68 -201h-25l18 201l6 28h75z" />
    <glyph glyph-name="parenleft" unicode="(" horiz-adv-x="301" 
d="M238 -78l-41 -41q-151 149 -151 361q0 157 80 283t223 200l27 -51q-128 -67 -200 -179.5t-72 -252.5q0 -188 134 -320z" />
    <glyph glyph-name="parenright" unicode=")" horiz-adv-x="307" 
d="M-36 -119l-27 51q128 67 200.5 179.5t72.5 252.5q0 187 -135 320l41 41q152 -150 152 -361q0 -157 -80.5 -282.5t-223.5 -200.5z" />
    <glyph glyph-name="asterisk" unicode="*" horiz-adv-x="461" 
d="M295 490q30 -70 52 -137l-41 -13q-24 72 -39 141q-43 -59 -92 -113l-32 28q45 51 103 104q-73 8 -144 24l9 41q75 -15 141 -37q-30 70 -52 137l41 13q24 -72 39 -141q43 59 92 113l32 -28q-45 -51 -103 -104q73 -8 144 -24l-9 -41q-75 15 -141 37z" />
    <glyph glyph-name="plus" unicode="+" 
d="M509 276h-197l-43 -201h-57l43 201h-197l12 56h197l43 202h57l-43 -202h197z" />
    <glyph glyph-name="comma" unicode="," horiz-adv-x="238" 
d="M120 84l-19 -89q-20 -92 -96 -137l-17 29q54 32 68 88l6 25h-43l18 84h83z" />
    <glyph glyph-name="hyphen" unicode="-" horiz-adv-x="386" 
d="M310 253h-249l12 56h249z" />
    <glyph glyph-name="period" unicode="." horiz-adv-x="238" 
d="M102 0h-83l18 84h83z" />
    <glyph glyph-name="slash" unicode="/" horiz-adv-x="355" 
d="M402 714l-388 -822h-52l388 822h52z" />
    <glyph glyph-name="zero" unicode="0" 
d="M468 440q0 72 -29 124t-99 52q-51 0 -91 -31t-62.5 -76.5t-38 -101.5t-20.5 -100.5t-5 -79.5q0 -32 5.5 -60.5t18.5 -56t40 -44t64 -16.5q51 0 91.5 32t63.5 77.5t37.5 102.5t19.5 100.5t5 77.5zM343 678q101 0 147.5 -71.5t46.5 -179.5q0 -47 -8 -101t-29 -115.5
t-52 -110t-82.5 -80.5t-115.5 -32q-69 0 -115 37.5t-63.5 91.5t-17.5 123q0 48 8.5 102t29.5 115t52.5 109.5t83 80t115.5 31.5z" />
    <glyph glyph-name="one" unicode="1" 
d="M444 0h-394l12 56h167l110 521q-17 -12 -72.5 -29.5t-107.5 -24.5l-5 55q149 29 221 88h53l-130 -610h158z" />
    <glyph glyph-name="two" unicode="2" 
d="M469 0h-442l12 55q240 184 323.5 270t83.5 162q0 59 -38 92t-96 33q-98 0 -158 -92l-60 38q86 120 224 120q91 0 147 -52.5t56 -135.5q0 -94 -85 -184.5t-297 -241.5h344z" />
    <glyph glyph-name="three" unicode="3" 
d="M424 187q0 61 -44 94.5t-115 33.5h-42l13 63h83q58 0 95.5 30t37.5 86q0 59 -42 89.5t-98 30.5q-51 0 -93 -21.5t-66 -51.5l-48 48q82 89 208 89q94 0 152.5 -51t58.5 -127q0 -58 -34.5 -100.5t-92.5 -60.5q39 -18 69.5 -59t30.5 -97q0 -85 -67 -140t-170 -55
q-85 0 -149 39t-95 105l63 35q26 -58 77 -86.5t109 -28.5q70 0 114.5 36.5t44.5 98.5z" />
    <glyph glyph-name="four" unicode="4" 
d="M508 165h-100l-35 -165h-68l35 165h-325l13 61q131 116 204 238t79 202h70q-2 -80 -82.5 -215t-188.5 -223h243l47 220h68l-47 -220h101z" />
    <glyph glyph-name="five" unicode="5" 
d="M21 142l65 27q18 -58 65 -87.5t104 -29.5q74 0 124 44.5t50 119.5q0 66 -40.5 107t-111.5 41q-88 0 -145 -62l-38 29l86 335h369l-13 -64h-308l-59 -218q49 42 130 42q90 0 146.5 -60t56.5 -148q0 -97 -70 -163.5t-179 -66.5q-88 0 -149 44t-83 110z" />
    <glyph glyph-name="six" unicode="6" 
d="M373 666h112q-96 -52 -198 -137.5t-136 -160.5q61 58 151 58q93 0 152 -59t59 -151q0 -98 -66.5 -163t-173.5 -65q-104 0 -166.5 63t-62.5 171q0 245 329 444zM287 365q-75 0 -123 -42t-48 -118q0 -70 42 -111.5t114 -41.5q80 0 124.5 48.5t44.5 119.5q0 67 -41 106
t-113 39z" />
    <glyph glyph-name="seven" unicode="7" 
d="M574 666l-14 -63q-61 -56 -131 -144.5t-139.5 -217t-91.5 -241.5h-75q34 156 140 325t214 277h-382l14 64h465z" />
    <glyph glyph-name="eight" unicode="8" 
d="M405 348q39 -19 69 -61.5t30 -101.5q0 -84 -62 -140.5t-171 -56.5q-105 0 -171 53.5t-66 141.5q0 71 44 121t115 66q-83 47 -83 138q0 76 58.5 123t149.5 47q95 0 154 -50.5t59 -124.5q0 -56 -34 -96.5t-92 -58.5zM459 498q0 57 -42.5 85.5t-100.5 28.5
q-59 0 -96.5 -28.5t-37.5 -80.5q0 -55 42 -85t102 -30q58 0 95.5 28.5t37.5 81.5zM431 188q0 67 -45.5 101.5t-116.5 34.5q-73 0 -117 -35.5t-44 -99.5q0 -65 45.5 -100t118.5 -35q72 0 115.5 34.5t43.5 99.5z" />
    <glyph glyph-name="nine" unicode="9" 
d="M219 0h-112q96 52 198 137.5t136 160.5q-61 -58 -151 -58q-93 0 -152 59t-59 151q0 98 66.5 163t173.5 65q104 0 166.5 -63t62.5 -171q0 -245 -329 -444zM305 301q75 0 123 42t48 118q0 70 -42 111.5t-114 41.5q-80 0 -124.5 -48.5t-44.5 -119.5q0 -67 41 -106t113 -39z
" />
    <glyph glyph-name="colon" unicode=":" horiz-adv-x="294" 
d="M128 0h-83l18 84h83zM220 431h-83l17 83h84z" />
    <glyph glyph-name="semicolon" unicode=";" horiz-adv-x="294" 
d="M220 431h-83l17 83h84zM146 84l-19 -89q-20 -92 -96 -137l-17 29q54 32 68 88l6 25h-43l18 84h83z" />
    <glyph glyph-name="less" unicode="&#x3c;" 
d="M436 572l36 -42l-274 -230l177 -230l-44 -34l-209 272z" />
    <glyph glyph-name="equal" unicode="=" 
d="M528 371h-451l12 56h451zM488 181h-451l12 57h451z" />
    <glyph glyph-name="greater" unicode="&#x3e;" 
d="M144 36l-36 42l274 230l-177 230l44 34l209 -272z" />
    <glyph glyph-name="question" unicode="?" horiz-adv-x="514" 
d="M242 282l-18 -89h-57l30 145q22 -3 37 -3q81 0 137.5 48t56.5 122q0 51 -30.5 80t-91.5 29q-79 0 -159 -64l-38 45q96 83 205 83q81 0 133 -47.5t52 -125.5q0 -92 -72 -155.5t-185 -67.5zM194 0h-74l20 96h75z" />
    <glyph glyph-name="at" unicode="@" horiz-adv-x="867" 
d="M538 177q-54 -69 -138 -69q-69 0 -108 48t-39 121q0 89 54 150.5t135 61.5q82 0 127 -72l14 64h58l-55 -258q-3 -12 -3 -22q0 -41 51 -41q60 0 95 55t35 133q0 119 -79 197t-208 78q-153 0 -254 -107.5t-101 -253.5q0 -122 75.5 -202.5t205.5 -80.5q105 0 168 40l22 -48
q-88 -47 -194 -47q-151 0 -243.5 95.5t-92.5 242.5q0 111 53 206t149.5 152.5t213.5 57.5q154 0 249 -94.5t95 -232.5q0 -103 -53.5 -171.5t-134.5 -68.5q-84 0 -97 66zM549 323q0 50 -28 81.5t-78 31.5q-60 0 -95 -45t-35 -108q0 -52 25.5 -87t74.5 -35q60 0 98 50t38 112z
" />
    <glyph glyph-name="A" unicode="A" horiz-adv-x="643" 
d="M574 0h-71l-37 202h-310l-124 -202h-77l412 666h78zM454 266l-58 331l-201 -331h259z" />
    <glyph glyph-name="B" unicode="B" horiz-adv-x="659" 
d="M118 64h235q70 0 114.5 36t44.5 97q0 60 -44 92.5t-115 32.5h-180zM414 602h-181l-47 -217h221q59 0 98 28.5t39 84.5q0 51 -36 77.5t-94 26.5zM348 0h-311l142 666h236q94 0 147.5 -47t53.5 -117q0 -58 -36 -99t-92 -57q38 -17 67.5 -58t29.5 -96q0 -84 -67 -138
t-170 -54z" />
    <glyph glyph-name="C" unicode="C" horiz-adv-x="661" 
d="M663 545l-59 -39q-54 107 -187 107q-124 0 -202 -90t-78 -224q0 -112 56.5 -179t154.5 -67q121 0 194 98l52 -40q-97 -123 -247 -123q-128 0 -205 87t-77 223q0 159 101.5 269.5t253.5 110.5q162 0 243 -133z" />
    <glyph glyph-name="D" unicode="D" horiz-adv-x="720" 
d="M119 64h205q129 0 203.5 87t74.5 219q0 110 -55 171t-165 61h-148zM317 0h-280l142 666h205q139 0 214.5 -82t75.5 -210q0 -103 -41 -187t-123.5 -135.5t-192.5 -51.5z" />
    <glyph glyph-name="E" unicode="E" horiz-adv-x="614" 
d="M496 0h-459l142 666h459l-14 -64h-390l-47 -217h332l-13 -63h-332l-55 -258h391z" />
    <glyph glyph-name="F" unicode="F" horiz-adv-x="594" 
d="M623 602h-389l-46 -216h330l-13 -64h-331l-68 -322h-69l142 666h458z" />
    <glyph glyph-name="G" unicode="G" horiz-adv-x="725" 
d="M417 613q-125 0 -202.5 -87.5t-77.5 -221.5q0 -113 58 -182t164 -69q103 0 168 63.5t77 152.5h-208l13 64h260q5 -13 5 -41q0 -50 -21.5 -103t-60 -98t-100.5 -74t-136 -29q-136 0 -213.5 90.5t-77.5 226.5q0 158 101 265.5t250 107.5q166 0 248 -135l-60 -37
q-56 107 -187 107z" />
    <glyph glyph-name="H" unicode="H" horiz-adv-x="718" 
d="M559 0h-68l69 322h-387l-68 -322h-68l142 666h67l-60 -281h387l60 281h67z" />
    <glyph glyph-name="I" unicode="I" horiz-adv-x="264" 
d="M105 0h-68l142 666h67z" />
    <glyph glyph-name="J" unicode="J" horiz-adv-x="461" 
d="M450 666l-100 -474q-43 -204 -211 -204q-119 0 -165 91l58 40q34 -66 111 -66q34 0 59 13t41 36.5t25 47.5t16 56l97 460h69z" />
    <glyph glyph-name="K" unicode="K" horiz-adv-x="612" 
d="M555 0h-77l-177 335l-155 -140l-41 -195h-68l142 666h67l-80 -376l417 376h88l-318 -287z" />
    <glyph glyph-name="L" unicode="L" horiz-adv-x="552" 
d="M478 0h-441l142 666h67l-128 -602h374z" />
    <glyph glyph-name="M" unicode="M" horiz-adv-x="859" 
d="M700 0h-67l127 597l-360 -597h-63l-106 599l-128 -599h-66l142 666h102l102 -582l354 582h104z" />
    <glyph glyph-name="N" unicode="N" horiz-adv-x="718" 
d="M559 0h-75l-258 587l-124 -587h-65l142 666h81l253 -573l122 573h65z" />
    <glyph glyph-name="O" unicode="O" horiz-adv-x="748" 
d="M702 367q0 -159 -99.5 -269t-250.5 -110q-132 0 -209.5 87t-77.5 224q0 159 99.5 269t250.5 110q132 0 209.5 -87t77.5 -224zM629 370q0 111 -56 177t-158 66q-121 0 -199 -90.5t-78 -225.5q0 -112 56 -178t158 -66q121 0 199 90.5t78 226.5z" />
    <glyph glyph-name="P" unicode="P" horiz-adv-x="623" 
d="M175 333h210q87 0 128.5 41.5t41.5 108.5q0 119 -147 119h-175zM375 270h-213l-57 -270h-68l142 666h237q103 0 157.5 -49t54.5 -133q0 -93 -64.5 -153.5t-188.5 -60.5z" />
    <glyph glyph-name="Q" unicode="Q" horiz-adv-x="748" 
d="M702 367q0 -96 -39 -177.5t-107 -133.5l58 -88l-51 -35l-60 90q-68 -35 -151 -35q-132 0 -209.5 87t-77.5 224q0 159 99.5 269t250.5 110q132 0 209.5 -87t77.5 -224zM629 370q0 111 -56 177t-158 66q-121 0 -199 -90.5t-78 -225.5q0 -112 56 -178t158 -66q61 0 114 25
l-61 93l52 35l62 -94q52 43 81 110.5t29 147.5z" />
    <glyph glyph-name="R" unicode="R" horiz-adv-x="658" 
d="M179 666h264q86 0 137 -48t51 -129q0 -73 -51 -127.5t-140 -70.5l124 -291h-73l-119 283h-207l-60 -283h-68zM432 602h-199l-54 -254h211q75 0 121.5 39.5t46.5 99.5q0 53 -32.5 84t-93.5 31z" />
    <glyph glyph-name="S" unicode="S" horiz-adv-x="572" 
d="M174 508q0 -43 31 -68t103 -58q43 -19 63 -29t51.5 -29.5t46 -37.5t26 -46t11.5 -61q0 -80 -68 -135.5t-173 -55.5q-85 0 -151 37.5t-98 97.5l60 36q29 -55 82.5 -81t113.5 -26q72 0 118 35t46 93q0 47 -31.5 71.5t-116.5 62.5q-6 3 -9 4q-41 19 -65.5 32.5t-53 35.5
t-41.5 50.5t-13 65.5q0 81 64 128.5t155 47.5q145 0 223 -118l-56 -41q-54 95 -172 95q-63 0 -104.5 -27.5t-41.5 -78.5z" />
    <glyph glyph-name="T" unicode="T" horiz-adv-x="571" 
d="M614 602h-230l-128 -602h-68l128 602h-229l14 64h526z" />
    <glyph glyph-name="U" unicode="U" horiz-adv-x="703" 
d="M694 666l-91 -428q-25 -117 -103.5 -183.5t-196.5 -66.5q-99 0 -163 57t-64 146q0 32 10 76l85 399h68l-87 -409q-8 -37 -8 -57q0 -67 44 -107t120 -40q89 0 149 50.5t80 144.5l89 418h68z" />
    <glyph glyph-name="V" unicode="V" horiz-adv-x="602" 
d="M592 666h73l-390 -666h-78l-107 666h70l88 -594z" />
    <glyph glyph-name="W" unicode="W" horiz-adv-x="929" 
d="M975 666l-323 -666h-82l-41 588l-291 -588h-84l-38 666h65l29 -595l295 595h76l42 -596l278 596h74z" />
    <glyph glyph-name="X" unicode="X" horiz-adv-x="612" 
d="M545 0h-77l-157 294l-275 -294h-89l330 352l-171 314h80l142 -266l249 266h91l-309 -322z" />
    <glyph glyph-name="Y" unicode="Y" 
d="M646 666l-333 -393l-58 -273h-70l58 274l-164 392h75l136 -325l272 325h84z" />
    <glyph glyph-name="Z" unicode="Z" horiz-adv-x="577" 
d="M471 0h-491l14 64l508 538h-378l13 64h468l-14 -65l-509 -537h403z" />
    <glyph glyph-name="bracketleft" unicode="[" horiz-adv-x="292" 
d="M192 -108h-189l175 822h189l-12 -58h-130l-150 -706h130z" />
    <glyph glyph-name="backslash" unicode="\" horiz-adv-x="356" 
d="M225 -108h-47l-44 822h47z" />
    <glyph glyph-name="bracketright" unicode="]" horiz-adv-x="291" 
d="M120 -108h-190l12 58h131l150 706h-131l13 58h190z" />
    <glyph glyph-name="asciicircum" unicode="^" 
d="M572 434l-44 -36l-166 220l-260 -220l-35 43l268 225h59z" />
    <glyph glyph-name="underscore" unicode="_" horiz-adv-x="603" 
d="M506 -125h-585l11 50h585z" />
    <glyph glyph-name="grave" unicode="`" horiz-adv-x="312" 
d="M282 609l-27 -29q-42 26 -80 64t-52 70l69 11q35 -61 90 -116z" />
    <glyph glyph-name="a" unicode="a" horiz-adv-x="563" 
d="M474 350l-51 -235q-5 -25 -5 -33q0 -34 40 -34q22 0 42 13l14 -56q-24 -14 -65 -14q-40 0 -65 19.5t-25 55.5q0 8 1 13q-68 -91 -181 -91q-76 0 -119.5 38.5t-43.5 107.5q0 138 192 161q9 1 39.5 4t43 5t37 6.5t36.5 11t26 15.5t20 23t6 31q0 42 -33.5 59.5t-80.5 17.5
q-99 0 -174 -59l-33 47q96 71 209 71q78 0 127 -34t49 -97q0 -22 -6 -46zM383 215l18 83q-15 -13 -31.5 -22.5t-40.5 -15.5t-34.5 -8.5t-43.5 -6t-38 -4.5q-66 -9 -99 -31t-33 -72q0 -91 107 -91q68 0 122.5 42t72.5 126z" />
    <glyph glyph-name="b" unicode="b" horiz-adv-x="623" 
d="M110 114l-24 -114h-62l151 714h62l-59 -277q74 90 179 90q94 0 151.5 -67t57.5 -172q0 -123 -76.5 -211.5t-188.5 -88.5q-61 0 -112 30.5t-79 95.5zM136 222q0 -77 41 -125.5t118 -48.5q94 0 149 70t55 169q0 79 -38 129.5t-114 50.5q-94 0 -152.5 -75t-58.5 -170z" />
    <glyph glyph-name="c" unicode="c" horiz-adv-x="529" 
d="M414 129l44 -41q-80 -100 -197 -100q-100 0 -158.5 67t-58.5 171q0 124 79 212.5t195 88.5q64 0 112.5 -29t75.5 -79l-55 -36q-45 84 -135 84q-92 0 -149 -69.5t-57 -167.5q0 -80 40.5 -131.5t114.5 -51.5q85 0 149 82z" />
    <glyph glyph-name="d" unicode="d" horiz-adv-x="624" 
d="M501 401l66 313h62l-151 -714h-62l17 78q-74 -90 -179 -90q-94 0 -151.5 67t-57.5 172q0 123 76.5 211.5t188.5 88.5q61 0 112 -30.5t79 -95.5zM475 293q0 77 -41 125.5t-118 48.5q-94 0 -149 -70t-55 -169q0 -79 38 -129.5t114 -50.5q94 0 152.5 75t58.5 170z" />
    <glyph glyph-name="e" unicode="e" horiz-adv-x="575" 
d="M528 308q0 -38 -9 -65h-408q-1 -9 -1 -25q0 -75 47.5 -122t124.5 -47q94 0 153 70l43 -43q-83 -88 -199 -88q-108 0 -172 67t-64 174q0 121 76.5 209.5t192.5 88.5q98 0 157 -64t59 -155zM120 297h342q1 6 1 14q0 72 -42.5 114t-109.5 42q-72 0 -124 -47.5t-67 -122.5z
" />
    <glyph glyph-name="f" unicode="f" horiz-adv-x="329" 
d="M161 515l19 87q27 123 146 123q50 0 88 -21l-25 -54q-29 19 -69 19q-63 0 -80 -77l-16 -77h123l-12 -57h-124l-97 -458h-62l97 458h-89l12 57h89z" />
    <glyph glyph-name="g" unicode="g" horiz-adv-x="622" 
d="M585 515l-96 -453q-25 -117 -85 -175q-74 -71 -193 -71q-123 0 -209 79l47 50q28 -29 74 -49t99 -20q79 0 134 49t73 141l8 40q-67 -83 -177 -83q-96 0 -155 61.5t-59 158.5q0 120 78.5 202t189.5 82q60 0 110 -29.5t77 -87.5l23 105h61zM476 307q0 68 -41.5 113
t-119.5 45q-96 0 -149.5 -63.5t-53.5 -151.5q0 -73 39.5 -120.5t115.5 -47.5q94 0 151.5 67t57.5 158z" />
    <glyph glyph-name="h" unicode="h" horiz-adv-x="586" 
d="M237 714l-60 -283q80 96 189 96q74 0 114.5 -42.5t40.5 -110.5q0 -23 -7 -56l-69 -318h-62l67 313q7 31 7 52q0 49 -27.5 75.5t-79.5 26.5q-72 0 -130 -52.5t-75 -132.5l-59 -282h-62l151 714h62z" />
    <glyph glyph-name="i" unicode="i" horiz-adv-x="232" 
d="M220 634h-62l17 80h62zM86 0h-62l109 515h62z" />
    <glyph glyph-name="j" unicode="j" horiz-adv-x="233" 
d="M196 515l-119 -558q-29 -140 -143 -140q-63 0 -100 41l41 42q23 -29 59 -29t55 27t30 79l115 538h62zM221 634h-62l17 80h62z" />
    <glyph glyph-name="k" unicode="k" horiz-adv-x="534" 
d="M136 236l331 279h88l-263 -220l182 -295h-74l-158 257l-124 -104l-32 -153h-62l152 714h61z" />
    <glyph glyph-name="l" unicode="l" horiz-adv-x="229" 
d="M85 0h-62l151 714h62z" />
    <glyph glyph-name="m" unicode="m" horiz-adv-x="907" 
d="M766 0h-62l67 313q7 31 7 52q0 48 -27 75t-77 27q-66 0 -119 -52.5t-69 -132.5l-59 -282h-64l67 313q7 31 7 52q0 48 -27 75t-77 27q-66 0 -119 -52.5t-69 -132.5l-59 -282h-62l109 515h62l-18 -84q74 96 175 96q56 0 93.5 -29t49.5 -78q84 107 198 107q69 0 109 -43
t40 -110q0 -23 -7 -56z" />
    <glyph glyph-name="n" unicode="n" horiz-adv-x="586" 
d="M195 515l-18 -84q80 96 189 96q74 0 114.5 -42.5t40.5 -110.5q0 -23 -7 -56l-69 -318h-62l67 313q7 31 7 52q0 49 -27.5 75.5t-79.5 26.5q-72 0 -130 -52.5t-75 -132.5l-59 -282h-62l109 515h62z" />
    <glyph glyph-name="o" unicode="o" horiz-adv-x="592" 
d="M534 286q0 -124 -75.5 -211t-191.5 -87q-103 0 -162.5 67t-59.5 174q0 124 75.5 211t192.5 87q103 0 162 -67t59 -174zM468 287q0 79 -40 129.5t-114 50.5q-89 0 -146 -70t-57 -168q0 -79 40.5 -130.5t114.5 -51.5q88 0 145 71t57 169z" />
    <glyph glyph-name="p" unicode="p" horiz-adv-x="623" 
d="M110 114l-61 -288h-62l146 689h62l-17 -78q74 90 179 90q94 0 151.5 -67t57.5 -172q0 -123 -76.5 -211.5t-188.5 -88.5q-61 0 -112 30.5t-79 95.5zM136 222q0 -77 41 -125.5t118 -48.5q94 0 149 70t55 169q0 79 -38 129.5t-114 50.5q-94 0 -152.5 -75t-58.5 -170z" />
    <glyph glyph-name="q" unicode="q" horiz-adv-x="624" 
d="M379 -174l54 252q-74 -90 -179 -90q-94 0 -151.5 67t-57.5 172q0 123 76.5 211.5t188.5 88.5q61 0 112 -30.5t79 -95.5l24 114h62l-146 -689h-62zM475 293q0 77 -41 125.5t-118 48.5q-94 0 -149 -70t-55 -169q0 -79 38 -129.5t114 -50.5q94 0 152.5 75t58.5 170z" />
    <glyph glyph-name="r" unicode="r" horiz-adv-x="383" 
d="M413 504l-32 -54q-25 15 -56 15q-57 0 -110 -50.5t-71 -138.5l-59 -276h-61l109 515h62l-18 -84q74 93 159 93q47 0 77 -20z" />
    <glyph glyph-name="s" unicode="s" horiz-adv-x="496" 
d="M421 144q0 -66 -54.5 -111t-147.5 -45q-72 0 -128 27.5t-88 76.5l55 34q56 -79 162 -79q60 0 99 24.5t39 67.5q0 34 -26 51.5t-92 43.5q-9 3 -14 5q-71 27 -107.5 58t-36.5 87q0 69 54.5 106t130.5 37q118 0 195 -81l-47 -42q-62 64 -151 64q-49 0 -85 -19t-36 -57
q0 -15 7 -28t15.5 -21.5t27.5 -18t30.5 -14.5t35.5 -14q34 -13 47.5 -18.5t41 -20.5t39.5 -28t23 -35.5t11 -49.5z" />
    <glyph glyph-name="t" unicode="t" horiz-adv-x="375" 
d="M284 73l29 -48q-51 -37 -114 -37q-58 0 -93.5 27.5t-35.5 78.5q0 19 8 55l65 309h-89l12 57h89l33 151h61l-32 -151h171l-12 -57h-171l-65 -309q-6 -32 -6 -42q0 -29 18.5 -45t51.5 -16q48 0 80 27z" />
    <glyph glyph-name="u" unicode="u" horiz-adv-x="586" 
d="M378 0l18 84q-80 -96 -189 -96q-74 0 -114.5 42.5t-40.5 110.5q0 23 7 56l69 318h62l-67 -313q-7 -32 -7 -52q0 -49 27.5 -75.5t79.5 -26.5q72 0 130 52.5t75 132.5l59 282h62l-109 -515h-62z" />
    <glyph glyph-name="v" unicode="v" horiz-adv-x="507" 
d="M535 515l-312 -515h-68l-93 515h64l75 -443l262 443h72z" />
    <glyph glyph-name="w" unicode="w" horiz-adv-x="763" 
d="M777 515l-249 -515h-72l-42 439l-229 -439h-72l-30 515h59l19 -450l233 450h65l42 -450l210 450h66z" />
    <glyph glyph-name="x" unicode="x" horiz-adv-x="508" 
d="M428 0h-71l-114 221l-206 -221h-80l259 271l-132 244h72l104 -200l182 200h79l-235 -248z" />
    <glyph glyph-name="y" unicode="y" horiz-adv-x="506" 
d="M533 515l-318 -541q-47 -84 -87 -121t-101 -37t-95 28l38 49q25 -20 55 -20q36 0 62.5 24.5t53.5 68.5l24 40l-105 509h66l87 -431l249 431h71z" />
    <glyph glyph-name="z" unicode="z" horiz-adv-x="488" 
d="M383 0h-402l12 56l400 402h-302l12 57h380l-13 -59l-395 -400h320z" />
    <glyph glyph-name="braceleft" unicode="{" horiz-adv-x="339" 
d="M241 -115h-25q-64 0 -99.5 32t-35.5 86q0 23 7 54l22 109q6 30 6 46q0 63 -71 63h-29l12 57h38q44 0 68 27.5t35 80.5l26 124q33 157 189 157h35l-12 -58h-33q-52 0 -80 -26.5t-40 -80.5l-27 -130q-21 -101 -106 -124q55 -25 55 -92q0 -18 -5 -46l-24 -114q-6 -28 -6 -44
q0 -63 79 -63h34z" />
    <glyph glyph-name="bar" unicode="|" horiz-adv-x="220" 
d="M48 -108h-46l176 822h46z" />
    <glyph glyph-name="braceright" unicode="}" horiz-adv-x="335" 
d="M102 721h25q64 0 99.5 -32t35.5 -86q0 -23 -7 -54l-22 -109q-6 -30 -6 -46q0 -62 71 -62h29l-12 -57h-38q-44 0 -68 -28t-35 -81l-26 -124q-33 -157 -189 -157h-35l12 58h33q52 0 80 26.5t40 80.5l27 130q21 101 106 124q-55 25 -55 92q0 18 5 46l24 114q6 28 6 44
q0 63 -79 63h-34z" />
    <glyph glyph-name="asciitilde" unicode="~" horiz-adv-x="591" 
d="M213 316q-62 0 -119 -73l-34 33q77 101 162 101q34 0 74 -26l39 -25q31 -20 54 -20q62 0 119 73l34 -33q-77 -101 -162 -101q-34 0 -74 26l-39 25q-31 20 -54 20z" />
    <glyph glyph-name="uni00A0" unicode="&#xa0;" horiz-adv-x="270" 
 />
    <glyph glyph-name="exclamdown" unicode="&#xa1;" horiz-adv-x="253" 
d="M25 -11l96 333h30l-51 -333l-31 -140h-74zM137 515h74l-20 -96h-75z" />
    <glyph glyph-name="cent" unicode="&#xa2;" 
d="M428 129l44 -41q-80 -100 -197 -100h-7l-17 -82h-51l18 88q-75 18 -117.5 81t-42.5 151q0 124 79 212.5t195 88.5l17 81h51l-19 -86q94 -19 139 -103l-55 -36q-35 65 -96 80l-88 -416q83 0 147 82zM124 230q0 -66 27.5 -113.5t79.5 -63.5l88 414q-88 -4 -141.5 -73.5
t-53.5 -163.5z" />
    <glyph glyph-name="sterling" unicode="&#xa3;" 
d="M124 68q41 19 93 19q31 0 84 -17.5t74 -17.5q26 0 43.5 17t28.5 59l62 -24q-37 -116 -133 -116q-32 0 -93 20.5t-100 20.5q-67 0 -147 -41l-25 46q137 85 137 185q0 31 -7 66h-103l11 53h79q-20 84 -20 127q0 95 64.5 154t161.5 59q129 0 214 -113l-57 -43
q-60 91 -163 91q-66 0 -109 -39t-43 -112q0 -42 21 -124h210l-11 -53h-188q6 -36 6 -57q0 -95 -90 -160z" />
    <glyph glyph-name="currency" unicode="&#xa4;" 
d="M420 319q0 50 -31 82.5t-84 32.5q-63 0 -105 -42.5t-42 -103.5q0 -50 31 -82.5t84 -32.5q63 0 105 42.5t42 103.5zM75 88l-36 42l87 73q-20 37 -20 85q0 78 54 135l-46 60l44 34l45 -59q49 28 102 28q67 0 112 -39l86 72l36 -42l-87 -73q20 -38 20 -85q0 -79 -56 -137
l47 -60l-44 -34l-46 60q-46 -27 -100 -27q-69 0 -113 38z" />
    <glyph glyph-name="yen" unicode="&#xa5;" 
d="M614 666l-244 -320h137l-10 -48h-163l-20 -25l-14 -66h178l-10 -48h-178l-34 -159h-67l33 159h-178l10 48h179l14 66l-11 25h-162l10 48h138l-106 320h75l100 -333l239 333h84z" />
    <glyph glyph-name="brokenbar" unicode="&#xa6;" horiz-adv-x="225" 
d="M161 402h-48l67 312h47zM53 -108h-48l66 312h48z" />
    <glyph glyph-name="section" unicode="&#xa7;" horiz-adv-x="547" 
d="M193 -71q107 0 160 81l-60 50q-208 171 -208 348q0 114 73.5 192.5t191.5 78.5q115 0 192 -80l-39 -46q-72 68 -157 68q-107 0 -161 -82l61 -49q208 -171 208 -348q0 -114 -73.5 -192.5t-191.5 -78.5q-115 0 -192 80l39 46q72 -68 157 -68zM199 456l-37 33
q-13 -36 -13 -82q0 -50 15 -94t47.5 -85.5t57.5 -67t71 -66.5l37 -34q13 42 13 83q0 50 -15 94t-47.5 85.5t-57.5 67t-71 66.5z" />
    <glyph glyph-name="dieresis" unicode="&#xa8;" horiz-adv-x="313" 
d="M157 600h-63l15 66h63zM356 600h-63l15 66h63z" />
    <glyph glyph-name="copyright" unicode="&#xa9;" horiz-adv-x="823" 
d="M773 333q0 -145 -103 -248t-248 -103t-248.5 103t-103.5 248t103 248t249 103q145 0 248 -103t103 -248zM725 333q0 127 -89 216t-214 89q-126 0 -215.5 -89t-89.5 -216q0 -126 89 -215t216 -89q126 0 214.5 89t88.5 215zM589 230q-26 -43 -70.5 -68t-96.5 -25
q-82 0 -139.5 57.5t-57.5 138.5q0 82 57.5 139.5t139.5 57.5q52 0 96 -25t70 -67l-40 -27q-20 33 -53.5 52t-72.5 19q-62 0 -105.5 -44t-43.5 -105t44 -104.5t105 -43.5q81 0 127 71z" />
    <glyph glyph-name="ordfeminine" unicode="&#xaa;" horiz-adv-x="436" 
d="M380 592q0 -16 -8 -54l-26 -120l-3 -21q0 -21 23 -21q14 0 25 8l9 -40q-15 -10 -43 -10q-26 0 -42 12t-16 33q0 5 1 9q-43 -56 -115 -56q-48 0 -76 24.5t-28 69.5q0 29 11.5 49t32.5 30.5t38.5 15t41.5 7.5q7 1 19.5 2.5t19.5 2t18.5 2.5t18 3.5t15.5 4.5t14 6.5t10 8.5
t7 11.5t2 14.5q0 45 -68 45q-61 0 -108 -36l-23 37q62 44 134 44q51 0 83 -21.5t33 -60.5zM309 474l11 49q-20 -18 -55 -26t-62.5 -9t-48.5 -15t-21 -44q0 -53 63 -53q40 0 71 24.5t42 73.5z" />
    <glyph glyph-name="guillemotleft" unicode="&#xab;" horiz-adv-x="457" 
d="M39 248l4 20l152 187l40 -38l-140 -166l90 -162l-51 -28zM212 248l4 20l174 187l38 -41l-160 -163l90 -162l-51 -28z" />
    <glyph glyph-name="logicalnot" unicode="&#xac;" horiz-adv-x="594" 
d="M476 75h-56l43 201h-395l12 56h451z" />
    <glyph glyph-name="registered" unicode="&#xae;" horiz-adv-x="491" 
d="M322 476l47 -78h-33l-43 74h-50v-74h-28v192h85q26 0 44 -16.5t18 -42.5q0 -42 -40 -55zM333 531q0 14 -9.5 23.5t-21.5 9.5h-59v-66h59q12 0 21.5 9.5t9.5 23.5zM101 493q0 77 54.5 131t130.5 54t130.5 -54t54.5 -131t-54.5 -131t-130.5 -54t-130.5 54t-54.5 131z
M125 493q0 -67 47 -114t114 -47t114 47t47 114t-47 114t-114 47t-114 -47t-47 -114z" />
    <glyph glyph-name="macron" unicode="&#xaf;" horiz-adv-x="312" 
d="M371 616h-283l11 50h283z" />
    <glyph glyph-name="degree" unicode="&#xb0;" horiz-adv-x="393" 
d="M391 531q0 -60 -43 -103t-103 -43q-61 0 -104 43t-43 103q0 61 43 104t104 43q60 0 103 -43t43 -104zM344 531q0 41 -29.5 70.5t-69.5 29.5q-41 0 -70.5 -29.5t-29.5 -70.5q0 -40 30 -69.5t70 -29.5t69.5 29.5t29.5 69.5z" />
    <glyph glyph-name="plusminus" unicode="&#xb1;" 
d="M455 0h-451l12 56h451zM525 335h-197l-43 -202h-57l43 202h-197l12 56h197l43 203h57l-43 -203h197z" />
    <glyph glyph-name="twosuperior" unicode="&#xb2;" horiz-adv-x="363" 
d="M348 339h-284l9 40q150 114 201.5 166t51.5 98q0 35 -22.5 55t-57.5 20q-59 0 -97 -58l-43 27q56 79 145 79q58 0 94.5 -33.5t36.5 -86.5q0 -59 -52 -114.5t-179 -144.5h208z" />
    <glyph glyph-name="threesuperior" unicode="&#xb3;" horiz-adv-x="376" 
d="M317 458q0 37 -25.5 56.5t-68.5 19.5h-27l9 45h52q34 0 56.5 18t22.5 51q0 35 -25 53t-59 18q-60 0 -97 -45l-36 33q53 59 135 59q60 0 98 -32t38 -81q0 -36 -22.5 -62.5t-58.5 -37.5q25 -12 43.5 -38t18.5 -60q0 -54 -42.5 -89t-108.5 -35q-55 0 -96 25t-61 68l47 25
q31 -70 112 -70q42 0 68.5 21.5t26.5 57.5z" />
    <glyph glyph-name="acute" unicode="&#xb4;" horiz-adv-x="312" 
d="M206 579l-21 30q61 56 107 116l63 -28q-18 -31 -60 -64t-89 -54z" />
    <glyph glyph-name="mu" unicode="&#x3bc;" 
d="M33 -174h-62l146 689h62l-67 -313q-7 -32 -7 -54q0 -47 27 -73.5t76 -26.5q70 0 123.5 52t70.5 133l59 282h62l-86 -400q-5 -25 -5 -33q0 -34 38 -34q19 0 34 13l2 -61q-22 -9 -46 -9q-38 0 -62.5 19.5t-24.5 55.5q0 8 1 13q-77 -91 -173 -91q-80 0 -120 63z" />
    <glyph glyph-name="mu" unicode="&#xb5;" 
d="M33 -174h-62l146 689h62l-67 -313q-7 -32 -7 -54q0 -47 27 -73.5t76 -26.5q70 0 123.5 52t70.5 133l59 282h62l-86 -400q-5 -25 -5 -33q0 -34 38 -34q19 0 34 13l2 -61q-22 -9 -46 -9q-38 0 -62.5 19.5t-24.5 55.5q0 8 1 13q-77 -91 -173 -91q-80 0 -120 63z" />
    <glyph glyph-name="paragraph" unicode="&#xb6;" horiz-adv-x="572" 
d="M395 -91h-48l152 716h-66l-152 -716h-49l77 360h-48q-73 0 -124 49.5t-51 128.5q0 96 65 157.5t159 61.5h246z" />
    <glyph glyph-name="periodcentered" unicode="&#xb7;" horiz-adv-x="254" 
d="M78 305q0 21 15 36t36 15t36 -15t15 -36t-15 -36t-36 -15t-36 15t-15 36z" />
    <glyph glyph-name="cedilla" unicode="&#xb8;" horiz-adv-x="312" 
d="M-64 -106l29 26q28 -35 69 -35q22 0 35.5 14.5t13.5 35.5q0 45 -39 86h29q62 -47 62 -104q0 -37 -26.5 -58.5t-64.5 -21.5q-66 0 -108 57z" />
    <glyph glyph-name="onesuperior" unicode="&#xb9;" horiz-adv-x="309" 
d="M309 339h-254l9 43h104l66 313q-37 -22 -111 -32l-4 40q94 17 142 56h40l-81 -377h99z" />
    <glyph glyph-name="ordmasculine" unicode="&#xba;" horiz-adv-x="416" 
d="M409 520q0 -79 -48.5 -133.5t-123.5 -54.5q-67 0 -106 43t-39 112q0 78 48.5 132.5t124.5 54.5q67 0 105.5 -42.5t38.5 -111.5zM356 521q0 47 -23.5 77t-67.5 30q-53 0 -86.5 -42t-33.5 -100q0 -47 24 -77.5t68 -30.5q52 0 85.5 42.5t33.5 100.5z" />
    <glyph glyph-name="guillemotright" unicode="&#xbb;" horiz-adv-x="457" 
d="M406 268l-4 -20l-152 -187l-40 38l140 166l-90 162l51 28zM233 268l-4 -20l-174 -187l-38 41l160 163l-90 162l51 28z" />
    <glyph glyph-name="onequarter" unicode="&#xbc;" horiz-adv-x="922" 
d="M326 246h-254l9 43h104l66 313q-37 -22 -111 -32l-4 40q94 17 142 56h40l-81 -377h99zM828 101h-62l-21 -101h-52l22 101h-203l9 44q79 71 124 147.5t48 127.5h53q-1 -50 -50 -134t-115 -139h144l30 136h50l-29 -136h62zM780 666l-569 -666h-53l569 666h53z" />
    <glyph glyph-name="onehalf" unicode="&#xbd;" horiz-adv-x="922" 
d="M321 246h-254l9 43h104l66 313q-37 -22 -111 -32l-4 40q94 17 142 56h40l-81 -377h99zM806 0h-284l9 40q150 114 201.5 166t51.5 98q0 35 -22.5 55t-57.5 20q-59 0 -97 -58l-43 27q56 79 145 79q58 0 94.5 -33.5t36.5 -86.5q0 -60 -53 -118t-178 -141h208zM775 666
l-569 -666h-53l569 666h53z" />
    <glyph glyph-name="threequarters" unicode="&#xbe;" horiz-adv-x="922" 
d="M323 365q0 37 -25.5 56.5t-68.5 19.5h-27l9 45h52q34 0 56.5 18t22.5 51q0 35 -25 53t-59 18q-60 0 -97 -45l-36 33q53 59 135 59q60 0 98 -32t38 -81q0 -36 -22.5 -62.5t-58.5 -37.5q25 -12 43.5 -38t18.5 -60q0 -54 -42.5 -89t-108.5 -35q-55 0 -96 25t-61 68l47 25
q31 -70 112 -70q42 0 68.5 21.5t26.5 57.5zM835 101h-62l-21 -101h-52l22 101h-203l9 44q79 71 124 147.5t48 127.5h53q-1 -50 -50 -134t-115 -139h144l30 136h50l-29 -136h62zM787 666l-569 -666h-53l569 666h53z" />
    <glyph glyph-name="questiondown" unicode="&#xbf;" horiz-adv-x="516" 
d="M277 231l18 89h57l-30 -145q-22 3 -37 3q-81 0 -137.5 -48t-56.5 -122q0 -51 30.5 -80t91.5 -29q79 0 159 64l38 -45q-96 -83 -205 -83q-81 0 -133 47.5t-52 125.5q0 92 72 155.5t185 67.5zM378 419h-74l20 96h75z" />
    <glyph glyph-name="Agrave" unicode="&#xc0;" horiz-adv-x="643" 
d="M574 0h-71l-37 202h-310l-124 -202h-77l412 666h78zM454 266l-58 331l-201 -331h259zM460 735l-27 -29q-42 26 -80 64t-52 70l69 11q35 -61 90 -116z" />
    <glyph glyph-name="Aacute" unicode="&#xc1;" horiz-adv-x="643" 
d="M574 0h-71l-37 202h-310l-124 -202h-77l412 666h78zM454 266l-58 331l-201 -331h259zM399 705l-21 30q61 56 107 116l63 -28q-18 -31 -60 -64t-89 -54z" />
    <glyph glyph-name="Acircumflex" unicode="&#xc2;" horiz-adv-x="643" 
d="M574 0h-71l-37 202h-310l-124 -202h-77l412 666h78zM454 266l-58 331l-201 -331h259zM409 851h54q45 -64 104 -105l-25 -34q-69 29 -114 82q-20 -20 -62 -44t-84 -38l-19 37q73 43 146 102z" />
    <glyph glyph-name="Atilde" unicode="&#xc3;" horiz-adv-x="643" 
d="M574 0h-71l-37 202h-310l-124 -202h-77l412 666h78zM454 266l-58 331l-201 -331h259zM561 824l27 -21q-38 -77 -95 -77q-20 0 -67.5 18.5t-66.5 18.5q-34 0 -63 -37l-27 21q38 77 95 77q20 0 67.5 -18.5t66.5 -18.5q34 0 63 37z" />
    <glyph glyph-name="Adieresis" unicode="&#xc4;" horiz-adv-x="643" 
d="M574 0h-71l-37 202h-310l-124 -202h-77l412 666h78zM454 266l-58 331l-201 -331h259zM347 726h-63l15 66h63zM546 726h-63l15 66h63z" />
    <glyph glyph-name="Aring" unicode="&#xc5;" horiz-adv-x="638" 
d="M452 266l-58 331l-201 -331h259zM469 725q0 25 -17 42.5t-41 17.5q-25 0 -42 -17.5t-17 -42.5t17 -42t42 -17q24 0 41 17t17 42zM510 725q0 -31 -17 -56t-44 -36l123 -633h-71l-37 202h-310l-124 -202h-77l398 644q-40 32 -40 81q0 41 29.5 71t70.5 30t70 -30t29 -71z
" />
    <glyph glyph-name="AE" unicode="&#xc6;" horiz-adv-x="869" 
d="M752 0h-397l43 202h-241l-145 -202h-79l479 666h482l-14 -64h-327l-46 -217h269l-13 -63h-270l-55 -258h328zM412 266l71 336h-39l-241 -336h209z" />
    <glyph glyph-name="Ccedilla" unicode="&#xc7;" horiz-adv-x="663" 
d="M144 -106l29 26q28 -35 69 -35q22 0 35.5 14.5t13.5 35.5q0 29 -21 63q-95 25 -149 106t-54 194q0 159 101.5 269.5t253.5 110.5q162 0 243 -133l-59 -39q-54 107 -187 107q-124 0 -202 -90t-78 -224q0 -112 56.5 -179t154.5 -67q121 0 194 98l52 -40q-97 -123 -247 -123
q-12 0 -36 2q30 -35 30 -73q0 -37 -26.5 -58.5t-64.5 -21.5q-66 0 -108 57z" />
    <glyph glyph-name="Egrave" unicode="&#xc8;" horiz-adv-x="614" 
d="M496 0h-459l142 666h459l-14 -64h-390l-47 -217h332l-13 -63h-332l-55 -258h391zM456 735l-27 -29q-42 26 -80 64t-52 70l69 11q35 -61 90 -116z" />
    <glyph glyph-name="Eacute" unicode="&#xc9;" horiz-adv-x="614" 
d="M496 0h-459l142 666h459l-14 -64h-390l-47 -217h332l-13 -63h-332l-55 -258h391zM393 705l-21 30q61 56 107 116l63 -28q-18 -31 -60 -64t-89 -54z" />
    <glyph glyph-name="Ecircumflex" unicode="&#xca;" horiz-adv-x="614" 
d="M496 0h-459l142 666h459l-14 -64h-390l-47 -217h332l-13 -63h-332l-55 -258h391zM420 851h54q45 -64 104 -105l-25 -34q-69 29 -114 82q-20 -20 -62 -44t-84 -38l-19 37q73 43 146 102z" />
    <glyph glyph-name="Edieresis" unicode="&#xcb;" horiz-adv-x="614" 
d="M496 0h-459l142 666h459l-14 -64h-390l-47 -217h332l-13 -63h-332l-55 -258h391zM352 726h-63l15 66h63zM551 726h-63l15 66h63z" />
    <glyph glyph-name="Igrave" unicode="&#xcc;" horiz-adv-x="264" 
d="M105 0h-68l142 666h67zM262 735l-27 -29q-42 26 -80 64t-52 70l69 11q35 -61 90 -116z" />
    <glyph glyph-name="Iacute" unicode="&#xcd;" horiz-adv-x="264" 
d="M105 0h-68l142 666h67zM215 705l-21 30q61 56 107 116l63 -28q-18 -31 -60 -64t-89 -54z" />
    <glyph glyph-name="Icircumflex" unicode="&#xce;" horiz-adv-x="264" 
d="M105 0h-68l142 666h67zM216 851h54q45 -64 104 -105l-25 -34q-69 29 -114 82q-20 -20 -62 -44t-84 -38l-19 37q73 43 146 102z" />
    <glyph glyph-name="Idieresis" unicode="&#xcf;" horiz-adv-x="264" 
d="M105 0h-68l142 666h67zM157 726h-63l15 66h63zM356 726h-63l15 66h63z" />
    <glyph glyph-name="Eth" unicode="&#xd0;" horiz-adv-x="721" 
d="M318 0h-280l67 316h-111l12 57h111l63 293h205q139 0 214.5 -82t75.5 -210q0 -103 -41 -187t-123.5 -135.5t-192.5 -51.5zM120 64h205q129 0 203.5 87t74.5 219q0 110 -55 171t-165 61h-148l-49 -229h191l-12 -57h-191z" />
    <glyph glyph-name="Ntilde" unicode="&#xd1;" horiz-adv-x="718" 
d="M559 0h-75l-258 587l-124 -587h-65l142 666h81l253 -573l122 573h65zM599 824l27 -21q-38 -77 -95 -77q-20 0 -67.5 18.5t-66.5 18.5q-34 0 -63 -37l-27 21q38 77 95 77q20 0 67.5 -18.5t66.5 -18.5q34 0 63 37z" />
    <glyph glyph-name="Ograve" unicode="&#xd2;" horiz-adv-x="748" 
d="M702 367q0 -159 -99.5 -269t-250.5 -110q-132 0 -209.5 87t-77.5 224q0 159 99.5 269t250.5 110q132 0 209.5 -87t77.5 -224zM629 370q0 111 -56 177t-158 66q-121 0 -199 -90.5t-78 -225.5q0 -112 56 -178t158 -66q121 0 199 90.5t78 226.5zM467 735l-27 -29
q-42 26 -80 64t-52 70l69 11q35 -61 90 -116z" />
    <glyph glyph-name="Oacute" unicode="&#xd3;" horiz-adv-x="748" 
d="M702 367q0 -159 -99.5 -269t-250.5 -110q-132 0 -209.5 87t-77.5 224q0 159 99.5 269t250.5 110q132 0 209.5 -87t77.5 -224zM629 370q0 111 -56 177t-158 66q-121 0 -199 -90.5t-78 -225.5q0 -112 56 -178t158 -66q121 0 199 90.5t78 226.5zM414 705l-21 30
q61 56 107 116l63 -28q-18 -31 -60 -64t-89 -54z" />
    <glyph glyph-name="Ocircumflex" unicode="&#xd4;" horiz-adv-x="748" 
d="M702 367q0 -159 -99.5 -269t-250.5 -110q-132 0 -209.5 87t-77.5 224q0 159 99.5 269t250.5 110q132 0 209.5 -87t77.5 -224zM629 370q0 111 -56 177t-158 66q-121 0 -199 -90.5t-78 -225.5q0 -112 56 -178t158 -66q121 0 199 90.5t78 226.5zM420 851h54q45 -64 104 -105
l-25 -34q-69 29 -114 82q-20 -20 -62 -44t-84 -38l-19 37q73 43 146 102z" />
    <glyph glyph-name="Otilde" unicode="&#xd5;" horiz-adv-x="748" 
d="M702 367q0 -159 -99.5 -269t-250.5 -110q-132 0 -209.5 87t-77.5 224q0 159 99.5 269t250.5 110q132 0 209.5 -87t77.5 -224zM629 370q0 111 -56 177t-158 66q-121 0 -199 -90.5t-78 -225.5q0 -112 56 -178t158 -66q121 0 199 90.5t78 226.5zM564 824l27 -21
q-38 -77 -95 -77q-20 0 -67.5 18.5t-66.5 18.5q-34 0 -63 -37l-27 21q38 77 95 77q20 0 67.5 -18.5t66.5 -18.5q34 0 63 37z" />
    <glyph glyph-name="Odieresis" unicode="&#xd6;" horiz-adv-x="748" 
d="M702 367q0 -159 -99.5 -269t-250.5 -110q-132 0 -209.5 87t-77.5 224q0 159 99.5 269t250.5 110q132 0 209.5 -87t77.5 -224zM629 370q0 111 -56 177t-158 66q-121 0 -199 -90.5t-78 -225.5q0 -112 56 -178t158 -66q121 0 199 90.5t78 226.5zM350 726h-63l15 66h63z
M549 726h-63l15 66h63z" />
    <glyph glyph-name="multiply" unicode="&#xd7;" 
d="M77 89l-36 42l211 177l-136 176l44 34l134 -174l211 176l36 -42l-213 -178l137 -177l-44 -34l-135 175z" />
    <glyph glyph-name="Oslash" unicode="&#xd8;" horiz-adv-x="748" 
d="M145 -9l-36 28l39 50q-83 86 -83 230q0 159 99.5 269t250.5 110q98 0 168 -50l37 47l36 -28l-38 -49q84 -87 84 -231q0 -159 -99.5 -269t-250.5 -110q-100 0 -170 51zM629 370q0 109 -53 174l-353 -453q52 -38 129 -38q121 0 199 90.5t78 226.5zM138 297q0 -109 52 -173
l352 451q-52 38 -127 38q-121 0 -199 -90.5t-78 -225.5z" />
    <glyph glyph-name="Ugrave" unicode="&#xd9;" horiz-adv-x="703" 
d="M694 666l-91 -428q-25 -117 -103.5 -183.5t-196.5 -66.5q-99 0 -163 57t-64 146q0 32 10 76l85 399h68l-87 -409q-8 -37 -8 -57q0 -67 44 -107t120 -40q89 0 149 50.5t80 144.5l89 418h68zM485 735l-27 -29q-42 26 -80 64t-52 70l69 11q35 -61 90 -116z" />
    <glyph glyph-name="Uacute" unicode="&#xda;" horiz-adv-x="703" 
d="M694 666l-91 -428q-25 -117 -103.5 -183.5t-196.5 -66.5q-99 0 -163 57t-64 146q0 32 10 76l85 399h68l-87 -409q-8 -37 -8 -57q0 -67 44 -107t120 -40q89 0 149 50.5t80 144.5l89 418h68zM427 705l-21 30q61 56 107 116l63 -28q-18 -31 -60 -64t-89 -54z" />
    <glyph glyph-name="Ucircumflex" unicode="&#xdb;" horiz-adv-x="703" 
d="M694 666l-91 -428q-25 -117 -103.5 -183.5t-196.5 -66.5q-99 0 -163 57t-64 146q0 32 10 76l85 399h68l-87 -409q-8 -37 -8 -57q0 -67 44 -107t120 -40q89 0 149 50.5t80 144.5l89 418h68zM437 851h54q45 -64 104 -105l-25 -34q-69 29 -114 82q-20 -20 -62 -44t-84 -38
l-19 37q73 43 146 102z" />
    <glyph glyph-name="Udieresis" unicode="&#xdc;" horiz-adv-x="703" 
d="M694 666l-91 -428q-25 -117 -103.5 -183.5t-196.5 -66.5q-99 0 -163 57t-64 146q0 32 10 76l85 399h68l-87 -409q-8 -37 -8 -57q0 -67 44 -107t120 -40q89 0 149 50.5t80 144.5l89 418h68zM376 726h-63l15 66h63zM575 726h-63l15 66h63z" />
    <glyph glyph-name="Yacute" unicode="&#xdd;" 
d="M646 666l-333 -393l-58 -273h-70l58 274l-164 392h75l136 -325l272 325h84zM359 705l-21 30q61 56 107 116l63 -28q-18 -31 -60 -64t-89 -54z" />
    <glyph glyph-name="Thorn" unicode="&#xde;" horiz-adv-x="623" 
d="M352 162h-213l-34 -162h-68l142 666h66l-23 -108h171q103 0 157.5 -49t54.5 -133q0 -93 -64.5 -153.5t-188.5 -60.5zM152 225h210q86 0 128 41.5t42 108.5q0 119 -147 119h-175z" />
    <glyph glyph-name="germandbls" unicode="&#xdf;" horiz-adv-x="600" 
d="M353 726q95 0 151 -51.5t56 -129.5q0 -59 -39.5 -105t-98.5 -65q43 -20 75 -65.5t32 -107.5q0 -94 -70 -154t-177 -60q-65 0 -121 24l23 58q47 -23 105 -23q76 0 125 42.5t49 115.5q0 71 -48 111t-126 40h-23l11 58h69q65 0 107 32t42 94q0 64 -43 97t-101 33
q-123 0 -151 -127l-115 -543h-60l116 551q19 89 74.5 132t137.5 43z" />
    <glyph glyph-name="agrave" unicode="&#xe0;" horiz-adv-x="563" 
d="M474 350l-51 -235q-5 -25 -5 -33q0 -34 40 -34q22 0 42 13l14 -56q-24 -14 -65 -14q-40 0 -65 19.5t-25 55.5q0 8 1 13q-68 -91 -181 -91q-76 0 -119.5 38.5t-43.5 107.5q0 138 192 161q9 1 39.5 4t43 5t37 6.5t36.5 11t26 15.5t20 23t6 31q0 42 -33.5 59.5t-80.5 17.5
q-99 0 -174 -59l-33 47q96 71 209 71q78 0 127 -34t49 -97q0 -22 -6 -46zM383 215l18 83q-15 -13 -31.5 -22.5t-40.5 -15.5t-34.5 -8.5t-43.5 -6t-38 -4.5q-66 -9 -99 -31t-33 -72q0 -91 107 -91q68 0 122.5 42t72.5 126zM372 609l-27 -29q-42 26 -80 64t-52 70l69 11
q35 -61 90 -116z" />
    <glyph glyph-name="aacute" unicode="&#xe1;" horiz-adv-x="563" 
d="M474 350l-51 -235q-5 -25 -5 -33q0 -34 40 -34q22 0 42 13l14 -56q-24 -14 -65 -14q-40 0 -65 19.5t-25 55.5q0 8 1 13q-68 -91 -181 -91q-76 0 -119.5 38.5t-43.5 107.5q0 138 192 161q9 1 39.5 4t43 5t37 6.5t36.5 11t26 15.5t20 23t6 31q0 42 -33.5 59.5t-80.5 17.5
q-99 0 -174 -59l-33 47q96 71 209 71q78 0 127 -34t49 -97q0 -22 -6 -46zM383 215l18 83q-15 -13 -31.5 -22.5t-40.5 -15.5t-34.5 -8.5t-43.5 -6t-38 -4.5q-66 -9 -99 -31t-33 -72q0 -91 107 -91q68 0 122.5 42t72.5 126zM294 579l-21 30q61 56 107 116l63 -28
q-18 -31 -60 -64t-89 -54z" />
    <glyph glyph-name="acircumflex" unicode="&#xe2;" horiz-adv-x="563" 
d="M474 350l-51 -235q-5 -25 -5 -33q0 -34 40 -34q22 0 42 13l14 -56q-24 -14 -65 -14q-40 0 -65 19.5t-25 55.5q0 8 1 13q-68 -91 -181 -91q-76 0 -119.5 38.5t-43.5 107.5q0 138 192 161q9 1 39.5 4t43 5t37 6.5t36.5 11t26 15.5t20 23t6 31q0 42 -33.5 59.5t-80.5 17.5
q-99 0 -174 -59l-33 47q96 71 209 71q78 0 127 -34t49 -97q0 -22 -6 -46zM383 215l18 83q-15 -13 -31.5 -22.5t-40.5 -15.5t-34.5 -8.5t-43.5 -6t-38 -4.5q-66 -9 -99 -31t-33 -72q0 -91 107 -91q68 0 122.5 42t72.5 126zM322 725h54q45 -64 104 -105l-25 -34
q-69 29 -114 82q-20 -20 -62 -44t-84 -38l-19 37q73 43 146 102z" />
    <glyph glyph-name="atilde" unicode="&#xe3;" horiz-adv-x="563" 
d="M474 350l-51 -235q-5 -25 -5 -33q0 -34 40 -34q22 0 42 13l14 -56q-24 -14 -65 -14q-40 0 -65 19.5t-25 55.5q0 8 1 13q-68 -91 -181 -91q-76 0 -119.5 38.5t-43.5 107.5q0 138 192 161q9 1 39.5 4t43 5t37 6.5t36.5 11t26 15.5t20 23t6 31q0 42 -33.5 59.5t-80.5 17.5
q-99 0 -174 -59l-33 47q96 71 209 71q78 0 127 -34t49 -97q0 -22 -6 -46zM383 215l18 83q-15 -13 -31.5 -22.5t-40.5 -15.5t-34.5 -8.5t-43.5 -6t-38 -4.5q-66 -9 -99 -31t-33 -72q0 -91 107 -91q68 0 122.5 42t72.5 126zM465 698l27 -21q-38 -77 -95 -77q-20 0 -67.5 18.5
t-66.5 18.5q-34 0 -63 -37l-27 21q38 77 95 77q20 0 67.5 -18.5t66.5 -18.5q34 0 63 37z" />
    <glyph glyph-name="adieresis" unicode="&#xe4;" horiz-adv-x="563" 
d="M474 350l-51 -235q-5 -25 -5 -33q0 -34 40 -34q22 0 42 13l14 -56q-24 -14 -65 -14q-40 0 -65 19.5t-25 55.5q0 8 1 13q-68 -91 -181 -91q-76 0 -119.5 38.5t-43.5 107.5q0 138 192 161q9 1 39.5 4t43 5t37 6.5t36.5 11t26 15.5t20 23t6 31q0 42 -33.5 59.5t-80.5 17.5
q-99 0 -174 -59l-33 47q96 71 209 71q78 0 127 -34t49 -97q0 -22 -6 -46zM383 215l18 83q-15 -13 -31.5 -22.5t-40.5 -15.5t-34.5 -8.5t-43.5 -6t-38 -4.5q-66 -9 -99 -31t-33 -72q0 -91 107 -91q68 0 122.5 42t72.5 126zM256 600h-63l15 66h63zM455 600h-63l15 66h63z" />
    <glyph glyph-name="aring" unicode="&#xe5;" horiz-adv-x="563" 
d="M474 350l-51 -235q-5 -25 -5 -33q0 -34 40 -34q22 0 42 13l14 -56q-24 -14 -65 -14q-40 0 -65 19.5t-25 55.5q0 8 1 13q-68 -91 -181 -91q-76 0 -119.5 38.5t-43.5 107.5q0 138 192 161q9 1 39.5 4t43 5t37 6.5t36.5 11t26 15.5t20 23t6 31q0 42 -33.5 59.5t-80.5 17.5
q-99 0 -174 -59l-33 47q96 71 209 71q78 0 127 -34t49 -97q0 -22 -6 -46zM383 215l18 83q-15 -13 -31.5 -22.5t-40.5 -15.5t-34.5 -8.5t-43.5 -6t-38 -4.5q-66 -9 -99 -31t-33 -72q0 -91 107 -91q68 0 122.5 42t72.5 126zM452 681q0 -41 -29 -70.5t-70 -29.5t-70.5 29.5
t-29.5 70.5t29.5 71t70.5 30t70 -30t29 -71zM411 681q0 25 -17 42.5t-41 17.5q-25 0 -42 -17.5t-17 -42.5t17 -42t42 -17q24 0 41 17t17 42z" />
    <glyph glyph-name="ae" unicode="&#xe6;" horiz-adv-x="918" 
d="M383 215l18 83q-15 -13 -31.5 -22.5t-40.5 -15.5t-34.5 -8.5t-43.5 -6t-38 -4.5q-66 -9 -99 -31t-33 -72q0 -91 107 -91q68 0 122.5 42t72.5 126zM622 -12q-80 0 -136 37t-78 100q-37 -69 -97 -103t-129 -34q-76 0 -121 39t-45 108q0 36 13.5 64.5t32.5 44.5t48 27.5
t50 16t48 7.5q9 1 39.5 4t43 5t37 6.5t36.5 11t26 15.5t20 23t6 31q0 77 -116 77q-97 0 -172 -59l-33 47q96 71 208 71q137 0 168 -90q77 90 184 90q98 0 157 -64t59 -155q0 -38 -9 -65h-408q-1 -9 -1 -25q0 -75 47.5 -122t124.5 -47q94 0 153 70l43 -43q-83 -88 -199 -88z
M463 297h342q1 6 1 14q0 72 -42.5 114t-109.5 42q-72 0 -124 -47.5t-67 -122.5z" />
    <glyph glyph-name="ccedilla" unicode="&#xe7;" horiz-adv-x="532" 
d="M74 -106l29 26q28 -35 69 -35q22 0 35.5 14.5t13.5 35.5q0 29 -20 61q-73 19 -114.5 81t-41.5 149q0 124 79 212.5t195 88.5q64 0 112.5 -29t75.5 -79l-55 -36q-45 84 -135 84q-92 0 -149 -69.5t-57 -167.5q0 -80 40.5 -131.5t114.5 -51.5q85 0 149 82l44 -41
q-80 -100 -197 -100q-12 0 -18 1q29 -36 29 -72q0 -37 -26.5 -58.5t-64.5 -21.5q-66 0 -108 57z" />
    <glyph glyph-name="egrave" unicode="&#xe8;" horiz-adv-x="575" 
d="M528 308q0 -38 -9 -65h-408q-1 -9 -1 -25q0 -75 47.5 -122t124.5 -47q94 0 153 70l43 -43q-83 -88 -199 -88q-108 0 -172 67t-64 174q0 121 76.5 209.5t192.5 88.5q98 0 157 -64t59 -155zM120 297h342q1 6 1 14q0 72 -42.5 114t-109.5 42q-72 0 -124 -47.5t-67 -122.5z
M368 609l-27 -29q-42 26 -80 64t-52 70l69 11q35 -61 90 -116z" />
    <glyph glyph-name="eacute" unicode="&#xe9;" horiz-adv-x="575" 
d="M528 308q0 -38 -9 -65h-408q-1 -9 -1 -25q0 -75 47.5 -122t124.5 -47q94 0 153 70l43 -43q-83 -88 -199 -88q-108 0 -172 67t-64 174q0 121 76.5 209.5t192.5 88.5q98 0 157 -64t59 -155zM120 297h342q1 6 1 14q0 72 -42.5 114t-109.5 42q-72 0 -124 -47.5t-67 -122.5z
M310 579l-21 30q61 56 107 116l63 -28q-18 -31 -60 -64t-89 -54z" />
    <glyph glyph-name="ecircumflex" unicode="&#xea;" horiz-adv-x="575" 
d="M528 308q0 -38 -9 -65h-408q-1 -9 -1 -25q0 -75 47.5 -122t124.5 -47q94 0 153 70l43 -43q-83 -88 -199 -88q-108 0 -172 67t-64 174q0 121 76.5 209.5t192.5 88.5q98 0 157 -64t59 -155zM120 297h342q1 6 1 14q0 72 -42.5 114t-109.5 42q-72 0 -124 -47.5t-67 -122.5z
M315 725h54q45 -64 104 -105l-25 -34q-69 29 -114 82q-20 -20 -62 -44t-84 -38l-19 37q73 43 146 102z" />
    <glyph glyph-name="edieresis" unicode="&#xeb;" horiz-adv-x="575" 
d="M528 308q0 -38 -9 -65h-408q-1 -9 -1 -25q0 -75 47.5 -122t124.5 -47q94 0 153 70l43 -43q-83 -88 -199 -88q-108 0 -172 67t-64 174q0 121 76.5 209.5t192.5 88.5q98 0 157 -64t59 -155zM120 297h342q1 6 1 14q0 72 -42.5 114t-109.5 42q-72 0 -124 -47.5t-67 -122.5z
M263 600h-63l15 66h63zM462 600h-63l15 66h63z" />
    <glyph glyph-name="igrave" unicode="&#xec;" horiz-adv-x="232" 
d="M86 0h-62l109 515h62zM225 609l-27 -29q-42 26 -80 64t-52 70l69 11q35 -61 90 -116z" />
    <glyph glyph-name="iacute" unicode="&#xed;" horiz-adv-x="232" 
d="M86 0h-62l109 515h62zM170 579l-21 30q61 56 107 116l63 -28q-18 -31 -60 -64t-89 -54z" />
    <glyph glyph-name="icircumflex" unicode="&#xee;" horiz-adv-x="232" 
d="M86 0h-62l109 515h62zM173 725h54q45 -64 104 -105l-25 -34q-69 29 -114 82q-20 -20 -62 -44t-84 -38l-19 37q73 43 146 102z" />
    <glyph glyph-name="idieresis" unicode="&#xef;" horiz-adv-x="232" 
d="M133 600h-61l14 65h61zM293 600h-62l14 65h61zM86 0h-62l109 515h62z" />
    <glyph glyph-name="eth" unicode="&#xf0;" horiz-adv-x="600" 
d="M294 492q54 0 101.5 -22t71.5 -57q-30 96 -98 171l-121 -61l-17 36l109 55q-39 36 -85 59l34 52q61 -36 107 -82l118 60l17 -36l-106 -54q116 -137 116 -314q0 -148 -77.5 -229.5t-192.5 -81.5q-105 0 -167 67.5t-62 168.5q0 112 73.5 190t178.5 78zM472 258
q0 75 -42.5 124.5t-125.5 49.5q-93 0 -144.5 -62t-51.5 -149q0 -75 41 -123.5t122 -48.5q92 0 146.5 61t54.5 148z" />
    <glyph glyph-name="ntilde" unicode="&#xf1;" horiz-adv-x="586" 
d="M195 515l-18 -84q80 96 189 96q74 0 114.5 -42.5t40.5 -110.5q0 -23 -7 -56l-69 -318h-62l67 313q7 31 7 52q0 49 -27.5 75.5t-79.5 26.5q-72 0 -130 -52.5t-75 -132.5l-59 -282h-62l109 515h62zM516 698l27 -21q-38 -77 -95 -77q-20 0 -67.5 18.5t-66.5 18.5
q-34 0 -63 -37l-27 21q38 77 95 77q20 0 67.5 -18.5t66.5 -18.5q34 0 63 37z" />
    <glyph glyph-name="ograve" unicode="&#xf2;" horiz-adv-x="592" 
d="M371 609l-27 -29q-42 26 -80 64t-52 70l69 11q35 -61 90 -116zM534 286q0 -124 -75.5 -211t-191.5 -87q-103 0 -162.5 67t-59.5 174q0 124 75.5 211t192.5 87q103 0 162 -67t59 -174zM468 287q0 79 -40 129.5t-114 50.5q-89 0 -146 -70t-57 -168q0 -79 40.5 -130.5
t114.5 -51.5q88 0 145 71t57 169z" />
    <glyph glyph-name="oacute" unicode="&#xf3;" horiz-adv-x="592" 
d="M318 579l-21 30q61 56 107 116l63 -28q-18 -31 -60 -64t-89 -54zM534 286q0 -124 -75.5 -211t-191.5 -87q-103 0 -162.5 67t-59.5 174q0 124 75.5 211t192.5 87q103 0 162 -67t59 -174zM468 287q0 79 -40 129.5t-114 50.5q-89 0 -146 -70t-57 -168q0 -79 40.5 -130.5
t114.5 -51.5q88 0 145 71t57 169z" />
    <glyph glyph-name="ocircumflex" unicode="&#xf4;" horiz-adv-x="592" 
d="M321 725h54q45 -64 104 -105l-25 -34q-69 29 -114 82q-20 -20 -62 -44t-84 -38l-19 37q73 43 146 102zM534 286q0 -124 -75.5 -211t-191.5 -87q-103 0 -162.5 67t-59.5 174q0 124 75.5 211t192.5 87q103 0 162 -67t59 -174zM468 287q0 79 -40 129.5t-114 50.5
q-89 0 -146 -70t-57 -168q0 -79 40.5 -130.5t114.5 -51.5q88 0 145 71t57 169z" />
    <glyph glyph-name="otilde" unicode="&#xf5;" horiz-adv-x="592" 
d="M465 698l27 -21q-38 -77 -95 -77q-20 0 -67.5 18.5t-66.5 18.5q-34 0 -63 -37l-27 21q38 77 95 77q20 0 67.5 -18.5t66.5 -18.5q34 0 63 37zM534 286q0 -124 -75.5 -211t-191.5 -87q-103 0 -162.5 67t-59.5 174q0 124 75.5 211t192.5 87q103 0 162 -67t59 -174zM468 287
q0 79 -40 129.5t-114 50.5q-89 0 -146 -70t-57 -168q0 -79 40.5 -130.5t114.5 -51.5q88 0 145 71t57 169z" />
    <glyph glyph-name="odieresis" unicode="&#xf6;" horiz-adv-x="592" 
d="M255 600h-63l15 66h63zM454 600h-63l15 66h63zM534 286q0 -124 -75.5 -211t-191.5 -87q-103 0 -162.5 67t-59.5 174q0 124 75.5 211t192.5 87q103 0 162 -67t59 -174zM468 287q0 79 -40 129.5t-114 50.5q-89 0 -146 -70t-57 -168q0 -79 40.5 -130.5t114.5 -51.5
q88 0 145 71t57 169z" />
    <glyph glyph-name="divide" unicode="&#xf7;" 
d="M508 276h-451l12 56h451zM274 485q0 22 15.5 37.5t37.5 15.5t37.5 -15.5t15.5 -37.5t-15.5 -37.5t-37.5 -15.5t-37.5 15.5t-15.5 37.5zM197 123q0 22 15.5 37.5t37.5 15.5t37.5 -15.5t15.5 -37.5t-15.5 -37.5t-37.5 -15.5t-37.5 15.5t-15.5 37.5z" />
    <glyph glyph-name="oslash" unicode="&#xf8;" horiz-adv-x="592" 
d="M111 -9l-36 28l28 37q-58 66 -58 173q0 124 75.5 211t192.5 87q73 0 128 -37l27 34l36 -28l-29 -37q59 -67 59 -173q0 -124 -75.5 -211t-191.5 -87q-77 0 -129 37zM468 287q0 72 -33 120l-259 -333q37 -27 90 -27q88 0 145 71t57 169zM111 229q0 -73 33 -121l259 332
q-38 27 -89 27q-89 0 -146 -70t-57 -168z" />
    <glyph glyph-name="ugrave" unicode="&#xf9;" horiz-adv-x="586" 
d="M378 0l18 84q-80 -96 -189 -96q-74 0 -114.5 42.5t-40.5 110.5q0 23 7 56l69 318h62l-67 -313q-7 -32 -7 -52q0 -49 27.5 -75.5t79.5 -26.5q72 0 130 52.5t75 132.5l59 282h62l-109 -515h-62zM385 609l-27 -29q-42 26 -80 64t-52 70l69 11q35 -61 90 -116z" />
    <glyph glyph-name="uacute" unicode="&#xfa;" horiz-adv-x="586" 
d="M378 0l18 84q-80 -96 -189 -96q-74 0 -114.5 42.5t-40.5 110.5q0 23 7 56l69 318h62l-67 -313q-7 -32 -7 -52q0 -49 27.5 -75.5t79.5 -26.5q72 0 130 52.5t75 132.5l59 282h62l-109 -515h-62zM334 579l-21 30q61 56 107 116l63 -28q-18 -31 -60 -64t-89 -54z" />
    <glyph glyph-name="ucircumflex" unicode="&#xfb;" horiz-adv-x="586" 
d="M378 0l18 84q-80 -96 -189 -96q-74 0 -114.5 42.5t-40.5 110.5q0 23 7 56l69 318h62l-67 -313q-7 -32 -7 -52q0 -49 27.5 -75.5t79.5 -26.5q72 0 130 52.5t75 132.5l59 282h62l-109 -515h-62zM347 725h54q45 -64 104 -105l-25 -34q-69 29 -114 82q-20 -20 -62 -44
t-84 -38l-19 37q73 43 146 102z" />
    <glyph glyph-name="udieresis" unicode="&#xfc;" horiz-adv-x="586" 
d="M378 0l18 84q-80 -96 -189 -96q-74 0 -114.5 42.5t-40.5 110.5q0 23 7 56l69 318h62l-67 -313q-7 -32 -7 -52q0 -49 27.5 -75.5t79.5 -26.5q72 0 130 52.5t75 132.5l59 282h62l-109 -515h-62zM289 600h-63l15 66h63zM488 600h-63l15 66h63z" />
    <glyph glyph-name="yacute" unicode="&#xfd;" horiz-adv-x="506" 
d="M533 515l-318 -541q-47 -84 -87 -121t-101 -37t-95 28l38 49q25 -20 55 -20q36 0 62.5 24.5t53.5 68.5l24 40l-105 509h66l87 -431l249 431h71zM296 579l-21 30q61 56 107 116l63 -28q-18 -31 -60 -64t-89 -54z" />
    <glyph glyph-name="thorn" unicode="&#xfe;" horiz-adv-x="624" 
d="M111 114l-61 -288h-62l188 888h62l-59 -277q74 90 179 90q94 0 151.5 -67t57.5 -172q0 -123 -76.5 -211.5t-188.5 -88.5q-61 0 -112 30.5t-79 95.5zM137 222q0 -77 41 -125.5t118 -48.5q94 0 149 70t55 169q0 79 -38 129.5t-114 50.5q-94 0 -152.5 -75t-58.5 -170z" />
    <glyph glyph-name="ydieresis" unicode="&#xff;" horiz-adv-x="506" 
d="M533 515l-318 -541q-47 -84 -87 -121t-101 -37t-95 28l38 49q25 -20 55 -20q36 0 62.5 24.5t53.5 68.5l24 40l-105 509h66l87 -431l249 431h71zM237 600h-63l15 66h63zM436 600h-63l15 66h63z" />
    <glyph glyph-name="Amacron" unicode="&#x100;" horiz-adv-x="643" 
d="M574 0h-71l-37 202h-310l-124 -202h-77l412 666h78zM454 266l-58 331l-201 -331h259zM562 742h-283l11 50h283z" />
    <glyph glyph-name="amacron" unicode="&#x101;" horiz-adv-x="563" 
d="M474 350l-51 -235q-5 -25 -5 -33q0 -34 40 -34q22 0 42 13l14 -56q-24 -14 -65 -14q-40 0 -65 19.5t-25 55.5q0 8 1 13q-68 -91 -181 -91q-76 0 -119.5 38.5t-43.5 107.5q0 138 192 161q9 1 39.5 4t43 5t37 6.5t36.5 11t26 15.5t20 23t6 31q0 42 -33.5 59.5t-80.5 17.5
q-99 0 -174 -59l-33 47q96 71 209 71q78 0 127 -34t49 -97q0 -22 -6 -46zM383 215l18 83q-15 -13 -31.5 -22.5t-40.5 -15.5t-34.5 -8.5t-43.5 -6t-38 -4.5q-66 -9 -99 -31t-33 -72q0 -91 107 -91q68 0 122.5 42t72.5 126zM458 616h-283l11 50h283z" />
    <glyph glyph-name="Abreve" unicode="&#x102;" horiz-adv-x="643" 
d="M574 0h-71l-37 202h-310l-124 -202h-77l412 666h78zM454 266l-58 331l-201 -331h259zM424 721q-56 0 -93 27.5t-37 77.5q0 2 0.5 6t0.5 6l44 9q2 -30 24.5 -50.5t61.5 -20.5q45 0 77 20t46 52l42 -17q-15 -48 -59.5 -79t-106.5 -31z" />
    <glyph glyph-name="abreve" unicode="&#x103;" horiz-adv-x="563" 
d="M474 350l-51 -235q-5 -25 -5 -33q0 -34 40 -34q22 0 42 13l14 -56q-24 -14 -65 -14q-40 0 -65 19.5t-25 55.5q0 8 1 13q-68 -91 -181 -91q-76 0 -119.5 38.5t-43.5 107.5q0 138 192 161q9 1 39.5 4t43 5t37 6.5t36.5 11t26 15.5t20 23t6 31q0 42 -33.5 59.5t-80.5 17.5
q-99 0 -174 -59l-33 47q96 71 209 71q78 0 127 -34t49 -97q0 -22 -6 -46zM383 215l18 83q-15 -13 -31.5 -22.5t-40.5 -15.5t-34.5 -8.5t-43.5 -6t-38 -4.5q-66 -9 -99 -31t-33 -72q0 -91 107 -91q68 0 122.5 42t72.5 126zM330 595q-56 0 -93 27.5t-37 77.5q0 2 0.5 6t0.5 6
l44 9q2 -30 24.5 -50.5t61.5 -20.5q45 0 77 20t46 52l42 -17q-15 -48 -59.5 -79t-106.5 -31z" />
    <glyph glyph-name="Aogonek" unicode="&#x104;" horiz-adv-x="643" 
d="M569 -107l22 -25q-37 -39 -92 -39q-35 0 -59.5 17.5t-24.5 48.5q0 56 88 105l-37 202h-310l-124 -202h-77l412 666h78l129 -666q-37 -5 -70.5 -33.5t-33.5 -58.5q0 -17 12.5 -27t32.5 -10q27 0 54 22zM454 266l-58 331l-201 -331h259z" />
    <glyph glyph-name="aogonek" unicode="&#x105;" horiz-adv-x="561" 
d="M473 -107l22 -25q-37 -39 -92 -39q-35 0 -59.5 17t-24.5 50q0 57 78 106q-38 19 -38 64q0 8 1 13q-68 -91 -181 -91q-76 0 -119.5 38.5t-43.5 107.5q0 138 192 161q9 1 39.5 4t43 5t37 6.5t36.5 11t26 15.5t20 23t6 31q0 42 -33.5 59.5t-80.5 17.5q-99 0 -174 -59l-33 47
q96 71 209 71q78 0 127 -34t49 -97q0 -22 -6 -46l-51 -235q-5 -25 -5 -33q0 -34 40 -34q22 0 42 13l14 -56q-24 -14 -65 -14q-10 0 -14 1q-61 -46 -61 -84q0 -17 12.5 -27t32.5 -10q27 0 54 22zM383 215l18 83q-15 -13 -31.5 -22.5t-40.5 -15.5t-34.5 -8.5t-43.5 -6
t-38 -4.5q-66 -9 -99 -31t-33 -72q0 -91 107 -91q68 0 122.5 42t72.5 126z" />
    <glyph glyph-name="Cacute" unicode="&#x106;" horiz-adv-x="661" 
d="M663 545l-59 -39q-54 107 -187 107q-124 0 -202 -90t-78 -224q0 -112 56.5 -179t154.5 -67q121 0 194 98l52 -40q-97 -123 -247 -123q-128 0 -205 87t-77 223q0 159 101.5 269.5t253.5 110.5q162 0 243 -133zM417 705l-21 30q61 56 107 116l63 -28q-18 -31 -60 -64
t-89 -54z" />
    <glyph glyph-name="cacute" unicode="&#x107;" horiz-adv-x="529" 
d="M414 129l44 -41q-80 -100 -197 -100q-100 0 -158.5 67t-58.5 171q0 124 79 212.5t195 88.5q64 0 112.5 -29t75.5 -79l-55 -36q-45 84 -135 84q-92 0 -149 -69.5t-57 -167.5q0 -80 40.5 -131.5t114.5 -51.5q85 0 149 82zM315 579l-21 30q61 56 107 116l63 -28
q-18 -31 -60 -64t-89 -54z" />
    <glyph glyph-name="Ccircumflex" unicode="&#x108;" horiz-adv-x="661" 
d="M663 545l-59 -39q-54 107 -187 107q-124 0 -202 -90t-78 -224q0 -112 56.5 -179t154.5 -67q121 0 194 98l52 -40q-97 -123 -247 -123q-128 0 -205 87t-77 223q0 159 101.5 269.5t253.5 110.5q162 0 243 -133zM457 851h54q45 -64 104 -105l-25 -34q-69 29 -114 82
q-20 -20 -62 -44t-84 -38l-19 37q73 43 146 102z" />
    <glyph glyph-name="ccircumflex" unicode="&#x109;" horiz-adv-x="529" 
d="M414 129l44 -41q-80 -100 -197 -100q-100 0 -158.5 67t-58.5 171q0 124 79 212.5t195 88.5q64 0 112.5 -29t75.5 -79l-55 -36q-45 84 -135 84q-92 0 -149 -69.5t-57 -167.5q0 -80 40.5 -131.5t114.5 -51.5q85 0 149 82zM350 725h54q45 -64 104 -105l-25 -34
q-69 29 -114 82q-20 -20 -62 -44t-84 -38l-19 37q73 43 146 102z" />
    <glyph glyph-name="Cdotaccent" unicode="&#x10a;" horiz-adv-x="661" 
d="M663 545l-59 -39q-54 107 -187 107q-124 0 -202 -90t-78 -224q0 -112 56.5 -179t154.5 -67q121 0 194 98l52 -40q-97 -123 -247 -123q-128 0 -205 87t-77 223q0 159 101.5 269.5t253.5 110.5q162 0 243 -133zM493 726h-63l15 66h63z" />
    <glyph glyph-name="cdotaccent" unicode="&#x10b;" horiz-adv-x="529" 
d="M414 129l44 -41q-80 -100 -197 -100q-100 0 -158.5 67t-58.5 171q0 124 79 212.5t195 88.5q64 0 112.5 -29t75.5 -79l-55 -36q-45 84 -135 84q-92 0 -149 -69.5t-57 -167.5q0 -80 40.5 -131.5t114.5 -51.5q85 0 149 82zM388 600h-63l15 66h63z" />
    <glyph glyph-name="Ccaron" unicode="&#x10c;" horiz-adv-x="661" 
d="M663 545l-59 -39q-54 107 -187 107q-124 0 -202 -90t-78 -224q0 -112 56.5 -179t154.5 -67q121 0 194 98l52 -40q-97 -123 -247 -123q-128 0 -205 87t-77 223q0 159 101.5 269.5t253.5 110.5q162 0 243 -133zM448 712h-54q-45 64 -104 105l25 34q69 -29 114 -82
q20 20 62 44t84 38l19 -37q-73 -43 -146 -102z" />
    <glyph glyph-name="ccaron" unicode="&#x10d;" horiz-adv-x="529" 
d="M414 129l44 -41q-80 -100 -197 -100q-100 0 -158.5 67t-58.5 171q0 124 79 212.5t195 88.5q64 0 112.5 -29t75.5 -79l-55 -36q-45 84 -135 84q-92 0 -149 -69.5t-57 -167.5q0 -80 40.5 -131.5t114.5 -51.5q85 0 149 82zM349 586h-54q-45 64 -104 105l25 34
q69 -29 114 -82q20 20 62 44t84 38l19 -37q-73 -43 -146 -102z" />
    <glyph glyph-name="Dcaron" unicode="&#x10e;" horiz-adv-x="720" 
d="M119 64h205q129 0 203.5 87t74.5 219q0 110 -55 171t-165 61h-148zM317 0h-280l142 666h205q139 0 214.5 -82t75.5 -210q0 -103 -41 -187t-123.5 -135.5t-192.5 -51.5zM432 712h-54q-45 64 -104 105l25 34q69 -29 114 -82q20 20 62 44t84 38l19 -37q-73 -43 -146 -102z
" />
    <glyph glyph-name="dcaron" unicode="&#x10f;" horiz-adv-x="647" 
d="M501 401l66 313h62l-151 -714h-62l17 78q-74 -90 -179 -90q-94 0 -151.5 67t-57.5 172q0 123 76.5 211.5t188.5 88.5q61 0 112 -30.5t79 -95.5zM475 293q0 77 -41 125.5t-118 48.5q-94 0 -149 -70t-55 -169q0 -79 38 -129.5t114 -50.5q94 0 152.5 75t58.5 170zM792 714
l-15 -70q-18 -85 -95 -138l-19 24q57 50 57 104q0 10 -3 26t-3 25q0 16 6 29h72z" />
    <glyph glyph-name="Dcroat" unicode="&#x110;" horiz-adv-x="743" 
d="M340 0h-280l67 316h-111l12 57h111l63 293h205q139 0 214.5 -82t75.5 -210q0 -103 -41 -187t-123.5 -135.5t-192.5 -51.5zM142 64h205q129 0 203.5 87t74.5 219q0 110 -55 171t-165 61h-148l-49 -229h191l-12 -57h-191z" />
    <glyph glyph-name="dcroat" unicode="&#x111;" horiz-adv-x="624" 
d="M501 401l45 215h-141l10 50h142l10 48h62l-10 -48h79l-10 -50h-80l-130 -616h-62l17 78q-74 -90 -179 -90q-94 0 -151.5 67t-57.5 172q0 123 76.5 211.5t188.5 88.5q61 0 112 -30.5t79 -95.5zM475 293q0 77 -41 125.5t-118 48.5q-94 0 -149 -70t-55 -169q0 -79 38 -129.5
t114 -50.5q94 0 152.5 75t58.5 170z" />
    <glyph glyph-name="Emacron" unicode="&#x112;" horiz-adv-x="614" 
d="M496 0h-459l142 666h459l-14 -64h-390l-47 -217h332l-13 -63h-332l-55 -258h391zM568 742h-283l11 50h283z" />
    <glyph glyph-name="emacron" unicode="&#x113;" horiz-adv-x="575" 
d="M528 308q0 -38 -9 -65h-408q-1 -9 -1 -25q0 -75 47.5 -122t124.5 -47q94 0 153 70l43 -43q-83 -88 -199 -88q-108 0 -172 67t-64 174q0 121 76.5 209.5t192.5 88.5q98 0 157 -64t59 -155zM120 297h342q1 6 1 14q0 72 -42.5 114t-109.5 42q-72 0 -124 -47.5t-67 -122.5z
M468 616h-283l11 50h283z" />
    <glyph glyph-name="Ebreve" unicode="&#x114;" horiz-adv-x="614" 
d="M496 0h-459l142 666h459l-14 -64h-390l-47 -217h332l-13 -63h-332l-55 -258h391zM419 721q-56 0 -93 27.5t-37 77.5q0 2 0.5 6t0.5 6l44 9q2 -30 24.5 -50.5t61.5 -20.5q45 0 77 20t46 52l42 -17q-15 -48 -59.5 -79t-106.5 -31z" />
    <glyph glyph-name="ebreve" unicode="&#x115;" horiz-adv-x="575" 
d="M528 308q0 -38 -9 -65h-408q-1 -9 -1 -25q0 -75 47.5 -122t124.5 -47q94 0 153 70l43 -43q-83 -88 -199 -88q-108 0 -172 67t-64 174q0 121 76.5 209.5t192.5 88.5q98 0 157 -64t59 -155zM120 297h342q1 6 1 14q0 72 -42.5 114t-109.5 42q-72 0 -124 -47.5t-67 -122.5z
M322 595q-56 0 -93 27.5t-37 77.5q0 2 0.5 6t0.5 6l44 9q2 -30 24.5 -50.5t61.5 -20.5q45 0 77 20t46 52l42 -17q-15 -48 -59.5 -79t-106.5 -31z" />
    <glyph glyph-name="Edotaccent" unicode="&#x116;" horiz-adv-x="614" 
d="M496 0h-459l142 666h459l-14 -64h-390l-47 -217h332l-13 -63h-332l-55 -258h391zM442 726h-63l15 66h63z" />
    <glyph glyph-name="edotaccent" unicode="&#x117;" horiz-adv-x="575" 
d="M528 308q0 -38 -9 -65h-408q-1 -9 -1 -25q0 -75 47.5 -122t124.5 -47q94 0 153 70l43 -43q-83 -88 -199 -88q-108 0 -172 67t-64 174q0 121 76.5 209.5t192.5 88.5q98 0 157 -64t59 -155zM120 297h342q1 6 1 14q0 72 -42.5 114t-109.5 42q-72 0 -124 -47.5t-67 -122.5z
M356 600h-63l15 66h63z" />
    <glyph glyph-name="Eogonek" unicode="&#x118;" horiz-adv-x="614" 
d="M472 -107l22 -25q-37 -39 -92 -39q-35 0 -59.5 17t-24.5 50q0 53 74 104h-355l142 666h459l-14 -64h-390l-47 -217h332l-13 -63h-332l-55 -258h391l-14 -64h-51q-72 -49 -72 -92q0 -17 12.5 -27t32.5 -10q27 0 54 22z" />
    <glyph glyph-name="eogonek" unicode="&#x119;" horiz-adv-x="576" 
d="M405 -107l22 -25q-37 -39 -92 -39q-35 0 -59.5 17t-24.5 50q0 49 59 94q-18 -2 -32 -2q-105 0 -169 67t-64 174q0 121 76.5 209.5t192.5 88.5q98 0 157 -64t59 -155q0 -38 -9 -65h-408q-1 -9 -1 -25q0 -75 47.5 -122t124.5 -47q94 0 153 70l43 -43q-30 -31 -69 -56
q-29 -18 -47 -30.5t-38 -36t-20 -44.5q0 -18 12.5 -28t32.5 -10q27 0 54 22zM122 297h342q1 6 1 14q0 72 -42.5 114t-109.5 42q-72 0 -124 -47.5t-67 -122.5z" />
    <glyph glyph-name="Ecaron" unicode="&#x11a;" horiz-adv-x="614" 
d="M496 0h-459l142 666h459l-14 -64h-390l-47 -217h332l-13 -63h-332l-55 -258h391zM447 712h-54q-45 64 -104 105l25 34q69 -29 114 -82q20 20 62 44t84 38l19 -37q-73 -43 -146 -102z" />
    <glyph glyph-name="ecaron" unicode="&#x11b;" horiz-adv-x="575" 
d="M528 308q0 -38 -9 -65h-408q-1 -9 -1 -25q0 -75 47.5 -122t124.5 -47q94 0 153 70l43 -43q-83 -88 -199 -88q-108 0 -172 67t-64 174q0 121 76.5 209.5t192.5 88.5q98 0 157 -64t59 -155zM120 297h342q1 6 1 14q0 72 -42.5 114t-109.5 42q-72 0 -124 -47.5t-67 -122.5z
M349 586h-54q-45 64 -104 105l25 34q69 -29 114 -82q20 20 62 44t84 38l19 -37q-73 -43 -146 -102z" />
    <glyph glyph-name="Gcircumflex" unicode="&#x11c;" horiz-adv-x="725" 
d="M417 613q-125 0 -202.5 -87.5t-77.5 -221.5q0 -113 58 -182t164 -69q103 0 168 63.5t77 152.5h-208l13 64h260q5 -13 5 -41q0 -50 -21.5 -103t-60 -98t-100.5 -74t-136 -29q-136 0 -213.5 90.5t-77.5 226.5q0 158 101 265.5t250 107.5q166 0 248 -135l-60 -37
q-56 107 -187 107zM409 854h54q45 -64 104 -105l-25 -34q-69 29 -114 82q-20 -20 -62 -44t-84 -38l-19 37q73 43 146 102z" />
    <glyph glyph-name="gcircumflex" unicode="&#x11d;" horiz-adv-x="625" 
d="M588 515l-96 -453q-25 -117 -85 -175q-74 -71 -193 -71q-123 0 -209 79l47 50q28 -29 74 -49t99 -20q79 0 134 49t73 141l8 40q-67 -83 -177 -83q-96 0 -155 61.5t-59 158.5q0 120 78.5 202t189.5 82q60 0 110 -29.5t77 -87.5l23 105h61zM479 307q0 68 -41.5 113
t-119.5 45q-96 0 -149.5 -63.5t-53.5 -151.5q0 -73 39.5 -120.5t115.5 -47.5q94 0 151.5 67t57.5 158zM361 725h54q45 -64 104 -105l-25 -34q-69 29 -114 82q-20 -20 -62 -44t-84 -38l-19 37q73 43 146 102z" />
    <glyph glyph-name="Gbreve" unicode="&#x11e;" horiz-adv-x="725" 
d="M417 613q-125 0 -202.5 -87.5t-77.5 -221.5q0 -113 58 -182t164 -69q103 0 168 63.5t77 152.5h-208l13 64h260q5 -13 5 -41q0 -50 -21.5 -103t-60 -98t-100.5 -74t-136 -29q-136 0 -213.5 90.5t-77.5 226.5q0 158 101 265.5t250 107.5q166 0 248 -135l-60 -37
q-56 107 -187 107zM425 724q-56 0 -93 27.5t-37 77.5q0 2 0.5 6t0.5 6l44 9q2 -30 24.5 -50.5t61.5 -20.5q45 0 77 20t46 52l42 -17q-15 -48 -59.5 -79t-106.5 -31z" />
    <glyph glyph-name="gbreve" unicode="&#x11f;" horiz-adv-x="625" 
d="M588 515l-96 -453q-25 -117 -85 -175q-74 -71 -193 -71q-123 0 -209 79l47 50q28 -29 74 -49t99 -20q79 0 134 49t73 141l8 40q-67 -83 -177 -83q-96 0 -155 61.5t-59 158.5q0 120 78.5 202t189.5 82q60 0 110 -29.5t77 -87.5l23 105h61zM479 307q0 68 -41.5 113
t-119.5 45q-96 0 -149.5 -63.5t-53.5 -151.5q0 -73 39.5 -120.5t115.5 -47.5q94 0 151.5 67t57.5 158zM348 595q-56 0 -93 27.5t-37 77.5q0 2 0.5 6t0.5 6l44 9q2 -30 24.5 -50.5t61.5 -20.5q45 0 77 20t46 52l42 -17q-15 -48 -59.5 -79t-106.5 -31z" />
    <glyph glyph-name="Gdotaccent" unicode="&#x120;" horiz-adv-x="725" 
d="M417 613q-125 0 -202.5 -87.5t-77.5 -221.5q0 -113 58 -182t164 -69q103 0 168 63.5t77 152.5h-208l13 64h260q5 -13 5 -41q0 -50 -21.5 -103t-60 -98t-100.5 -74t-136 -29q-136 0 -213.5 90.5t-77.5 226.5q0 158 101 265.5t250 107.5q166 0 248 -135l-60 -37
q-56 107 -187 107zM504 729h-63l15 66h63z" />
    <glyph glyph-name="gdotaccent" unicode="&#x121;" horiz-adv-x="625" 
d="M588 515l-96 -453q-25 -117 -85 -175q-74 -71 -193 -71q-123 0 -209 79l47 50q28 -29 74 -49t99 -20q79 0 134 49t73 141l8 40q-67 -83 -177 -83q-96 0 -155 61.5t-59 158.5q0 120 78.5 202t189.5 82q60 0 110 -29.5t77 -87.5l23 105h61zM479 307q0 68 -41.5 113
t-119.5 45q-96 0 -149.5 -63.5t-53.5 -151.5q0 -73 39.5 -120.5t115.5 -47.5q94 0 151.5 67t57.5 158zM401 600h-63l15 66h63z" />
    <glyph glyph-name="Gcommaaccent" unicode="&#x122;" horiz-adv-x="725" 
d="M417 613q-125 0 -202.5 -87.5t-77.5 -221.5q0 -113 58 -182t164 -69q103 0 168 63.5t77 152.5h-208l13 64h260q5 -13 5 -41q0 -50 -21.5 -103t-60 -98t-100.5 -74t-136 -29q-136 0 -213.5 90.5t-77.5 226.5q0 158 101 265.5t250 107.5q166 0 248 -135l-60 -37
q-56 107 -187 107zM223 -196l-21 30q63 57 106 114l65 -17q-21 -34 -64.5 -71.5t-85.5 -55.5z" />
    <glyph glyph-name="gcommaaccent" unicode="&#x123;" horiz-adv-x="625" 
d="M468 725l21 -30q-63 -57 -106 -114l-65 17q21 34 64.5 71.5t85.5 55.5zM588 515l-96 -453q-25 -117 -85 -175q-74 -71 -193 -71q-123 0 -209 79l47 50q28 -29 74 -49t99 -20q79 0 134 49t73 141l8 40q-67 -83 -177 -83q-96 0 -155 61.5t-59 158.5q0 120 78.5 202
t189.5 82q60 0 110 -29.5t77 -87.5l23 105h61zM479 307q0 68 -41.5 113t-119.5 45q-96 0 -149.5 -63.5t-53.5 -151.5q0 -73 39.5 -120.5t115.5 -47.5q94 0 151.5 67t57.5 158z" />
    <glyph glyph-name="Hcircumflex" unicode="&#x124;" horiz-adv-x="718" 
d="M559 0h-68l69 322h-387l-68 -322h-68l142 666h67l-60 -281h387l60 281h67zM443 854h54q45 -64 104 -105l-25 -34q-69 29 -114 82q-20 -20 -62 -44t-84 -38l-19 37q73 43 146 102z" />
    <glyph glyph-name="hcircumflex" unicode="&#x125;" horiz-adv-x="586" 
d="M237 714l-60 -283q80 96 189 96q74 0 114.5 -42.5t40.5 -110.5q0 -23 -7 -56l-69 -318h-62l67 313q7 31 7 52q0 49 -27.5 75.5t-79.5 26.5q-72 0 -130 -52.5t-75 -132.5l-59 -282h-62l151 714h62zM212 893h54q45 -64 104 -105l-25 -34q-69 29 -114 82q-20 -20 -62 -44
t-84 -38l-19 37q73 43 146 102z" />
    <glyph glyph-name="Hbar" unicode="&#x126;" horiz-adv-x="719" 
d="M560 0h-68l69 322h-387l-68 -322h-68l113 531h-49l9 44h49l20 91h67l-19 -91h386l20 91h67l-19 -91h49l-10 -44h-48zM187 385h387l31 146h-387z" />
    <glyph glyph-name="hbar" unicode="&#x127;" horiz-adv-x="587" 
d="M238 714l-11 -48h144l-11 -50h-143l-39 -185q80 96 189 96q74 0 114.5 -42.5t40.5 -110.5q0 -23 -7 -56l-69 -318h-62l67 313q7 31 7 52q0 49 -27.5 75.5t-79.5 26.5q-72 0 -130 -52.5t-75 -132.5l-59 -282h-62l130 616h-77l10 50h78l10 48h62z" />
    <glyph glyph-name="Itilde" unicode="&#x128;" horiz-adv-x="264" 
d="M105 0h-68l142 666h67zM363 824l27 -21q-38 -77 -95 -77q-20 0 -67.5 18.5t-66.5 18.5q-34 0 -63 -37l-27 21q38 77 95 77q20 0 67.5 -18.5t66.5 -18.5q34 0 63 37z" />
    <glyph glyph-name="itilde" unicode="&#x129;" horiz-adv-x="232" 
d="M86 0h-62l109 515h62zM324 698l27 -21q-38 -77 -95 -77q-20 0 -67.5 18.5t-66.5 18.5q-34 0 -63 -37l-27 21q38 77 95 77q20 0 67.5 -18.5t66.5 -18.5q34 0 63 37z" />
    <glyph glyph-name="Imacron" unicode="&#x12a;" horiz-adv-x="264" 
d="M105 0h-68l142 666h67zM370 744h-283l11 50h283z" />
    <glyph glyph-name="imacron" unicode="&#x12b;" horiz-adv-x="232" 
d="M86 0h-62l109 515h62zM327 616h-283l11 50h283z" />
    <glyph glyph-name="Ibreve" unicode="&#x12c;" horiz-adv-x="264" 
d="M105 0h-68l142 666h67zM231 721q-56 0 -93 27.5t-37 77.5q0 2 0.5 6t0.5 6l44 9q2 -30 24.5 -50.5t61.5 -20.5q45 0 77 20t46 52l42 -17q-15 -48 -59.5 -79t-106.5 -31z" />
    <glyph glyph-name="ibreve" unicode="&#x12d;" horiz-adv-x="232" 
d="M86 0h-62l109 515h62zM184 595q-56 0 -93 27.5t-37 77.5q0 2 0.5 6t0.5 6l44 9q2 -30 24.5 -50.5t61.5 -20.5q45 0 77 20t46 52l42 -17q-15 -48 -59.5 -79t-106.5 -31z" />
    <glyph glyph-name="Iogonek" unicode="&#x12e;" horiz-adv-x="264" 
d="M246 666l-141 -666q-35 -15 -61 -41t-26 -51q0 -17 12.5 -27t32.5 -10q27 0 54 22l22 -25q-37 -39 -92 -39q-35 0 -59.5 17t-24.5 50q0 53 74 104l142 666h67z" />
    <glyph glyph-name="iogonek" unicode="&#x12f;" horiz-adv-x="232" 
d="M104 -107l22 -25q-37 -39 -92 -39q-35 0 -59.5 17t-24.5 50q0 53 74 104l109 515h62l-109 -515q-35 -19 -58 -43.5t-23 -48.5q0 -17 12.5 -27t32.5 -10q27 0 54 22zM220 634h-62l17 80h62z" />
    <glyph glyph-name="Idotaccent" unicode="&#x130;" horiz-adv-x="264" 
d="M105 0h-68l142 666h67zM257 726h-63l15 66h63z" />
    <glyph glyph-name="dotlessi" unicode="&#x131;" horiz-adv-x="232" 
d="M86 0h-62l109 515h62z" />
    <glyph glyph-name="Jcircumflex" unicode="&#x134;" horiz-adv-x="461" 
d="M450 666l-100 -474q-43 -204 -211 -204q-119 0 -165 91l58 40q34 -66 111 -66q34 0 59 13t41 36.5t25 47.5t16 56l97 460h69zM427 851h54q45 -64 104 -105l-25 -34q-69 29 -114 82q-20 -20 -62 -44t-84 -38l-19 37q73 43 146 102z" />
    <glyph glyph-name="jcircumflex" unicode="&#x135;" horiz-adv-x="233" 
d="M171 725h54q45 -64 104 -105l-25 -34q-69 29 -114 82q-20 -20 -62 -44t-84 -38l-19 37q73 43 146 102zM196 515l-119 -558q-29 -140 -143 -140q-63 0 -100 41l41 42q23 -29 59 -29t55 27t30 79l115 538h62z" />
    <glyph glyph-name="Kcommaaccent" unicode="&#x136;" horiz-adv-x="610" 
d="M555 0h-77l-177 335l-155 -140l-41 -195h-68l142 666h67l-80 -376l417 376h88l-318 -287zM159 -196l-21 30q63 57 106 114l65 -17q-21 -34 -64.5 -71.5t-85.5 -55.5z" />
    <glyph glyph-name="kcommaaccent" unicode="&#x137;" horiz-adv-x="532" 
d="M136 236l331 279h88l-263 -220l182 -295h-74l-158 257l-124 -104l-32 -153h-62l152 714h61zM120 -196l-21 30q63 57 106 114l65 -17q-21 -34 -64.5 -71.5t-85.5 -55.5z" />
    <glyph glyph-name="kgreenlandic" unicode="&#x138;" horiz-adv-x="534" 
d="M136 236l331 279h88l-263 -220l182 -295h-74l-158 257l-124 -104l-32 -153h-62l110 515h61z" />
    <glyph glyph-name="Lacute" unicode="&#x139;" horiz-adv-x="552" 
d="M478 0h-441l142 666h67l-128 -602h374zM208 708l-21 30q61 56 107 116l63 -28q-18 -31 -60 -64t-89 -54z" />
    <glyph glyph-name="lacute" unicode="&#x13a;" horiz-adv-x="229" 
d="M85 0h-62l151 714h62zM200 747l-21 30q61 56 107 116l63 -28q-18 -31 -60 -64t-89 -54z" />
    <glyph glyph-name="Lcommaaccent" unicode="&#x13b;" horiz-adv-x="552" 
d="M478 0h-441l142 666h67l-128 -602h374zM151 -196l-21 30q63 57 106 114l65 -17q-21 -34 -64.5 -71.5t-85.5 -55.5z" />
    <glyph glyph-name="lcommaaccent" unicode="&#x13c;" horiz-adv-x="229" 
d="M85 0h-62l151 714h62zM-73 -196l-21 30q63 57 106 114l65 -17q-21 -34 -64.5 -71.5t-85.5 -55.5z" />
    <glyph glyph-name="Lcaron" unicode="&#x13d;" horiz-adv-x="552" 
d="M478 0h-441l142 666h67l-128 -602h374zM399 666l-15 -70q-18 -85 -95 -138l-19 24q57 50 57 104q0 10 -3 26t-3 25q0 16 6 29h72z" />
    <glyph glyph-name="lcaron" unicode="&#x13e;" horiz-adv-x="269" 
d="M85 0h-62l151 714h62zM403 714l-15 -70q-18 -85 -95 -138l-19 24q57 50 57 104q0 10 -3 26t-3 25q0 16 6 29h72z" />
    <glyph glyph-name="Ldot" unicode="&#x13f;" horiz-adv-x="552" 
d="M478 0h-441l142 666h67l-128 -602h374zM385 367q0 21 15 36t36 15t36 -15t15 -36t-15 -36t-36 -15t-36 15t-15 36z" />
    <glyph glyph-name="ldot" unicode="&#x140;" horiz-adv-x="422" 
d="M85 0h-62l151 714h62zM277 305q0 21 15 36t36 15t36 -15t15 -36t-15 -36t-36 -15t-36 15t-15 36z" />
    <glyph glyph-name="Lslash" unicode="&#x141;" horiz-adv-x="568" 
d="M494 0h-443l58 272l-123 -43l12 58l123 41l72 338h68l-66 -312l238 84l-13 -57l-237 -84l-50 -233h374z" />
    <glyph glyph-name="lslash" unicode="&#x142;" horiz-adv-x="302" 
d="M334 447l-126 -39l-87 -408h-62l82 386l-124 -41l12 58l125 40l57 271h62l-53 -250l126 40z" />
    <glyph glyph-name="Nacute" unicode="&#x143;" horiz-adv-x="718" 
d="M559 0h-75l-258 587l-124 -587h-65l142 666h81l253 -573l122 573h65zM433 705l-21 30q61 56 107 116l63 -28q-18 -31 -60 -64t-89 -54z" />
    <glyph glyph-name="nacute" unicode="&#x144;" horiz-adv-x="586" 
d="M195 515l-18 -84q80 96 189 96q74 0 114.5 -42.5t40.5 -110.5q0 -23 -7 -56l-69 -318h-62l67 313q7 31 7 52q0 49 -27.5 75.5t-79.5 26.5q-72 0 -130 -52.5t-75 -132.5l-59 -282h-62l109 515h62zM359 580l-27 29q55 55 90 116l69 -11q-14 -32 -52 -70t-80 -64z" />
    <glyph glyph-name="Ncommaaccent" unicode="&#x145;" horiz-adv-x="718" 
d="M559 0h-75l-258 587l-124 -587h-65l142 666h81l253 -573l122 573h65zM177 -196l-21 30q63 57 106 114l65 -17q-21 -34 -64.5 -71.5t-85.5 -55.5z" />
    <glyph glyph-name="ncommaaccent" unicode="&#x146;" horiz-adv-x="586" 
d="M195 515l-18 -84q80 96 189 96q74 0 114.5 -42.5t40.5 -110.5q0 -23 -7 -56l-69 -318h-62l67 313q7 31 7 52q0 49 -27.5 75.5t-79.5 26.5q-72 0 -130 -52.5t-75 -132.5l-59 -282h-62l109 515h62zM116 -196l-21 30q63 57 106 114l65 -17q-21 -34 -64.5 -71.5t-85.5 -55.5z
" />
    <glyph glyph-name="Ncaron" unicode="&#x147;" horiz-adv-x="718" 
d="M559 0h-75l-258 587l-124 -587h-65l142 666h81l253 -573l122 573h65zM471 712h-54q-45 64 -104 105l25 34q69 -29 114 -82q20 20 62 44t84 38l19 -37q-73 -43 -146 -102z" />
    <glyph glyph-name="ncaron" unicode="&#x148;" horiz-adv-x="586" 
d="M195 515l-18 -84q80 96 189 96q74 0 114.5 -42.5t40.5 -110.5q0 -23 -7 -56l-69 -318h-62l67 313q7 31 7 52q0 49 -27.5 75.5t-79.5 26.5q-72 0 -130 -52.5t-75 -132.5l-59 -282h-62l109 515h62zM392 586h-54q-45 64 -104 105l25 34q69 -29 114 -82q20 20 62 44t84 38
l19 -37q-73 -43 -146 -102z" />
    <glyph glyph-name="Eng" unicode="&#x14a;" horiz-adv-x="719" 
d="M362 -105q91 0 128 105l-265 580l-123 -580h-65l142 666h75l260 -567l121 567h65l-133 -630q-22 -103 -73 -154.5t-136 -51.5q-87 0 -136 51l45 56q34 -42 95 -42z" />
    <glyph glyph-name="eng" unicode="&#x14b;" horiz-adv-x="586" 
d="M514 318l-73 -339q-34 -160 -161 -160q-60 0 -93 29l34 47q21 -21 60 -21q46 0 67.5 31.5t34.5 92.5l67 315q7 31 7 52q0 49 -27.5 75.5t-79.5 26.5q-72 0 -130 -52.5t-75 -132.5l-59 -282h-62l109 515h62l-18 -84q80 96 189 96q74 0 114.5 -42.5t40.5 -110.5
q0 -23 -7 -56z" />
    <glyph glyph-name="Omacron" unicode="&#x14c;" horiz-adv-x="748" 
d="M702 367q0 -159 -99.5 -269t-250.5 -110q-132 0 -209.5 87t-77.5 224q0 159 99.5 269t250.5 110q132 0 209.5 -87t77.5 -224zM629 370q0 111 -56 177t-158 66q-121 0 -199 -90.5t-78 -225.5q0 -112 56 -178t158 -66q121 0 199 90.5t78 226.5zM564 742h-283l11 50h283z
" />
    <glyph glyph-name="omacron" unicode="&#x14d;" horiz-adv-x="592" 
d="M534 286q0 -124 -75.5 -211t-191.5 -87q-103 0 -162.5 67t-59.5 174q0 124 75.5 211t192.5 87q103 0 162 -67t59 -174zM468 287q0 79 -40 129.5t-114 50.5q-89 0 -146 -70t-57 -168q0 -79 40.5 -130.5t114.5 -51.5q88 0 145 71t57 169zM467 616h-283l11 50h283z" />
    <glyph glyph-name="Obreve" unicode="&#x14e;" horiz-adv-x="748" 
d="M702 367q0 -159 -99.5 -269t-250.5 -110q-132 0 -209.5 87t-77.5 224q0 159 99.5 269t250.5 110q132 0 209.5 -87t77.5 -224zM629 370q0 111 -56 177t-158 66q-121 0 -199 -90.5t-78 -225.5q0 -112 56 -178t158 -66q121 0 199 90.5t78 226.5zM423 721q-56 0 -93 27.5
t-37 77.5q0 2 0.5 6t0.5 6l44 9q2 -30 24.5 -50.5t61.5 -20.5q45 0 77 20t46 52l42 -17q-15 -48 -59.5 -79t-106.5 -31z" />
    <glyph glyph-name="obreve" unicode="&#x14f;" horiz-adv-x="592" 
d="M534 286q0 -124 -75.5 -211t-191.5 -87q-103 0 -162.5 67t-59.5 174q0 124 75.5 211t192.5 87q103 0 162 -67t59 -174zM468 287q0 79 -40 129.5t-114 50.5q-89 0 -146 -70t-57 -168q0 -79 40.5 -130.5t114.5 -51.5q88 0 145 71t57 169zM326 595q-56 0 -93 27.5t-37 77.5
q0 2 0.5 6t0.5 6l44 9q2 -30 24.5 -50.5t61.5 -20.5q45 0 77 20t46 52l42 -17q-15 -48 -59.5 -79t-106.5 -31z" />
    <glyph glyph-name="Ohungarumlaut" unicode="&#x150;" horiz-adv-x="748" 
d="M702 367q0 -159 -99.5 -269t-250.5 -110q-132 0 -209.5 87t-77.5 224q0 159 99.5 269t250.5 110q132 0 209.5 -87t77.5 -224zM629 370q0 111 -56 177t-158 66q-121 0 -199 -90.5t-78 -225.5q0 -112 56 -178t158 -66q121 0 199 90.5t78 226.5zM335 705l-21 29
q59 46 111 118l50 -35q-18 -29 -61.5 -63t-78.5 -49zM482 705l-21 29q59 46 111 118l50 -35q-18 -29 -61.5 -63t-78.5 -49z" />
    <glyph glyph-name="ohungarumlaut" unicode="&#x151;" horiz-adv-x="592" 
d="M534 286q0 -124 -75.5 -211t-191.5 -87q-103 0 -162.5 67t-59.5 174q0 124 75.5 211t192.5 87q103 0 162 -67t59 -174zM468 287q0 79 -40 129.5t-114 50.5q-89 0 -146 -70t-57 -168q0 -79 40.5 -130.5t114.5 -51.5q88 0 145 71t57 169zM239 579l-21 29q59 46 111 118
l50 -35q-18 -29 -61.5 -63t-78.5 -49zM386 579l-21 29q59 46 111 118l50 -35q-18 -29 -61.5 -63t-78.5 -49z" />
    <glyph glyph-name="OE" unicode="&#x152;" horiz-adv-x="991" 
d="M570 602h-154q-129 0 -203.5 -87t-74.5 -219q0 -110 55 -171t165 -61h97zM423 666h592l-14 -64h-363l-46 -217h304l-13 -63h-305l-54 -258h363l-14 -64h-517q-139 0 -214.5 82t-75.5 210q0 103 41 187t123.5 135.5t192.5 51.5z" />
    <glyph glyph-name="oe" unicode="&#x153;" horiz-adv-x="993" 
d="M948 300q0 -37 -9 -57h-408q-1 -9 -1 -25q0 -76 45 -122.5t121 -46.5q92 0 154 69l42 -42q-83 -88 -197 -88q-77 0 -130.5 33.5t-78.5 94.5q-35 -59 -91.5 -93.5t-127.5 -34.5q-103 0 -162.5 67t-59.5 174q0 124 75.5 211t192.5 87q73 0 123.5 -34.5t74.5 -95.5
q36 60 93 95t128 35q100 0 158 -64t58 -163zM468 287q0 79 -40 129.5t-114 50.5q-89 0 -146 -70t-57 -168q0 -79 40.5 -130.5t114.5 -51.5q88 0 145 71t57 169zM540 297h342q4 80 -38.5 125t-111.5 45q-72 0 -124.5 -47.5t-67.5 -122.5z" />
    <glyph glyph-name="Racute" unicode="&#x154;" horiz-adv-x="658" 
d="M179 666h264q86 0 137 -48t51 -129q0 -73 -51 -127.5t-140 -70.5l124 -291h-73l-119 283h-207l-60 -283h-68zM432 602h-199l-54 -254h211q75 0 121.5 39.5t46.5 99.5q0 53 -32.5 84t-93.5 31zM360 705l-21 30q61 56 107 116l63 -28q-18 -31 -60 -64t-89 -54z" />
    <glyph glyph-name="racute" unicode="&#x155;" horiz-adv-x="383" 
d="M413 504l-32 -54q-25 15 -56 15q-57 0 -110 -50.5t-71 -138.5l-59 -276h-61l109 515h62l-18 -84q74 93 159 93q47 0 77 -20zM260 579l-21 30q61 56 107 116l63 -28q-18 -31 -60 -64t-89 -54z" />
    <glyph glyph-name="Rcommaaccent" unicode="&#x156;" horiz-adv-x="657" 
d="M179 666h264q86 0 137 -48t51 -129q0 -73 -51 -127.5t-140 -70.5l124 -291h-73l-119 283h-207l-60 -283h-68zM432 602h-199l-54 -254h211q75 0 121.5 39.5t46.5 99.5q0 53 -32.5 84t-93.5 31zM157 -196l-21 30q63 57 106 114l65 -17q-21 -34 -64.5 -71.5t-85.5 -55.5z
" />
    <glyph glyph-name="rcommaaccent" unicode="&#x157;" horiz-adv-x="382" 
d="M413 504l-32 -54q-25 15 -56 15q-57 0 -110 -50.5t-71 -138.5l-59 -276h-61l109 515h62l-18 -84q74 93 159 93q47 0 77 -20zM-72 -196l-21 30q63 57 106 114l65 -17q-21 -34 -64.5 -71.5t-85.5 -55.5z" />
    <glyph glyph-name="Rcaron" unicode="&#x158;" horiz-adv-x="658" 
d="M179 666h264q86 0 137 -48t51 -129q0 -73 -51 -127.5t-140 -70.5l124 -291h-73l-119 283h-207l-60 -283h-68zM432 602h-199l-54 -254h211q75 0 121.5 39.5t46.5 99.5q0 53 -32.5 84t-93.5 31zM414 712h-54q-45 64 -104 105l25 34q69 -29 114 -82q20 20 62 44t84 38
l19 -37q-73 -43 -146 -102z" />
    <glyph glyph-name="rcaron" unicode="&#x159;" horiz-adv-x="383" 
d="M413 504l-32 -54q-25 15 -56 15q-57 0 -110 -50.5t-71 -138.5l-59 -276h-61l109 515h62l-18 -84q74 93 159 93q47 0 77 -20zM315 586h-54q-45 64 -104 105l25 34q69 -29 114 -82q20 20 62 44t84 38l19 -37q-73 -43 -146 -102z" />
    <glyph glyph-name="Sacute" unicode="&#x15a;" horiz-adv-x="572" 
d="M174 508q0 -43 31 -68t103 -58q43 -19 63 -29t51.5 -29.5t46 -37.5t26 -46t11.5 -61q0 -80 -68 -135.5t-173 -55.5q-85 0 -151 37.5t-98 97.5l60 36q29 -55 82.5 -81t113.5 -26q72 0 118 35t46 93q0 47 -31.5 71.5t-116.5 62.5q-6 3 -9 4q-41 19 -65.5 32.5t-53 35.5
t-41.5 50.5t-13 65.5q0 81 64 128.5t155 47.5q145 0 223 -118l-56 -41q-54 95 -172 95q-63 0 -104.5 -27.5t-41.5 -78.5zM321 705l-21 30q61 56 107 116l63 -28q-18 -31 -60 -64t-89 -54z" />
    <glyph glyph-name="sacute" unicode="&#x15b;" horiz-adv-x="496" 
d="M421 144q0 -66 -54.5 -111t-147.5 -45q-72 0 -128 27.5t-88 76.5l55 34q56 -79 162 -79q60 0 99 24.5t39 67.5q0 34 -26 51.5t-92 43.5q-9 3 -14 5q-71 27 -107.5 58t-36.5 87q0 69 54.5 106t130.5 37q118 0 195 -81l-47 -42q-62 64 -151 64q-49 0 -85 -19t-36 -57
q0 -15 7 -28t15.5 -21.5t27.5 -18t30.5 -14.5t35.5 -14q34 -13 47.5 -18.5t41 -20.5t39.5 -28t23 -35.5t11 -49.5zM278 580l-27 29q55 55 90 116l69 -11q-14 -32 -52 -70t-80 -64z" />
    <glyph glyph-name="Scircumflex" unicode="&#x15c;" horiz-adv-x="572" 
d="M174 508q0 -43 31 -68t103 -58q43 -19 63 -29t51.5 -29.5t46 -37.5t26 -46t11.5 -61q0 -80 -68 -135.5t-173 -55.5q-85 0 -151 37.5t-98 97.5l60 36q29 -55 82.5 -81t113.5 -26q72 0 118 35t46 93q0 47 -31.5 71.5t-116.5 62.5q-6 3 -9 4q-41 19 -65.5 32.5t-53 35.5
t-41.5 50.5t-13 65.5q0 81 64 128.5t155 47.5q145 0 223 -118l-56 -41q-54 95 -172 95q-63 0 -104.5 -27.5t-41.5 -78.5zM348 851h54q45 -64 104 -105l-25 -34q-69 29 -114 82q-20 -20 -62 -44t-84 -38l-19 37q73 43 146 102z" />
    <glyph glyph-name="scircumflex" unicode="&#x15d;" horiz-adv-x="496" 
d="M421 144q0 -66 -54.5 -111t-147.5 -45q-72 0 -128 27.5t-88 76.5l55 34q56 -79 162 -79q60 0 99 24.5t39 67.5q0 34 -26 51.5t-92 43.5q-9 3 -14 5q-71 27 -107.5 58t-36.5 87q0 69 54.5 106t130.5 37q118 0 195 -81l-47 -42q-62 64 -151 64q-49 0 -85 -19t-36 -57
q0 -15 7 -28t15.5 -21.5t27.5 -18t30.5 -14.5t35.5 -14q34 -13 47.5 -18.5t41 -20.5t39.5 -28t23 -35.5t11 -49.5zM301 725h54q45 -64 104 -105l-25 -34q-69 29 -114 82q-20 -20 -62 -44t-84 -38l-19 37q73 43 146 102z" />
    <glyph glyph-name="Scedilla" unicode="&#x15e;" horiz-adv-x="574" 
d="M95 -106l29 26q28 -35 69 -35q22 0 35.5 14.5t13.5 35.5q0 26 -17 55q-71 8 -126 44t-83 89l60 36q29 -55 82.5 -81t113.5 -26q72 0 118 35t46 93q0 47 -31.5 71.5t-116.5 62.5q-6 3 -9 4q-41 19 -65.5 32.5t-53 35.5t-41.5 50.5t-13 65.5q0 81 64 128.5t155 47.5
q145 0 223 -118l-56 -41q-54 95 -172 95q-63 0 -104.5 -27.5t-41.5 -78.5q0 -43 31 -68t103 -58q43 -19 63 -29t51.5 -29.5t46 -37.5t26 -46t11.5 -61q0 -80 -68 -135t-172 -56q28 -37 28 -71q0 -37 -26.5 -58.5t-64.5 -21.5q-66 0 -108 57z" />
    <glyph glyph-name="scedilla" unicode="&#x15f;" horiz-adv-x="496" 
d="M55 -106l29 26q28 -35 69 -35q22 0 35.5 14.5t13.5 35.5q0 25 -16 55q-126 12 -184 102l55 34q56 -79 162 -79q60 0 99 24.5t39 67.5q0 34 -26 51.5t-92 43.5q-9 3 -14 5q-71 27 -107.5 58t-36.5 87q0 69 54.5 106t130.5 37q118 0 195 -81l-47 -42q-62 64 -151 64
q-49 0 -85 -19t-36 -57q0 -15 7 -28t15.5 -21.5t27.5 -18t30.5 -14.5t35.5 -14q34 -13 47.5 -18.5t41 -20.5t39.5 -28t23 -35.5t11 -49.5q0 -64 -52 -109t-142 -47q28 -37 28 -71q0 -37 -26.5 -58.5t-64.5 -21.5q-66 0 -108 57z" />
    <glyph glyph-name="Scaron" unicode="&#x160;" horiz-adv-x="572" 
d="M174 508q0 -43 31 -68t103 -58q43 -19 63 -29t51.5 -29.5t46 -37.5t26 -46t11.5 -61q0 -80 -68 -135.5t-173 -55.5q-85 0 -151 37.5t-98 97.5l60 36q29 -55 82.5 -81t113.5 -26q72 0 118 35t46 93q0 47 -31.5 71.5t-116.5 62.5q-6 3 -9 4q-41 19 -65.5 32.5t-53 35.5
t-41.5 50.5t-13 65.5q0 81 64 128.5t155 47.5q145 0 223 -118l-56 -41q-54 95 -172 95q-63 0 -104.5 -27.5t-41.5 -78.5zM357 712h-54q-45 64 -104 105l25 34q69 -29 114 -82q20 20 62 44t84 38l19 -37q-73 -43 -146 -102z" />
    <glyph glyph-name="scaron" unicode="&#x161;" horiz-adv-x="496" 
d="M302 586h-54q-45 64 -104 105l25 34q69 -29 114 -82q20 20 62 44t84 38l19 -37q-73 -43 -146 -102zM421 144q0 -66 -54.5 -111t-147.5 -45q-72 0 -128 27.5t-88 76.5l55 34q56 -79 162 -79q60 0 99 24.5t39 67.5q0 34 -26 51.5t-92 43.5q-9 3 -14 5q-71 27 -107.5 58
t-36.5 87q0 69 54.5 106t130.5 37q118 0 195 -81l-47 -42q-62 64 -151 64q-49 0 -85 -19t-36 -57q0 -15 7 -28t15.5 -21.5t27.5 -18t30.5 -14.5t35.5 -14q34 -13 47.5 -18.5t41 -20.5t39.5 -28t23 -35.5t11 -49.5z" />
    <glyph glyph-name="Tcommaaccent" unicode="&#x21a;" horiz-adv-x="572" 
d="M615 602h-230l-128 -602h-68l128 602h-229l14 64h526zM94 -196l-21 30q63 57 106 114l65 -17q-21 -34 -64.5 -71.5t-85.5 -55.5z" />
    <glyph glyph-name="Tcommaaccent" unicode="&#x162;" horiz-adv-x="572" 
d="M615 602h-230l-128 -602h-68l128 602h-229l14 64h526zM94 -196l-21 30q63 57 106 114l65 -17q-21 -34 -64.5 -71.5t-85.5 -55.5z" />
    <glyph glyph-name="tcommaaccent" unicode="&#x21b;" horiz-adv-x="375" 
d="M284 73l29 -48q-51 -37 -114 -37q-58 0 -93.5 27.5t-35.5 78.5q0 19 8 55l65 309h-89l12 57h89l33 151h61l-32 -151h171l-12 -57h-171l-65 -309q-6 -32 -6 -42q0 -29 18.5 -45t51.5 -16q48 0 80 27zM36 -196l-21 30q63 57 106 114l65 -17q-21 -34 -64.5 -71.5
t-85.5 -55.5z" />
    <glyph glyph-name="tcommaaccent" unicode="&#x163;" horiz-adv-x="375" 
d="M284 73l29 -48q-51 -37 -114 -37q-58 0 -93.5 27.5t-35.5 78.5q0 19 8 55l65 309h-89l12 57h89l33 151h61l-32 -151h171l-12 -57h-171l-65 -309q-6 -32 -6 -42q0 -29 18.5 -45t51.5 -16q48 0 80 27zM36 -196l-21 30q63 57 106 114l65 -17q-21 -34 -64.5 -71.5
t-85.5 -55.5z" />
    <glyph glyph-name="Tcaron" unicode="&#x164;" horiz-adv-x="571" 
d="M614 602h-230l-128 -602h-68l128 602h-229l14 64h526zM396 712h-54q-45 64 -104 105l25 34q69 -29 114 -82q20 20 62 44t84 38l19 -37q-73 -43 -146 -102z" />
    <glyph glyph-name="tcaron" unicode="&#x165;" horiz-adv-x="375" 
d="M284 73l29 -48q-51 -37 -114 -37q-58 0 -93.5 27.5t-35.5 78.5q0 19 8 55l65 309h-89l12 57h89l33 151h61l-32 -151h171l-12 -57h-171l-65 -309q-6 -32 -6 -42q0 -29 18.5 -45t51.5 -16q48 0 80 27zM439 749l-15 -64q-16 -76 -92 -125l-18 22q55 45 55 94q0 9 -3 24
t-3 23q0 14 6 26h70z" />
    <glyph glyph-name="Tbar" unicode="&#x166;" horiz-adv-x="572" 
d="M436 337h-107l-72 -337h-68l71 337h-107l10 44h107l47 221h-229l14 64h526l-13 -64h-230l-47 -221h107z" />
    <glyph glyph-name="tbar" unicode="&#x167;" horiz-adv-x="374" 
d="M284 73l29 -48q-51 -37 -114 -37q-58 0 -93.5 27.5t-35.5 78.5q0 19 8 55l26 124h-89l9 44h89l30 141h-89l12 57h89l33 151h61l-32 -151h171l-12 -57h-171l-30 -141h132l-9 -44h-132l-26 -124q-6 -32 -6 -42q0 -29 18.5 -45t51.5 -16q48 0 80 27z" />
    <glyph glyph-name="Utilde" unicode="&#x168;" horiz-adv-x="703" 
d="M694 666l-91 -428q-25 -117 -103.5 -183.5t-196.5 -66.5q-99 0 -163 57t-64 146q0 32 10 76l85 399h68l-87 -409q-8 -37 -8 -57q0 -67 44 -107t120 -40q89 0 149 50.5t80 144.5l89 418h68zM583 824l27 -21q-38 -77 -95 -77q-20 0 -67.5 18.5t-66.5 18.5q-34 0 -63 -37
l-27 21q38 77 95 77q20 0 67.5 -18.5t66.5 -18.5q34 0 63 37z" />
    <glyph glyph-name="utilde" unicode="&#x169;" horiz-adv-x="586" 
d="M378 0l18 84q-80 -96 -189 -96q-74 0 -114.5 42.5t-40.5 110.5q0 23 7 56l69 318h62l-67 -313q-7 -32 -7 -52q0 -49 27.5 -75.5t79.5 -26.5q72 0 130 52.5t75 132.5l59 282h62l-109 -515h-62zM496 698l27 -21q-38 -77 -95 -77q-20 0 -67.5 18.5t-66.5 18.5q-34 0 -63 -37
l-27 21q38 77 95 77q20 0 67.5 -18.5t66.5 -18.5q34 0 63 37z" />
    <glyph glyph-name="Umacron" unicode="&#x16a;" horiz-adv-x="703" 
d="M694 666l-91 -428q-25 -117 -103.5 -183.5t-196.5 -66.5q-99 0 -163 57t-64 146q0 32 10 76l85 399h68l-87 -409q-8 -37 -8 -57q0 -67 44 -107t120 -40q89 0 149 50.5t80 144.5l89 418h68zM589 742h-283l11 50h283z" />
    <glyph glyph-name="umacron" unicode="&#x16b;" horiz-adv-x="586" 
d="M378 0l18 84q-80 -96 -189 -96q-74 0 -114.5 42.5t-40.5 110.5q0 23 7 56l69 318h62l-67 -313q-7 -32 -7 -52q0 -49 27.5 -75.5t79.5 -26.5q72 0 130 52.5t75 132.5l59 282h62l-109 -515h-62zM501 616h-283l11 50h283z" />
    <glyph glyph-name="Ubreve" unicode="&#x16c;" horiz-adv-x="703" 
d="M694 666l-91 -428q-25 -117 -103.5 -183.5t-196.5 -66.5q-99 0 -163 57t-64 146q0 32 10 76l85 399h68l-87 -409q-8 -37 -8 -57q0 -67 44 -107t120 -40q89 0 149 50.5t80 144.5l89 418h68zM435 721q-56 0 -93 27.5t-37 77.5q0 2 0.5 6t0.5 6l44 9q2 -30 24.5 -50.5
t61.5 -20.5q45 0 77 20t46 52l42 -17q-15 -48 -59.5 -79t-106.5 -31z" />
    <glyph glyph-name="ubreve" unicode="&#x16d;" horiz-adv-x="586" 
d="M378 0l18 84q-80 -96 -189 -96q-74 0 -114.5 42.5t-40.5 110.5q0 23 7 56l69 318h62l-67 -313q-7 -32 -7 -52q0 -49 27.5 -75.5t79.5 -26.5q72 0 130 52.5t75 132.5l59 282h62l-109 -515h-62zM345 595q-56 0 -93 27.5t-37 77.5q0 2 0.5 6t0.5 6l44 9q2 -30 24.5 -50.5
t61.5 -20.5q45 0 77 20t46 52l42 -17q-15 -48 -59.5 -79t-106.5 -31z" />
    <glyph glyph-name="Uring" unicode="&#x16e;" horiz-adv-x="703" 
d="M694 666l-91 -428q-25 -117 -103.5 -183.5t-196.5 -66.5q-99 0 -163 57t-64 146q0 32 10 76l85 399h68l-87 -409q-8 -37 -8 -57q0 -67 44 -107t120 -40q89 0 149 50.5t80 144.5l89 418h68zM556 781q0 -41 -29 -70.5t-70 -29.5t-70.5 29.5t-29.5 70.5t29.5 71t70.5 30
t70 -30t29 -71zM515 781q0 25 -17 42.5t-41 17.5q-25 0 -42 -17.5t-17 -42.5t17 -42t42 -17q24 0 41 17t17 42z" />
    <glyph glyph-name="uring" unicode="&#x16f;" horiz-adv-x="586" 
d="M378 0l18 84q-80 -96 -189 -96q-74 0 -114.5 42.5t-40.5 110.5q0 23 7 56l69 318h62l-67 -313q-7 -32 -7 -52q0 -49 27.5 -75.5t79.5 -26.5q72 0 130 52.5t75 132.5l59 282h62l-109 -515h-62zM460 681q0 -41 -29 -70.5t-70 -29.5t-70.5 29.5t-29.5 70.5t29.5 71t70.5 30
t70 -30t29 -71zM419 681q0 25 -17 42.5t-41 17.5q-25 0 -42 -17.5t-17 -42.5t17 -42t42 -17q24 0 41 17t17 42z" />
    <glyph glyph-name="Uhungarumlaut" unicode="&#x170;" horiz-adv-x="703" 
d="M694 666l-91 -428q-25 -117 -103.5 -183.5t-196.5 -66.5q-99 0 -163 57t-64 146q0 32 10 76l85 399h68l-87 -409q-8 -37 -8 -57q0 -67 44 -107t120 -40q89 0 149 50.5t80 144.5l89 418h68zM357 705l-21 29q59 46 111 118l50 -35q-18 -29 -61.5 -63t-78.5 -49zM504 705
l-21 29q59 46 111 118l50 -35q-18 -29 -61.5 -63t-78.5 -49z" />
    <glyph glyph-name="uhungarumlaut" unicode="&#x171;" horiz-adv-x="586" 
d="M378 0l18 84q-80 -96 -189 -96q-74 0 -114.5 42.5t-40.5 110.5q0 23 7 56l69 318h62l-67 -313q-7 -32 -7 -52q0 -49 27.5 -75.5t79.5 -26.5q72 0 130 52.5t75 132.5l59 282h62l-109 -515h-62zM277 579l-21 29q59 46 111 118l50 -35q-18 -29 -61.5 -63t-78.5 -49zM424 579
l-21 29q59 46 111 118l50 -35q-18 -29 -61.5 -63t-78.5 -49z" />
    <glyph glyph-name="Uogonek" unicode="&#x172;" horiz-adv-x="704" 
d="M443 -107l22 -25q-37 -39 -92 -39q-35 0 -59.5 17t-24.5 50q0 48 62 96q-32 -4 -48 -4q-99 0 -163 57t-64 146q0 32 10 76l85 399h68l-87 -409q-8 -37 -8 -57q0 -67 44 -107t120 -40q89 0 149 50.5t80 144.5l89 418h68l-91 -428q-33 -153 -153 -217q-42 -22 -74 -52
t-32 -61q0 -17 12.5 -27t32.5 -10q27 0 54 22z" />
    <glyph glyph-name="uogonek" unicode="&#x173;" horiz-adv-x="586" 
d="M549 515l-109 -515q-35 -19 -58 -43.5t-23 -48.5q0 -17 12.5 -27t32.5 -10q27 0 54 22l22 -25q-37 -39 -92 -39q-35 0 -59.5 17t-24.5 50q0 53 74 104l18 84q-80 -96 -189 -96q-74 0 -114.5 42.5t-40.5 110.5q0 23 7 56l69 318h62l-67 -313q-7 -32 -7 -52
q0 -49 27.5 -75.5t79.5 -26.5q72 0 130 52.5t75 132.5l59 282h62z" />
    <glyph glyph-name="Wcircumflex" unicode="&#x174;" horiz-adv-x="929" 
d="M975 666l-323 -666h-82l-41 588l-291 -588h-84l-38 666h65l29 -595l295 595h76l42 -596l278 596h74zM540 851h54q45 -64 104 -105l-25 -34q-69 29 -114 82q-20 -20 -62 -44t-84 -38l-19 37q73 43 146 102z" />
    <glyph glyph-name="wcircumflex" unicode="&#x175;" horiz-adv-x="763" 
d="M777 515l-249 -515h-72l-42 439l-229 -439h-72l-30 515h59l19 -450l233 450h65l42 -450l210 450h66zM430 725h54q45 -64 104 -105l-25 -34q-69 29 -114 82q-20 -20 -62 -44t-84 -38l-19 37q73 43 146 102z" />
    <glyph glyph-name="Ycircumflex" unicode="&#x176;" 
d="M646 666l-333 -393l-58 -273h-70l58 274l-164 392h75l136 -325l272 325h84zM366 851h54q45 -64 104 -105l-25 -34q-69 29 -114 82q-20 -20 -62 -44t-84 -38l-19 37q73 43 146 102z" />
    <glyph glyph-name="ycircumflex" unicode="&#x177;" horiz-adv-x="506" 
d="M533 515l-318 -541q-47 -84 -87 -121t-101 -37t-95 28l38 49q25 -20 55 -20q36 0 62.5 24.5t53.5 68.5l24 40l-105 509h66l87 -431l249 431h71zM299 725h54q45 -64 104 -105l-25 -34q-69 29 -114 82q-20 -20 -62 -44t-84 -38l-19 37q73 43 146 102z" />
    <glyph glyph-name="Ydieresis" unicode="&#x178;" 
d="M646 666l-333 -393l-58 -273h-70l58 274l-164 392h75l136 -325l272 325h84zM299 726h-63l15 66h63zM498 726h-63l15 66h63z" />
    <glyph glyph-name="Zacute" unicode="&#x179;" horiz-adv-x="577" 
d="M471 0h-491l14 64l508 538h-378l13 64h468l-14 -65l-509 -537h403zM359 705l-21 30q61 56 107 116l63 -28q-18 -31 -60 -64t-89 -54z" />
    <glyph glyph-name="zacute" unicode="&#x17a;" horiz-adv-x="488" 
d="M383 0h-402l12 56l400 402h-302l12 57h380l-13 -59l-395 -400h320zM292 580l-27 29q55 55 90 116l69 -11q-14 -32 -52 -70t-80 -64z" />
    <glyph glyph-name="Zdotaccent" unicode="&#x17b;" horiz-adv-x="577" 
d="M471 0h-491l14 64l508 538h-378l13 64h468l-14 -65l-509 -537h403zM400 726h-63l15 66h63z" />
    <glyph glyph-name="zdotaccent" unicode="&#x17c;" horiz-adv-x="488" 
d="M383 0h-402l12 56l400 402h-302l12 57h380l-13 -59l-395 -400h320zM331 600h-63l15 66h63z" />
    <glyph glyph-name="Zcaron" unicode="&#x17d;" horiz-adv-x="577" 
d="M471 0h-491l14 64l508 538h-378l13 64h468l-14 -65l-509 -537h403zM389 712h-54q-45 64 -104 105l25 34q69 -29 114 -82q20 20 62 44t84 38l19 -37q-73 -43 -146 -102z" />
    <glyph glyph-name="zcaron" unicode="&#x17e;" horiz-adv-x="488" 
d="M383 0h-402l12 56l400 402h-302l12 57h380l-13 -59l-395 -400h320zM324 586h-54q-45 64 -104 105l25 34q69 -29 114 -82q20 20 62 44t84 38l19 -37q-73 -43 -146 -102z" />
    <glyph glyph-name="florin" unicode="&#x192;" 
d="M319 360l-124 -331q-55 -145 -172 -145q-48 0 -79 21l32 50q26 -15 55 -15q40 0 64 24t43 75l120 321h-93l11 52h102l46 122q55 145 172 145q48 0 79 -21l-32 -50q-26 15 -55 15q-40 0 -64 -24t-43 -75l-43 -112h125l-12 -52h-132z" />
    <glyph glyph-name="Aringacute" unicode="&#x1fa;" horiz-adv-x="638" 
d="M392 842l-21 30q61 56 107 116l63 -28q-18 -31 -60 -64t-89 -54zM452 266l-58 331l-201 -331h259zM469 725q0 25 -17 42.5t-41 17.5q-25 0 -42 -17.5t-17 -42.5t17 -42t42 -17q24 0 41 17t17 42zM510 725q0 -31 -17 -56t-44 -36l123 -633h-71l-37 202h-310l-124 -202h-77
l398 644q-40 32 -40 81q0 41 29.5 71t70.5 30t70 -30t29 -71z" />
    <glyph glyph-name="aringacute" unicode="&#x1fb;" horiz-adv-x="563" 
d="M474 350l-51 -235q-5 -25 -5 -33q0 -34 40 -34q22 0 42 13l14 -56q-24 -14 -65 -14q-40 0 -65 19.5t-25 55.5q0 8 1 13q-68 -91 -181 -91q-76 0 -119.5 38.5t-43.5 107.5q0 138 192 161q9 1 39.5 4t43 5t37 6.5t36.5 11t26 15.5t20 23t6 31q0 42 -33.5 59.5t-80.5 17.5
q-99 0 -174 -59l-33 47q96 71 209 71q78 0 127 -34t49 -97q0 -22 -6 -46zM383 215l18 83q-15 -13 -31.5 -22.5t-40.5 -15.5t-34.5 -8.5t-43.5 -6t-38 -4.5q-66 -9 -99 -31t-33 -72q0 -91 107 -91q68 0 122.5 42t72.5 126zM430 647q0 -41 -29 -70.5t-70 -29.5t-70.5 29.5
t-29.5 70.5t29.5 71t70.5 30t70 -30t29 -71zM389 647q0 25 -17 42.5t-41 17.5q-25 0 -42 -17.5t-17 -42.5t17 -42t42 -17q24 0 41 17t17 42zM315 766l-21 30q61 56 107 116l63 -28q-18 -31 -60 -64t-89 -54z" />
    <glyph glyph-name="AEacute" unicode="&#x1fc;" horiz-adv-x="869" 
d="M752 0h-397l43 202h-241l-145 -202h-79l479 666h482l-14 -64h-327l-46 -217h269l-13 -63h-270l-55 -258h328zM412 266l71 336h-39l-241 -336h209zM537 705l-21 30q61 56 107 116l63 -28q-18 -31 -60 -64t-89 -54z" />
    <glyph glyph-name="aeacute" unicode="&#x1fd;" horiz-adv-x="918" 
d="M383 215l18 83q-15 -13 -31.5 -22.5t-40.5 -15.5t-34.5 -8.5t-43.5 -6t-38 -4.5q-66 -9 -99 -31t-33 -72q0 -91 107 -91q68 0 122.5 42t72.5 126zM622 -12q-80 0 -136 37t-78 100q-37 -69 -97 -103t-129 -34q-76 0 -121 39t-45 108q0 36 13.5 64.5t32.5 44.5t48 27.5
t50 16t48 7.5q9 1 39.5 4t43 5t37 6.5t36.5 11t26 15.5t20 23t6 31q0 77 -116 77q-97 0 -172 -59l-33 47q96 71 208 71q137 0 168 -90q77 90 184 90q98 0 157 -64t59 -155q0 -38 -9 -65h-408q-1 -9 -1 -25q0 -75 47.5 -122t124.5 -47q94 0 153 70l43 -43q-83 -88 -199 -88z
M463 297h342q1 6 1 14q0 72 -42.5 114t-109.5 42q-72 0 -124 -47.5t-67 -122.5zM482 579l-21 30q61 56 107 116l63 -28q-18 -31 -60 -64t-89 -54z" />
    <glyph glyph-name="Oslashacute" unicode="&#x1fe;" horiz-adv-x="748" 
d="M402 705l-21 30q61 56 107 116l63 -28q-18 -31 -60 -64t-89 -54zM145 -9l-36 28l39 50q-83 86 -83 230q0 159 99.5 269t250.5 110q98 0 168 -50l37 47l36 -28l-38 -49q84 -87 84 -231q0 -159 -99.5 -269t-250.5 -110q-100 0 -170 51zM629 370q0 109 -53 174l-353 -453
q52 -38 129 -38q121 0 199 90.5t78 226.5zM138 297q0 -109 52 -173l352 451q-52 38 -127 38q-121 0 -199 -90.5t-78 -225.5z" />
    <glyph glyph-name="oslashacute" unicode="&#x1ff;" horiz-adv-x="592" 
d="M294 579l-21 30q61 56 107 116l63 -28q-18 -31 -60 -64t-89 -54zM111 -9l-36 28l28 37q-58 66 -58 173q0 124 75.5 211t192.5 87q73 0 128 -37l27 34l36 -28l-29 -37q59 -67 59 -173q0 -124 -75.5 -211t-191.5 -87q-77 0 -129 37zM468 287q0 72 -33 120l-259 -333
q37 -27 90 -27q88 0 145 71t57 169zM111 229q0 -73 33 -121l259 332q-38 27 -89 27q-89 0 -146 -70t-57 -168z" />
    <glyph glyph-name="Scommaaccent" unicode="&#x218;" horiz-adv-x="572" 
d="M174 508q0 -43 31 -68t103 -58q43 -19 63 -29t51.5 -29.5t46 -37.5t26 -46t11.5 -61q0 -80 -68 -135.5t-173 -55.5q-85 0 -151 37.5t-98 97.5l60 36q29 -55 82.5 -81t113.5 -26q72 0 118 35t46 93q0 47 -31.5 71.5t-116.5 62.5q-6 3 -9 4q-41 19 -65.5 32.5t-53 35.5
t-41.5 50.5t-13 65.5q0 81 64 128.5t155 47.5q145 0 223 -118l-56 -41q-54 95 -172 95q-63 0 -104.5 -27.5t-41.5 -78.5zM125 -196l-21 30q63 57 106 114l65 -17q-21 -34 -64.5 -71.5t-85.5 -55.5z" />
    <glyph glyph-name="scommaaccent" unicode="&#x219;" horiz-adv-x="494" 
d="M419 144q0 -66 -54.5 -111t-147.5 -45q-72 0 -128 27.5t-88 76.5l55 34q56 -79 162 -79q60 0 99 24.5t39 67.5q0 34 -26 51.5t-92 43.5q-9 3 -14 5q-71 27 -107.5 58t-36.5 87q0 69 54.5 106t130.5 37q118 0 195 -81l-47 -42q-62 64 -151 64q-49 0 -85 -19t-36 -57
q0 -15 7 -28t15.5 -21.5t27.5 -18t30.5 -14.5t35.5 -14q34 -13 47.5 -18.5t41 -20.5t39.5 -28t23 -35.5t11 -49.5zM88 -196l-21 30q63 57 106 114l65 -17q-21 -34 -64.5 -71.5t-85.5 -55.5z" />
    <glyph glyph-name="dotlessj" unicode="&#x237;" horiz-adv-x="233" 
d="M196 515l-119 -558q-29 -140 -143 -140q-63 0 -100 41l41 42q23 -29 59 -29t55 27t30 79l115 538h62z" />
    <glyph glyph-name="schwa" unicode="&#x259;" 
d="M31 215q0 37 9 57h408q1 9 1 25q0 76 -45 122.5t-121 46.5q-92 0 -154 -69l-42 42q83 88 197 88q109 0 170.5 -66.5t61.5 -174.5q0 -121 -76.5 -209.5t-192.5 -88.5q-100 0 -158 64t-58 163zM439 218h-342q-4 -80 38.5 -125t111.5 -45q72 0 124.5 47.5t67.5 122.5z" />
    <glyph glyph-name="circumflex" unicode="&#x2c6;" horiz-adv-x="312" 
d="M220 725h54q45 -64 104 -105l-25 -34q-69 29 -114 82q-20 -20 -62 -44t-84 -38l-19 37q73 43 146 102z" />
    <glyph glyph-name="caron" unicode="&#x2c7;" horiz-adv-x="313" 
d="M265 586h-54q-45 64 -104 105l25 34q69 -29 114 -82q20 20 62 44t84 38l19 -37q-73 -43 -146 -102z" />
    <glyph glyph-name="breve" unicode="&#x2d8;" horiz-adv-x="312" 
d="M235 595q-56 0 -93 27.5t-37 77.5q0 2 0.5 6t0.5 6l44 9q2 -30 24.5 -50.5t61.5 -20.5q45 0 77 20t46 52l42 -17q-15 -48 -59.5 -79t-106.5 -31z" />
    <glyph glyph-name="dotaccent" unicode="&#x2d9;" horiz-adv-x="312" 
d="M257 600h-63l15 66h63z" />
    <glyph glyph-name="ring" unicode="&#x2da;" horiz-adv-x="313" 
d="M346 681q0 -41 -29 -70.5t-70 -29.5t-70.5 29.5t-29.5 70.5t29.5 71t70.5 30t70 -30t29 -71zM305 681q0 25 -17 42.5t-41 17.5q-25 0 -42 -17.5t-17 -42.5t17 -42t42 -17q24 0 41 17t17 42z" />
    <glyph glyph-name="ogonek" unicode="&#x2db;" horiz-adv-x="312" 
d="M158 -107l22 -25q-37 -39 -92 -39q-35 0 -59.5 17t-24.5 50q0 66 109 125h51q-105 -65 -105 -113q0 -17 12.5 -27t32.5 -10q27 0 54 22z" />
    <glyph glyph-name="tilde" unicode="&#x2dc;" horiz-adv-x="312" 
d="M363 698l27 -21q-38 -77 -95 -77q-20 0 -67.5 18.5t-66.5 18.5q-34 0 -63 -37l-27 21q38 77 95 77q20 0 67.5 -18.5t66.5 -18.5q34 0 63 37z" />
    <glyph glyph-name="hungarumlaut" unicode="&#x2dd;" horiz-adv-x="324" 
d="M127 579l-21 29q59 46 111 118l50 -35q-18 -29 -61.5 -63t-78.5 -49zM274 579l-21 29q59 46 111 118l50 -35q-18 -29 -61.5 -63t-78.5 -49z" />
    <glyph glyph-name="Delta" unicode="&#x2206;" horiz-adv-x="609" 
d="M512 14l-3 -14h-523l3 14l404 700h12zM371 562l-290 -503h366z" />
    <glyph glyph-name="Delta" unicode="&#x394;" horiz-adv-x="609" 
d="M512 14l-3 -14h-523l3 14l404 700h12zM371 562l-290 -503h366z" />
    <glyph glyph-name="Omega" unicode="&#x2126;" horiz-adv-x="645" 
d="M384 678q104 0 164.5 -66t60.5 -174q0 -51 -16 -101t-37.5 -86t-57.5 -76t-59.5 -62t-61.5 -54h152l-12 -59h-209l-6 55q135 123 191 203t56 179q0 83 -44.5 133.5t-122.5 50.5q-103 0 -173.5 -78t-70.5 -193q0 -142 103 -295l-29 -55h-193l13 59h142q-95 159 -95 291
q0 129 86.5 228.5t218.5 99.5z" />
    <glyph glyph-name="Omega" unicode="&#x3a9;" horiz-adv-x="645" 
d="M384 678q104 0 164.5 -66t60.5 -174q0 -51 -16 -101t-37.5 -86t-57.5 -76t-59.5 -62t-61.5 -54h152l-12 -59h-209l-6 55q135 123 191 203t56 179q0 83 -44.5 133.5t-122.5 50.5q-103 0 -173.5 -78t-70.5 -193q0 -142 103 -295l-29 -55h-193l13 59h142q-95 159 -95 291
q0 129 86.5 228.5t218.5 99.5z" />
    <glyph glyph-name="pi" unicode="&#x3c0;" horiz-adv-x="591" 
d="M590 455h-69l-97 -455h-58l97 455h-262l-97 -455h-58l97 455h-69l13 59h515z" />
    <glyph glyph-name="Wgrave" unicode="&#x1e80;" horiz-adv-x="929" 
d="M975 666l-323 -666h-82l-41 588l-291 -588h-84l-38 666h65l29 -595l295 595h76l42 -596l278 596h74zM580 735l-27 -29q-42 26 -80 64t-52 70l69 11q35 -61 90 -116z" />
    <glyph glyph-name="wgrave" unicode="&#x1e81;" horiz-adv-x="763" 
d="M777 515l-249 -515h-72l-42 439l-229 -439h-72l-30 515h59l19 -450l233 450h65l42 -450l210 450h66zM469 609l-27 -29q-42 26 -80 64t-52 70l69 11q35 -61 90 -116z" />
    <glyph glyph-name="Wacute" unicode="&#x1e82;" horiz-adv-x="929" 
d="M975 666l-323 -666h-82l-41 588l-291 -588h-84l-38 666h65l29 -595l295 595h76l42 -596l278 596h74zM543 705l-21 30q61 56 107 116l63 -28q-18 -31 -60 -64t-89 -54z" />
    <glyph glyph-name="wacute" unicode="&#x1e83;" horiz-adv-x="763" 
d="M777 515l-249 -515h-72l-42 439l-229 -439h-72l-30 515h59l19 -450l233 450h65l42 -450l210 450h66zM429 579l-21 30q61 56 107 116l63 -28q-18 -31 -60 -64t-89 -54z" />
    <glyph glyph-name="Wdieresis" unicode="&#x1e84;" horiz-adv-x="929" 
d="M975 666l-323 -666h-82l-41 588l-291 -588h-84l-38 666h65l29 -595l295 595h76l42 -596l278 596h74zM481 726h-63l15 66h63zM680 726h-63l15 66h63z" />
    <glyph glyph-name="wdieresis" unicode="&#x1e85;" horiz-adv-x="763" 
d="M777 515l-249 -515h-72l-42 439l-229 -439h-72l-30 515h59l19 -450l233 450h65l42 -450l210 450h66zM369 600h-63l15 66h63zM568 600h-63l15 66h63z" />
    <glyph glyph-name="Ygrave" unicode="&#x1ef2;" 
d="M646 666l-333 -393l-58 -273h-70l58 274l-164 392h75l136 -325l272 325h84zM398 735l-27 -29q-42 26 -80 64t-52 70l69 11q35 -61 90 -116z" />
    <glyph glyph-name="ygrave" unicode="&#x1ef3;" horiz-adv-x="506" 
d="M533 515l-318 -541q-47 -84 -87 -121t-101 -37t-95 28l38 49q25 -20 55 -20q36 0 62.5 24.5t53.5 68.5l24 40l-105 509h66l87 -431l249 431h71zM340 609l-27 -29q-42 26 -80 64t-52 70l69 11q35 -61 90 -116z" />
    <glyph glyph-name="endash" unicode="&#x2013;" 
d="M509 276h-451l12 56h451z" />
    <glyph glyph-name="emdash" unicode="&#x2014;" horiz-adv-x="932" 
d="M861 276h-796l12 56h796z" />
    <glyph glyph-name="quoteleft" unicode="&#x2018;" horiz-adv-x="213" 
d="M99 459l18 83q20 92 96 137l17 -29q-54 -32 -68 -88l-6 -25h43l-17 -78h-83z" />
    <glyph glyph-name="quoteright" unicode="&#x2019;" horiz-adv-x="206" 
d="M228 666l-18 -83q-20 -92 -96 -137l-17 29q54 32 68 88l6 25h-43l17 78h83z" />
    <glyph glyph-name="quotesinglbase" unicode="&#x201a;" horiz-adv-x="238" 
d="M119 78l-18 -83q-20 -92 -96 -137l-17 29q54 32 68 88l6 25h-43l17 78h83z" />
    <glyph glyph-name="quotedblleft" unicode="&#x201c;" horiz-adv-x="374" 
d="M260 459l18 83q20 92 96 137l17 -29q-54 -32 -68 -88l-6 -25h43l-17 -78h-83zM99 459l18 83q20 92 96 137l17 -29q-54 -32 -68 -88l-6 -25h43l-17 -78h-83z" />
    <glyph glyph-name="quotedblright" unicode="&#x201d;" horiz-adv-x="367" 
d="M228 666l-18 -83q-20 -92 -96 -137l-17 29q54 32 68 88l6 25h-43l17 78h83zM389 666l-18 -83q-20 -92 -96 -137l-17 29q54 32 68 88l6 25h-43l17 78h83z" />
    <glyph glyph-name="quotedblbase" unicode="&#x201e;" horiz-adv-x="399" 
d="M119 78l-18 -83q-20 -92 -96 -137l-17 29q54 32 68 88l6 25h-43l17 78h83zM280 78l-18 -83q-20 -92 -96 -137l-17 29q54 32 68 88l6 25h-43l17 78h83z" />
    <glyph glyph-name="dagger" unicode="&#x2020;" horiz-adv-x="470" 
d="M458 460h-157l-98 -460h-61l98 460h-156l12 55h156l32 151h61l-33 -151h157z" />
    <glyph glyph-name="daggerdbl" unicode="&#x2021;" horiz-adv-x="493" 
d="M405 153h-157l-33 -153h-61l33 153h-156l12 55h156l53 251h-156l12 55h155l33 152h61l-33 -152h157l-12 -55h-156l-54 -251h157z" />
    <glyph glyph-name="bullet" unicode="&#x2022;" horiz-adv-x="361" 
d="M66 333q0 51 35.5 87t86.5 36t87 -36t36 -87t-36 -86.5t-87 -35.5t-86.5 35.5t-35.5 86.5z" />
    <glyph glyph-name="twodotenleader" unicode="&#x2025;" horiz-adv-x="451" 
d="M102 0h-83l18 84h83zM315 0h-83l18 84h83z" />
    <glyph glyph-name="ellipsis" unicode="&#x2026;" horiz-adv-x="649" 
d="M102 0h-83l18 84h83zM307 0h-83l18 84h83zM514 0h-84l18 84h83z" />
    <glyph glyph-name="perthousand" unicode="&#x2030;" horiz-adv-x="1104" 
d="M656 666l-475 -666h-54l475 666h54zM684 164q0 -72 -46 -122.5t-115 -50.5q-62 0 -99 41.5t-37 104.5q0 72 45.5 122.5t115.5 50.5q62 0 99 -41t37 -105zM635 164q0 46 -23 73.5t-65 27.5q-49 0 -79.5 -37t-30.5 -91q0 -46 22.5 -73.5t64.5 -27.5q49 0 80 37t31 91z
M396 529q0 -72 -46 -122.5t-115 -50.5q-62 0 -99 41.5t-37 104.5q0 72 45.5 122.5t115.5 50.5q62 0 99 -41t37 -105zM347 529q0 46 -23 73.5t-65 27.5q-49 0 -79.5 -37t-30.5 -91q0 -46 22.5 -73.5t64.5 -27.5q49 0 80 37t31 91zM1028 164q0 -72 -46 -122.5t-115 -50.5
q-62 0 -99 41.5t-37 104.5q0 72 45.5 122.5t115.5 50.5q62 0 99 -41t37 -105zM979 164q0 46 -23 73.5t-65 27.5q-49 0 -79.5 -37t-30.5 -91q0 -46 22.5 -73.5t64.5 -27.5q49 0 80 37t31 91z" />
    <glyph glyph-name="guilsinglleft" unicode="&#x2039;" horiz-adv-x="277" 
d="M32 248l4 20l174 187l38 -41l-160 -163l90 -162l-51 -28z" />
    <glyph glyph-name="guilsinglright" unicode="&#x203a;" horiz-adv-x="277" 
d="M233 268l-4 -20l-174 -187l-38 41l160 163l-90 162l51 28z" />
    <glyph glyph-name="fraction" unicode="&#x2044;" horiz-adv-x="210" 
d="M426 666l-569 -666h-53l569 666h53z" />
    <glyph glyph-name="zerosuperior" unicode="&#x2070;" horiz-adv-x="389" 
d="M277 766q66 0 96.5 -46.5t30.5 -117.5q0 -31 -5.5 -65t-18.5 -71.5t-33 -67t-52 -48.5t-72 -19q-67 0 -97.5 47.5t-30.5 117.5q0 39 9.5 82.5t28.5 87t57 72t87 28.5zM147 487q0 -110 77 -110q37 0 64.5 27.5t40 69t18 76t5.5 62.5q0 108 -77 108q-37 0 -64.5 -27.5
t-40 -69t-18 -76t-5.5 -60.5z" />
    <glyph glyph-name="foursuperior" unicode="&#x2074;" horiz-adv-x="357" 
d="M370 440h-62l-21 -101h-52l22 101h-203l9 44q79 71 124 147.5t48 127.5h53q-1 -50 -50 -134t-115 -139h144q19 85 30 136h50l-29 -136h62z" />
    <glyph glyph-name="fivesuperior" unicode="&#x2075;" horiz-adv-x="369" 
d="M63 431l47 19q12 -36 40.5 -53.5t63.5 -17.5q44 0 74 26.5t30 71.5q0 39 -24.5 63.5t-67.5 24.5q-53 0 -88 -38l-28 21l54 211h239l-10 -48h-194l-35 -127q30 25 80 25q57 0 93 -38t36 -93q0 -62 -45 -104.5t-115 -42.5q-55 0 -95 28.5t-55 71.5z" />
    <glyph glyph-name="sixsuperior" unicode="&#x2076;" horiz-adv-x="375" 
d="M288 759h83q-61 -33 -123.5 -85t-83.5 -97q36 34 89 34q58 0 95.5 -37.5t37.5 -96.5q0 -63 -42.5 -104.5t-111.5 -41.5q-66 0 -106.5 40.5t-40.5 109.5q0 154 203 278zM241 567q-45 0 -73.5 -26t-28.5 -71q0 -42 25 -66.5t67 -24.5q48 0 74.5 29t26.5 72q0 40 -24.5 63.5
t-66.5 23.5z" />
    <glyph glyph-name="sevensuperior" unicode="&#x2077;" horiz-adv-x="323" 
d="M408 759l-9 -45q-66 -61 -135.5 -167t-88.5 -208h-57q20 97 84.5 200t132.5 172h-234l10 48h297z" />
    <glyph glyph-name="eightsuperior" unicode="&#x2078;" horiz-adv-x="388" 
d="M322 557q24 -13 42.5 -39t18.5 -63q0 -53 -39.5 -88.5t-108.5 -35.5q-67 0 -110 34t-43 90q0 44 27.5 75t71.5 42q-50 29 -50 86q0 48 37 78t96 30q61 0 99 -31.5t38 -79.5q0 -36 -21.5 -61t-57.5 -37zM348 651q0 34 -25 51t-59 17q-36 0 -58 -17t-22 -48q0 -33 24.5 -51
t60.5 -18q34 0 56.5 17.5t22.5 48.5zM329 459q0 40 -27.5 60.5t-69.5 20.5q-43 0 -69 -21.5t-26 -59.5q0 -39 27 -60t70 -21t69 21t26 60z" />
    <glyph glyph-name="ninesuperior" unicode="&#x2079;" horiz-adv-x="375" 
d="M198 339h-83q62 33 124 84.5t84 96.5q-36 -33 -90 -33q-58 0 -95.5 37.5t-37.5 96.5q0 62 42.5 103.5t111.5 41.5q66 0 106.5 -40.5t40.5 -108.5q0 -84 -57.5 -154.5t-145.5 -123.5zM245 531q45 0 73.5 25.5t28.5 71.5q0 42 -25 66.5t-67 24.5q-48 0 -74.5 -29.5
t-26.5 -72.5q0 -40 24.5 -63t66.5 -23z" />
    <glyph glyph-name="zeroinferior" unicode="&#x2080;" horiz-adv-x="390" 
d="M186 334q66 0 96.5 -46.5t30.5 -117.5q0 -31 -5.5 -65t-18.5 -71.5t-33 -67t-52 -48.5t-72 -19q-67 0 -97.5 47.5t-30.5 117.5q0 39 9.5 82.5t28.5 87t57 72t87 28.5zM56 55q0 -110 77 -110q37 0 64.5 27.5t40 69t18 76t5.5 62.5q0 108 -77 108q-37 0 -64.5 -27.5
t-40 -69t-18 -76t-5.5 -60.5z" />
    <glyph glyph-name="oneinferior" unicode="&#x2081;" horiz-adv-x="310" 
d="M217 -93h-254l10 45h104l65 311q-37 -22 -111 -32l-4 40q94 17 142 56h40l-80 -375h99z" />
    <glyph glyph-name="twoinferior" unicode="&#x2082;" horiz-adv-x="363" 
d="M256 -93h-284l9 40q150 114 201.5 166t51.5 98q0 35 -22.5 55t-57.5 20q-59 0 -97 -58l-43 27q56 79 145 79q58 0 94.5 -33.5t36.5 -86.5q0 -60 -53 -118t-178 -141h208z" />
    <glyph glyph-name="threeinferior" unicode="&#x2083;" horiz-adv-x="376" 
d="M225 26q0 37 -25.5 56.5t-68.5 19.5h-27l10 45h51q34 0 56.5 18t22.5 51q0 35 -25 53t-59 18q-60 0 -97 -45l-36 33q53 59 135 59q60 0 98 -32t38 -81q0 -36 -22.5 -62.5t-58.5 -37.5q25 -12 43.5 -38t18.5 -60q0 -54 -42.5 -89t-108.5 -35q-55 0 -96 25t-61 68l47 25
q31 -70 112 -70q42 0 68.5 21.5t26.5 57.5z" />
    <glyph glyph-name="fourinferior" unicode="&#x2084;" horiz-adv-x="357" 
d="M278 8h-62l-21 -101h-52l22 101h-203l9 44q79 71 124 147.5t48 127.5h53q-1 -50 -50 -134t-115 -139h144q19 85 30 136h50l-29 -136h62z" />
    <glyph glyph-name="fiveinferior" unicode="&#x2085;" horiz-adv-x="369" 
d="M-29 -1l47 19q12 -36 40.5 -53.5t63.5 -17.5q44 0 74 26.5t30 71.5q0 39 -24.5 63.5t-67.5 24.5q-53 0 -88 -38l-28 21l54 211h239q-7 -35 -10 -48h-194l-35 -127q30 25 80 25q57 0 93 -38t36 -93q0 -62 -45 -104.5t-115 -42.5q-55 0 -95 28.5t-55 71.5z" />
    <glyph glyph-name="sixinferior" unicode="&#x2086;" horiz-adv-x="374" 
d="M196 327h83q-61 -33 -123.5 -85t-83.5 -97q36 34 89 34q58 0 95.5 -37.5t37.5 -96.5q0 -63 -42.5 -104.5t-111.5 -41.5q-66 0 -106.5 40.5t-40.5 109.5q0 154 203 278zM149 135q-45 0 -73.5 -26t-28.5 -71q0 -42 25 -66.5t67 -24.5q48 0 74.5 29t26.5 72q0 40 -24.5 63.5
t-66.5 23.5z" />
    <glyph glyph-name="seveninferior" unicode="&#x2087;" horiz-adv-x="323" 
d="M316 327l-9 -45q-66 -61 -135.5 -167t-88.5 -208h-57q20 97 84.5 200t132.5 172h-234l10 48h297z" />
    <glyph glyph-name="eightinferior" unicode="&#x2088;" horiz-adv-x="388" 
d="M230 125q24 -13 42.5 -39t18.5 -63q0 -53 -39.5 -88.5t-108.5 -35.5q-67 0 -110 34t-43 90q0 44 27.5 75t71.5 42q-50 29 -50 86q0 48 37 78t96 30q61 0 99 -31.5t38 -79.5q0 -36 -21.5 -61t-57.5 -37zM256 219q0 34 -25 51t-59 17q-36 0 -58 -17t-22 -48q0 -33 24.5 -51
t60.5 -18q34 0 56.5 17.5t22.5 48.5zM237 27q0 40 -27.5 60.5t-69.5 20.5q-43 0 -69 -21.5t-26 -59.5q0 -39 27 -60t70 -21t69 21t26 60z" />
    <glyph glyph-name="nineinferior" unicode="&#x2089;" horiz-adv-x="374" 
d="M106 -93h-83q62 33 124 84.5t84 96.5q-36 -33 -90 -33q-58 0 -95.5 37.5t-37.5 96.5q0 62 42.5 103.5t111.5 41.5q66 0 106.5 -40.5t40.5 -108.5q0 -84 -57.5 -154.5t-145.5 -123.5zM153 99q45 0 73.5 25.5t28.5 71.5q0 42 -25 66.5t-67 24.5q-48 0 -74.5 -29.5
t-26.5 -72.5q0 -40 24.5 -63t66.5 -23z" />
    <glyph glyph-name="Euro" unicode="&#x20ac;" horiz-adv-x="742" 
d="M724 543l-61 -36q-58 106 -185 106q-92 0 -161 -52t-100 -139h304l-10 -47h-307q-7 -34 -7 -76v-8h296l-10 -47h-282q13 -89 67.5 -140t139.5 -51q121 0 194 98l52 -40q-97 -123 -247 -123q-114 0 -189 70.5t-90 185.5h-84l10 47h71v7q0 42 7 77h-60l10 47h61
q35 114 126 185t211 71q83 0 146 -36t98 -99z" />
    <glyph glyph-name="litre" unicode="&#x2113;" horiz-adv-x="488" 
d="M343 109l44 -41q-65 -80 -157 -80q-59 0 -91 31t-32 77q0 19 7 54l10 49q-45 -28 -73 -40l-21 55q47 20 110 60l53 253q5 22 8 35t14 38t25 39.5t39.5 26.5t57.5 12q59 0 90 -34t31 -84q0 -36 -19 -75.5t-44.5 -70.5t-65 -66t-67.5 -56t-66 -47l-20 -96q-6 -30 -6 -45
q0 -28 18.5 -43t48.5 -15q62 0 106 63zM254 521l-42 -197q182 133 182 231q0 29 -15 46.5t-44 17.5q-20 0 -35 -8.5t-24 -25t-13.5 -30.5t-8.5 -34z" />
    <glyph glyph-name="afii61352" unicode="&#x2116;" horiz-adv-x="1214" 
d="M695 0l12 56h379l-12 -56h-379zM493 0l-212 550q-12 -59 -32.5 -176.5t-23.5 -131.5q-28 -154 -58 -202q-33 -52 -96 -52q-55 0 -85 37l41 42q22 -24 44 -24q29 0 46 32.5t34 113.5l102 477h49l212 -550q12 59 32.5 176.5t23.5 131.5q28 154 58 202q33 52 96 52
q55 0 85 -37l-41 -42q-22 24 -44 24q-29 0 -46 -32.5t-34 -113.5l-101 -477h-50zM1164 362q0 -99 -64.5 -167.5t-160.5 -68.5q-87 0 -138 56t-51 142q0 98 64.5 166.5t161.5 68.5q86 0 137 -55.5t51 -141.5zM1101 361q0 63 -33 102t-94 39q-70 0 -115.5 -51.5t-45.5 -128.5
q0 -63 33 -101.5t93 -38.5q71 0 116.5 51t45.5 128z" />
    <glyph glyph-name="uni2117" unicode="&#x2117;" horiz-adv-x="823" 
d="M773 333q0 -145 -103 -248t-248 -103t-248.5 103t-103.5 248t103 248t249 103q145 0 248 -103t103 -248zM726 333q0 127 -89 216t-215 89t-215.5 -89t-89.5 -216q0 -126 89 -215t216 -89q126 0 215 89t89 215zM463 292h-112v-150h-50v380h161q56 0 92 -31.5t36 -82.5
q0 -49 -34 -82.5t-93 -33.5zM539 407q0 31 -20.5 50.5t-55.5 19.5h-112v-141h112q36 0 56 20t20 51z" />
    <glyph glyph-name="trademark" unicode="&#x2122;" horiz-adv-x="698" 
d="M645 393h-42l48 228l-124 -228h-55l-27 228l-48 -228h-41l58 274h67l28 -237l130 237h64zM358 628h-94l-50 -235h-43l50 235h-92l8 39h229z" />
    <glyph glyph-name="estimated" unicode="&#x212e;" horiz-adv-x="657" 
d="M600 273h-417v-187q63 -61 150 -61q65 0 113 29.5t86 94.5l36 -22q-48 -75 -101.5 -107t-133.5 -32q-119 0 -192.5 81.5t-73.5 203.5t73.5 203.5t192.5 81.5t192.5 -79.5t74.5 -205.5zM183 310h301v150q-67 62 -152 62t-149 -62v-150z" />
    <glyph glyph-name="uni2139" unicode="&#x2139;" horiz-adv-x="918" 
d="M429 554q-5 -48 -11 -73h95q34 0 57.5 24t23.5 59q0 34 -23 57t-60 23q-71 0 -82 -90zM473 34q73 0 141 38l-19 41q-35 -19 -68 -19q-32 0 -51.5 17t-19.5 51q0 30 16 84l52 174h-122l-34 -132q-27 -104 -27 -140q0 -54 35.5 -84t96.5 -30zM50 333q0 173 123 296t296 123
t296 -123t123 -296t-123 -296t-296 -123t-296 123t-123 296z" />
    <glyph glyph-name="onethird" unicode="&#x2153;" horiz-adv-x="922" 
d="M321 246h-254l9 43h104l66 313q-37 -22 -111 -32l-4 40q94 17 142 56h40l-81 -377h99zM770 119q0 37 -25.5 56.5t-68.5 19.5h-27l10 45h51q34 0 56.5 18t22.5 51q0 35 -25 53t-59 18q-60 0 -97 -45l-36 33q53 59 135 59q60 0 98 -32t38 -81q0 -36 -22.5 -62.5
t-58.5 -37.5q25 -12 43.5 -38t18.5 -60q0 -54 -42.5 -89t-108.5 -35q-55 0 -96 25t-61 68l47 25q31 -70 112 -70q42 0 68.5 21.5t26.5 57.5zM775 666l-569 -666h-53l569 666h53z" />
    <glyph glyph-name="twothirds" unicode="&#x2154;" horiz-adv-x="922" 
d="M352 246h-284l9 40q150 114 201.5 166t51.5 98q0 35 -22.5 55t-57.5 20q-59 0 -97 -58l-43 27q56 79 145 79q58 0 94.5 -33.5t36.5 -86.5q0 -59 -52 -114.5t-179 -144.5h208zM781 119q0 37 -25.5 56.5t-68.5 19.5h-27l10 45h51q34 0 56.5 18t22.5 51q0 35 -25 53t-59 18
q-60 0 -97 -45l-36 33q53 59 135 59q60 0 98 -32t38 -81q0 -36 -22.5 -62.5t-58.5 -37.5q25 -12 43.5 -38t18.5 -60q0 -54 -42.5 -89t-108.5 -35q-55 0 -96 25t-61 68l47 25q31 -70 112 -70q42 0 68.5 21.5t26.5 57.5zM786 666l-569 -666h-53l569 666h53z" />
    <glyph glyph-name="uni2155" unicode="&#x2155;" horiz-adv-x="880" 
d="M297 246h-254l9 43h104l66 313q-37 -22 -111 -32l-4 40q94 17 142 56h40l-81 -377h99zM499 92l47 19q12 -36 40.5 -53.5t63.5 -17.5q44 0 74 26.5t30 71.5q0 39 -24.5 63.5t-67.5 24.5q-53 0 -88 -38l-28 21l54 211h239l-10 -48h-194l-35 -127q30 25 80 25q57 0 93 -38
t36 -93q0 -62 -45 -104.5t-115 -42.5q-55 0 -95 28.5t-55 71.5zM751 666l-569 -666h-53l569 666h53z" />
    <glyph glyph-name="uni2156" unicode="&#x2156;" horiz-adv-x="898" 
d="M335 246h-284l9 40q150 114 201.5 166t51.5 98q0 35 -22.5 55t-57.5 20q-59 0 -97 -58l-43 27q56 79 145 79q58 0 94.5 -33.5t36.5 -86.5q0 -59 -52 -114.5t-179 -144.5h208zM517 92l47 19q12 -36 40.5 -53.5t63.5 -17.5q44 0 74 26.5t30 71.5q0 39 -24.5 63.5
t-67.5 24.5q-53 0 -88 -38l-28 21l54 211h239l-10 -48h-194l-35 -127q30 25 80 25q57 0 93 -38t36 -93q0 -62 -45 -104.5t-115 -42.5q-55 0 -95 28.5t-55 71.5zM769 666l-569 -666h-53l569 666h53z" />
    <glyph glyph-name="uni2157" unicode="&#x2157;" horiz-adv-x="893" 
d="M300 365q0 37 -25.5 56.5t-68.5 19.5h-27l9 45h52q34 0 56.5 18t22.5 51q0 35 -25 53t-59 18q-60 0 -97 -45l-36 33q53 59 135 59q60 0 98 -32t38 -81q0 -36 -22.5 -62.5t-58.5 -37.5q25 -12 43.5 -38t18.5 -60q0 -54 -42.5 -89t-108.5 -35q-55 0 -96 25t-61 68l47 25
q31 -70 112 -70q42 0 68.5 21.5t26.5 57.5zM512 92l47 19q12 -36 40.5 -53.5t63.5 -17.5q44 0 74 26.5t30 71.5q0 39 -24.5 63.5t-67.5 24.5q-53 0 -88 -38l-28 21l54 211h239l-10 -48h-194l-35 -127q30 25 80 25q57 0 93 -38t36 -93q0 -62 -45 -104.5t-115 -42.5
q-55 0 -95 28.5t-55 71.5zM764 666l-569 -666h-53l569 666h53z" />
    <glyph glyph-name="uni2158" unicode="&#x2158;" horiz-adv-x="892" 
d="M352 347h-62l-21 -101h-52l22 101h-203l9 44q79 71 124 147.5t48 127.5h53q-1 -50 -50 -134t-115 -139h144l30 136h50l-29 -136h62zM511 92l47 19q12 -36 40.5 -53.5t63.5 -17.5q44 0 74 26.5t30 71.5q0 39 -24.5 63.5t-67.5 24.5q-53 0 -88 -38l-28 21l54 211h239
l-10 -48h-194l-35 -127q30 25 80 25q57 0 93 -38t36 -93q0 -62 -45 -104.5t-115 -42.5q-55 0 -95 28.5t-55 71.5zM763 666l-569 -666h-53l569 666h53z" />
    <glyph glyph-name="uni2159" unicode="&#x2159;" horiz-adv-x="858" 
d="M297 246h-254l9 43h104l66 313q-37 -22 -111 -32l-4 40q94 17 142 56h40l-81 -377h99zM699 420h83q-61 -33 -123.5 -85t-83.5 -97q36 34 89 34q58 0 95.5 -37.5t37.5 -96.5q0 -63 -42.5 -104.5t-111.5 -41.5q-66 0 -106.5 40.5t-40.5 109.5q0 154 203 278zM652 228
q-45 0 -73.5 -26t-28.5 -71q0 -42 25 -66.5t67 -24.5q48 0 74.5 29t26.5 72q0 40 -24.5 63.5t-66.5 23.5zM751 666l-569 -666h-53l569 666h53z" />
    <glyph glyph-name="uni215A" unicode="&#x215a;" horiz-adv-x="865" 
d="M44 338l47 19q12 -36 40.5 -53.5t63.5 -17.5q44 0 74 26.5t30 71.5q0 39 -24.5 63.5t-67.5 24.5q-53 0 -88 -38l-28 21l54 211h239l-10 -48h-194l-35 -127q30 25 80 25q57 0 93 -38t36 -93q0 -62 -45 -104.5t-115 -42.5q-55 0 -95 28.5t-55 71.5zM706 420h83
q-61 -33 -123.5 -85t-83.5 -97q36 34 89 34q58 0 95.5 -37.5t37.5 -96.5q0 -63 -42.5 -104.5t-111.5 -41.5q-66 0 -106.5 40.5t-40.5 109.5q0 154 203 278zM659 228q-45 0 -73.5 -26t-28.5 -71q0 -42 25 -66.5t67 -24.5q48 0 74.5 29t26.5 72q0 40 -24.5 63.5t-66.5 23.5z
M758 666l-569 -666h-53l569 666h53z" />
    <glyph glyph-name="oneeighth" unicode="&#x215b;" horiz-adv-x="922" 
d="M319 246h-254l9 43h104l66 313q-37 -22 -111 -32l-4 40q94 17 142 56h40l-81 -377h99zM765 218q24 -13 42.5 -39t18.5 -63q0 -53 -39.5 -88.5t-108.5 -35.5q-67 0 -110 34t-43 90q0 44 27.5 75t71.5 42q-50 29 -50 86q0 48 37 78t96 30q61 0 99 -31.5t38 -79.5
q0 -36 -21.5 -61t-57.5 -37zM791 312q0 34 -25 51t-59 17q-36 0 -58 -17t-22 -48q0 -33 24.5 -51t60.5 -18q34 0 56.5 17.5t22.5 48.5zM772 120q0 40 -27.5 60.5t-69.5 20.5q-43 0 -69 -21.5t-26 -59.5q0 -39 27 -60t70 -21t69 21t26 60zM773 666l-569 -666h-53l569 666h53z
" />
    <glyph glyph-name="threeeighths" unicode="&#x215c;" horiz-adv-x="922" 
d="M317 365q0 37 -25.5 56.5t-68.5 19.5h-27l9 45h52q34 0 56.5 18t22.5 51q0 35 -25 53t-59 18q-60 0 -97 -45l-36 33q53 59 135 59q60 0 98 -32t38 -81q0 -36 -22.5 -62.5t-58.5 -37.5q25 -12 43.5 -38t18.5 -60q0 -54 -42.5 -89t-108.5 -35q-55 0 -96 25t-61 68l47 25
q31 -70 112 -70q42 0 68.5 21.5t26.5 57.5zM773 218q24 -13 42.5 -39t18.5 -63q0 -53 -39.5 -88.5t-108.5 -35.5q-67 0 -110 34t-43 90q0 44 27.5 75t71.5 42q-50 29 -50 86q0 48 37 78t96 30q61 0 99 -31.5t38 -79.5q0 -36 -21.5 -61t-57.5 -37zM799 312q0 34 -25 51
t-59 17q-36 0 -58 -17t-22 -48q0 -33 24.5 -51t60.5 -18q34 0 56.5 17.5t22.5 48.5zM780 120q0 40 -27.5 60.5t-69.5 20.5q-43 0 -69 -21.5t-26 -59.5q0 -39 27 -60t70 -21t69 21t26 60zM781 666l-569 -666h-53l569 666h53z" />
    <glyph glyph-name="fiveeighths" unicode="&#x215d;" horiz-adv-x="922" 
d="M770 218q24 -13 42.5 -39t18.5 -63q0 -53 -39.5 -88.5t-108.5 -35.5q-67 0 -110 34t-43 90q0 44 27.5 75t71.5 42q-50 29 -50 86q0 48 37 78t96 30q61 0 99 -31.5t38 -79.5q0 -36 -21.5 -61t-57.5 -37zM796 312q0 34 -25 51t-59 17q-36 0 -58 -17t-22 -48q0 -33 24.5 -51
t60.5 -18q34 0 56.5 17.5t22.5 48.5zM777 120q0 40 -27.5 60.5t-69.5 20.5q-43 0 -69 -21.5t-26 -59.5q0 -39 27 -60t70 -21t69 21t26 60zM64 338l47 19q12 -36 40.5 -53.5t63.5 -17.5q44 0 74 26.5t30 71.5q0 39 -24.5 63.5t-67.5 24.5q-53 0 -88 -38l-28 21l54 211h239
l-10 -48h-194l-35 -127q30 25 80 25q57 0 93 -38t36 -93q0 -62 -45 -104.5t-115 -42.5q-55 0 -95 28.5t-55 71.5zM778 666l-569 -666h-53l569 666h53z" />
    <glyph glyph-name="seveneighths" unicode="&#x215e;" horiz-adv-x="922" 
d="M737 218q24 -13 42.5 -39t18.5 -63q0 -53 -39.5 -88.5t-108.5 -35.5q-67 0 -110 34t-43 90q0 44 27.5 75t71.5 42q-50 29 -50 86q0 48 37 78t96 30q61 0 99 -31.5t38 -79.5q0 -36 -21.5 -61t-57.5 -37zM763 312q0 34 -25 51t-59 17q-36 0 -58 -17t-22 -48q0 -33 24.5 -51
t60.5 -18q34 0 56.5 17.5t22.5 48.5zM744 120q0 40 -27.5 60.5t-69.5 20.5q-43 0 -69 -21.5t-26 -59.5q0 -39 27 -60t70 -21t69 21t26 60zM451 666l-9 -45q-66 -61 -135.5 -167t-88.5 -208h-57q20 97 84.5 200t132.5 172h-234l10 48h297zM745 666l-569 -666h-53l569 666h53z
" />
    <glyph glyph-name="arrowleft" unicode="&#x2190;" horiz-adv-x="918" 
d="M424 7l-326 326l326 326l40 -40l-257 -258h620v-56h-620l257 -258z" />
    <glyph glyph-name="arrowup" unicode="&#x2191;" horiz-adv-x="918" 
d="M123 383l346 346l346 -346l-40 -40l-278 277v-620h-56v620l-278 -277z" />
    <glyph glyph-name="arrowright" unicode="&#x2192;" horiz-adv-x="918" 
d="M840 333l-326 -326l-40 40l257 258h-620v56h620l-257 258l40 40z" />
    <glyph glyph-name="arrowdown" unicode="&#x2193;" horiz-adv-x="918" 
d="M469 -15l-346 346l40 40l278 -277v620h56v-620l278 277l40 -40z" />
    <glyph glyph-name="uni2196" unicode="&#x2196;" horiz-adv-x="918" 
d="M692 600v-56h-394l440 -439l-40 -40l-440 439v-394h-56v490h490z" />
    <glyph glyph-name="uni2197" unicode="&#x2197;" horiz-adv-x="918" 
d="M246 544v56h490v-490h-56v394l-440 -439l-40 40l440 439h-394z" />
    <glyph glyph-name="uni2198" unicode="&#x2198;" horiz-adv-x="918" 
d="M246 67v56h394l-440 439l40 40l440 -439v394h56v-490h-490z" />
    <glyph glyph-name="uni2199" unicode="&#x2199;" horiz-adv-x="918" 
d="M692 123v-56h-490v490h56v-394l440 439l40 -40l-440 -439h394z" />
    <glyph glyph-name="partialdiff" unicode="&#x2202;" horiz-adv-x="601" 
d="M295 492q54 0 101.5 -22t71.5 -57q-25 81 -82.5 153.5t-129.5 106.5l34 52q116 -67 184 -178.5t68 -247.5q0 -148 -77.5 -229.5t-192.5 -81.5q-105 0 -167 67.5t-62 168.5q0 112 73.5 190t178.5 78zM473 258q0 75 -42.5 124.5t-125.5 49.5q-93 0 -144.5 -62t-51.5 -149
q0 -75 41 -123.5t122 -48.5q92 0 146.5 61t54.5 148z" />
    <glyph glyph-name="product" unicode="&#x220f;" horiz-adv-x="626" 
d="M640 607h-69l-129 -607h-58l129 607h-262l-129 -607h-58l129 607h-69l13 59h515z" />
    <glyph glyph-name="summation" unicode="&#x2211;" horiz-adv-x="576" 
d="M466 59l-13 -59h-463l5 24l370 319l-239 299l6 24h463l-13 -59h-349l213 -274l-321 -274h341z" />
    <glyph glyph-name="minus" unicode="&#x2212;" 
d="M507 276h-451l12 56h451z" />
    <glyph glyph-name="asteriskmath" unicode="&#x2217;" horiz-adv-x="630" 
d="M296 202q13 49 14 106q-52 -34 -84 -66q-9 -9 -26 -27.5t-28 -29t-21 -15.5q-13 -7 -27 -7q-29 0 -46 27q-8 14 -8 29q0 29 27 45q11 6 25.5 10.5t38 9.5t36.5 9q44 12 99 40q-50 26 -99 40q-13 4 -36 9t-38 9.5t-26 10.5q-27 15 -27 45q0 15 8 29q17 27 46 27
q14 0 27 -7q10 -5 20 -15t27.5 -28.5t27.5 -28.5q36 -36 84 -66q-1 56 -14 106q-3 12 -10.5 34.5t-11 38t-3.5 27.5q0 24 15 39t39 15t39 -15t15 -39q0 -12 -3.5 -27.5t-11 -38t-10.5 -34.5q-12 -46 -15 -106q48 29 85 66q9 9 26 27.5t28 28.5t21 16q13 7 27 7q29 0 46 -27
q8 -14 8 -29q0 -30 -27 -45q-11 -6 -26.5 -11t-39 -10t-34.5 -8q-47 -13 -100 -40q57 -29 100 -40q15 -4 40 -9.5t37.5 -9.5t22.5 -10q27 -16 27 -45q0 -15 -8 -29q-17 -27 -46 -27q-14 0 -27 7q-10 5 -20 15t-27.5 28.5t-27.5 28.5q-33 33 -85 66q3 -58 15 -106
q4 -15 11 -37.5t10.5 -36t3.5 -25.5q0 -25 -15 -40t-39 -15t-39 15t-15 40q0 12 3.5 25.5t10.5 36t11 37.5z" />
    <glyph glyph-name="radical" unicode="&#x221a;" horiz-adv-x="585" 
d="M635 746l47 -32l-529 -768h-12l-118 393l57 19l89 -290z" />
    <glyph glyph-name="infinity" unicode="&#x221e;" horiz-adv-x="811" 
d="M746 275q0 -66 -46.5 -112.5t-112.5 -46.5q-65 0 -110 45l-75 75l-75 -75q-45 -45 -110 -45q-66 0 -112.5 46.5t-46.5 112.5t46.5 112.5t112.5 46.5q65 0 110 -45l75 -75l75 75q45 45 110 45q66 0 112.5 -46.5t46.5 -112.5zM689 275q0 42 -30 72t-72 30q-43 0 -74 -31
l-72 -71l72 -71q31 -31 74 -31q42 0 72 30t30 72zM363 275l-72 71q-31 31 -74 31q-42 0 -72 -30t-30 -72t30 -72t72 -30q43 0 74 31z" />
    <glyph glyph-name="integral" unicode="&#x222b;" horiz-adv-x="313" 
d="M130 298q30 269 39 312q12 57 42 86t74 29q49 0 81 -39l-41 -38q-13 24 -44 24q-40 0 -54 -65q-6 -30 -38 -305q-28 -257 -39 -312q-12 -57 -42 -86t-74 -29q-49 0 -81 39l41 38q14 -24 44 -24q39 0 54 65q8 34 38 305z" />
    <glyph glyph-name="approxequal" unicode="&#x2248;" 
d="M45 164l-24 25q80 87 150 87q35 0 106 -34t107 -34q56 0 112 51l24 -26q-79 -86 -149 -86q-36 0 -107 34t-106 34q-52 0 -113 -51zM85 350l-24 27q80 85 149 85q36 0 107 -34t106 -34q54 0 113 51l24 -25q-82 -87 -150 -87q-35 0 -106 34t-107 34q-53 0 -112 -51z" />
    <glyph glyph-name="notequal" unicode="&#x2260;" 
d="M522 170h-271l-97 -180h-47l97 180h-202l12 59h221l52 95h-252l13 60h271l97 180h47l-96 -180h201l-13 -60h-222l-51 -95h253z" />
    <glyph glyph-name="lessequal" unicode="&#x2264;" 
d="M455 0h-451l12 56h451zM522 618l28 -48l-363 -207l275 -205l-34 -44l-338 255z" />
    <glyph glyph-name="greaterequal" unicode="&#x2265;" 
d="M455 0h-451l12 56h451zM92 114l-28 48l363 207l-275 205l34 44l338 -255z" />
    <glyph glyph-name="uni229B" unicode="&#x229b;" horiz-adv-x="918" 
d="M888 333q0 -173 -123 -296t-296 -123t-296 123t-123 296t123 296t296 123t296 -123t123 -296zM838 333q0 152 -108.5 260.5t-260.5 108.5t-260.5 -108.5t-108.5 -260.5t108.5 -260.5t260.5 -108.5t260.5 108.5t108.5 260.5zM440 202q13 49 14 106q-52 -34 -84 -66
q-9 -9 -26 -27.5t-28 -29t-21 -15.5q-13 -7 -27 -7q-29 0 -46 27q-8 14 -8 29q0 29 27 45q11 6 25.5 10.5t38 9.5t36.5 9q44 12 99 40q-50 26 -99 40q-13 4 -36 9t-38 9.5t-26 10.5q-27 15 -27 45q0 15 8 29q17 27 46 27q14 0 27 -7q10 -5 20 -15t27.5 -28.5t27.5 -28.5
q36 -36 84 -66q-1 56 -14 106q-3 12 -10.5 34.5t-11 38t-3.5 27.5q0 24 15 39t39 15t39 -15t15 -39q0 -12 -3.5 -27.5t-11 -38t-10.5 -34.5q-12 -46 -15 -106q48 29 85 66q9 9 26 27.5t28 28.5t21 16q13 7 27 7q29 0 46 -27q8 -14 8 -29q0 -30 -27 -45q-11 -6 -26.5 -11
t-39 -10t-34.5 -8q-47 -13 -100 -40q57 -29 100 -40q15 -4 40 -9.5t37.5 -9.5t22.5 -10q27 -16 27 -45q0 -15 -8 -29q-17 -27 -46 -27q-14 0 -27 7q-10 5 -20 15t-27.5 28.5t-27.5 28.5q-33 33 -85 66q3 -58 15 -106q4 -15 11 -37.5t10.5 -36t3.5 -25.5q0 -25 -15 -40
t-39 -15t-39 15t-15 40q0 12 3.5 25.5t10.5 36t11 37.5z" />
    <glyph glyph-name="filledbox" unicode="&#x25a0;" horiz-adv-x="766" 
d="M60 666h666v-666h-666v666z" />
    <glyph glyph-name="H22073" unicode="&#x25a1;" horiz-adv-x="766" 
d="M60 666h666v-666h-666v666zM676 616h-566v-566h566v566z" />
    <glyph glyph-name="triagup" unicode="&#x25b2;" horiz-adv-x="532" 
d="M276 720l234 -720h-468z" />
    <glyph glyph-name="uni25B6" unicode="&#x25b6;" horiz-adv-x="469" 
d="M80 -20v706l353 -353z" />
    <glyph glyph-name="uni25B7" unicode="&#x25b7;" horiz-adv-x="469" 
d="M80 -20v706l353 -353zM124 580v-494l247 247z" />
    <glyph glyph-name="triagrt" unicode="&#x25ba;" horiz-adv-x="830" 
d="M800 333l-720 -234v468z" />
    <glyph glyph-name="uni25BB" unicode="&#x25bb;" horiz-adv-x="830" 
d="M800 333l-720 -234v468zM120 154l552 179l-552 179v-358z" />
    <glyph glyph-name="triagdn" unicode="&#x25bc;" horiz-adv-x="532" 
d="M276 -54l-234 720h468z" />
    <glyph glyph-name="uni25C0" unicode="&#x25c0;" horiz-adv-x="469" 
d="M409 686v-706l-353 353z" />
    <glyph glyph-name="uni25C1" unicode="&#x25c1;" horiz-adv-x="469" 
d="M409 686v-706l-353 353zM365 86v494l-247 -247z" />
    <glyph glyph-name="triaglf" unicode="&#x25c4;" horiz-adv-x="830" 
d="M50 333l720 234v-468z" />
    <glyph glyph-name="uni25C5" unicode="&#x25c5;" horiz-adv-x="830" 
d="M50 333l720 234v-468zM730 512l-552 -179l552 -179v358z" />
    <glyph glyph-name="lozenge" unicode="&#x25ca;" horiz-adv-x="599" 
d="M558 333l-326 -381h-12l-165 381l327 381h12zM241 49l249 292l-118 275l-249 -292z" />
    <glyph glyph-name="circle" unicode="&#x25cb;" horiz-adv-x="766" 
d="M40 333q0 146 103.5 249.5t249.5 103.5t249.5 -103.5t103.5 -249.5t-103.5 -249.5t-249.5 -103.5t-249.5 103.5t-103.5 249.5zM90 333q0 -125 89 -214t214 -89t214 89t89 214t-89 214t-214 89t-214 -89t-89 -214z" />
    <glyph glyph-name="H18533" unicode="&#x25cf;" horiz-adv-x="766" 
d="M40 333q0 146 103.5 249.5t249.5 103.5t249.5 -103.5t103.5 -249.5t-103.5 -249.5t-249.5 -103.5t-249.5 103.5t-103.5 249.5z" />
    <glyph glyph-name="uni2605" unicode="&#x2605;" horiz-adv-x="846" 
d="M526 434h298l-241 -175l92 -285l-242 175l-242 -175l92 285l-241 175h298l93 284z" />
    <glyph glyph-name="uni2606" unicode="&#x2606;" horiz-adv-x="846" 
d="M526 434h298l-241 -175l92 -285l-242 175l-242 -175l92 285l-241 175h298l93 284zM775 418h-260l-82 251v-500l212 -154l-81 250z" />
    <glyph glyph-name="uni271A" unicode="&#x271a;" horiz-adv-x="766" 
d="M282 0v222h-222v222h222v222h222v-222h222v-222h-222v-222h-222z" />
    <glyph glyph-name="uni2765" unicode="&#x2765;" horiz-adv-x="552" 
d="M349 334v-2q71 0 122 -50t51 -121t-51 -122t-122 -51t-122 51q-6 6 -11.5 12.5t-9.5 12t-10 15.5l-9 15t-10 18.5t-9.5 18t-11 21.5t-11.5 22q-78 154 -135 154v10q57 0 135 154q3 5 11.5 22t11 21.5t9.5 18t10 18.5l9 15t10 15.5t9.5 12t11.5 12.5q51 51 122 51t122 -51
t51 -122t-51 -121t-122 -50z" />
    <glyph glyph-name="uni3008" unicode="&#x3008;" horiz-adv-x="322" 
d="M270 -14l-48 -25l-190 368v8l190 368l48 -25l-179 -347z" />
    <glyph glyph-name="uni3009" unicode="&#x3009;" horiz-adv-x="321" 
d="M70 680l48 25l190 -368v-8l-190 -368l-48 25l179 347z" />
    <glyph glyph-name="uni300A" unicode="&#x300a;" horiz-adv-x="472" 
d="M222 705l48 -25l-179 -347l179 -347l-48 -25l-190 368v8zM372 705l48 -25l-179 -347l179 -347l-48 -25l-190 368v8z" />
    <glyph glyph-name="uni300B" unicode="&#x300b;" horiz-adv-x="471" 
d="M220 680l48 25l190 -368v-8l-190 -368l-48 25l179 347zM70 680l48 25l190 -368v-8l-190 -368l-48 25l179 347z" />
    <glyph glyph-name="commaaccent" unicode="&#xf6c3;" horiz-adv-x="213" 
d="M-66 -196l-21 30q63 57 106 114l65 -17q-21 -34 -64.5 -71.5t-85.5 -55.5z" />
    <glyph glyph-name="s_t" unicode="&#xfb06;" horiz-adv-x="856" 
d="M421 144q0 -66 -54.5 -111t-147.5 -45q-72 0 -128 27.5t-88 76.5l55 34q56 -79 162 -79q60 0 99 24.5t39 67.5q0 34 -26 51.5t-92 43.5q-9 3 -14 5q-71 27 -107.5 58t-36.5 87q0 69 54.5 106t130.5 37q65 0 123 -29q-2 20 -2 33q0 76 60 135t151 59q55 0 87.5 -23.5
t32.5 -68.5q0 -21 -6 -47l-15 -71h171l-12 -57h-171l-65 -309q-6 -32 -6 -44q0 -27 18 -43t51 -16q49 0 81 27l29 -48q-51 -37 -118 -37q-54 0 -89.5 27.5t-35.5 77.5q0 20 8 56l65 309h-89l12 57h90l17 78q4 20 4 31q0 46 -67 46q-71 0 -109.5 -46t-38.5 -105q0 -41 19 -73
l-47 -42q-62 64 -151 64q-49 0 -85 -19t-36 -57q0 -15 7 -28t15.5 -21.5t27.5 -18t30.5 -14.5t35.5 -14q34 -13 47.5 -18.5t41 -20.5t39.5 -28t23 -35.5t11 -49.5z" />
    <glyph glyph-name="u1F4D5" unicode="&#x1f4d5;" horiz-adv-x="876" 
d="M692 374q0 80 -45 127t-124 47q-82 0 -130 -49t-48 -127t47.5 -126.5t134.5 -48.5q91 0 160 63l-63 57q-42 -39 -92 -39q-36 0 -59 19t-25 53h243q1 7 1 24zM314 -8h458q-12 20 -12 44t12 44h-458q-18 0 -31 -13t-13 -31t13 -31t31 -13zM597 410h-148q2 32 22 49t52 17
t51.5 -17t22.5 -49zM355 666h453v-714h-494q-34 0 -59 25t-25 59v505q0 52 36.5 88.5t88.5 36.5zM355 746v-40q-68 0 -116.5 -48.5t-48.5 -116.5h-40q0 85 60 145t145 60zM355 826v-40q-101 0 -173 -72t-72 -173h-40q0 118 83.5 201.5t201.5 83.5z" />
    <glyph glyph-name="u1F4D6" unicode="&#x1f4d6;" horiz-adv-x="918" 
d="M459 76v342q0 40 -65.5 86t-177.5 46v-342q108 0 170.5 -46t62.5 -86h10zM479 418v-342h10q0 40 62.5 86t170.5 46v342q-112 0 -177.5 -46t-65.5 -86zM88 80v506q0 53 37.5 90.5t90.5 37.5h506q53 0 90.5 -37.5t37.5 -90.5v-506q0 -53 -37.5 -90.5t-90.5 -37.5h-506
q-53 0 -90.5 37.5t-37.5 90.5z" />
    <glyph glyph-name="u1F50C" unicode="&#x1f50c;" horiz-adv-x="918" 
d="M469 633q-30 0 -57 -6v-116h-169v-117h169v-122h-169v-117h169v-117q30 -5 57 -5q108 0 190.5 67.5t103.5 171.5h120q-22 -152 -139.5 -255t-274.5 -103q-173 0 -296 123t-123 296t123 296t296 123q157 0 274.5 -103t139.5 -255h-120q-21 103 -103.5 171t-190.5 68z" />
    <glyph glyph-name="u1F697" unicode="&#x1f697;" horiz-adv-x="1272" 
d="M178 78q-118 0 -118 180q0 142 66.5 250t176 162.5t242.5 54.5q152 0 258 -74t147 -211q132 -15 212 -74t80 -157q0 -58 -28 -94.5t-75 -36.5h-15q-13 -42 -47.5 -68t-79.5 -26q-44 0 -79 26t-48 68h-438q-13 -42 -47.5 -68t-79.5 -26q-44 0 -79 26t-48 68zM414 412h262
q93 0 134 10.5t41 41.5q0 17 -10 35q-37 72 -119.5 114t-176.5 42t-176.5 -42t-119.5 -114q-10 -18 -10 -35q0 -31 41 -41.5t134 -10.5z" />
    <glyph glyph-name="u1F698" unicode="&#x1f698;" horiz-adv-x="962" 
d="M321 78v-31q0 -34 -20.5 -46.5t-64.5 -12.5t-64 12.5t-20 46.5v31q-43 31 -63.5 74.5t-20.5 129.5q0 209 117.5 326t305.5 117t305.5 -117t117.5 -326q0 -86 -20.5 -129.5t-63.5 -74.5v-31q0 -34 -20 -46.5t-64 -12.5t-64.5 12.5t-20.5 46.5v31h-340zM360 412h262
q93 0 134 10.5t41 41.5q0 17 -10 35q-37 72 -119.5 114t-176.5 42t-176.5 -42t-119.5 -114q-10 -18 -10 -35q0 -31 41 -41.5t134 -10.5zM818 264q0 30 -21 51t-51 21t-51 -21t-21 -51t21 -51t51 -21t51 21t21 51zM164 264q0 -30 21 -51t51 -21t51 21t21 51t-21 51t-51 21
t-51 -21t-21 -51z" />
    <glyph glyph-name="J.alt1" horiz-adv-x="463" 
d="M452 666l-100 -474q-43 -204 -211 -204q-119 0 -165 91l58 40q34 -66 111 -66q34 0 59 13t41 36.5t25 47.5t16 56l83 396h-197l14 64h266z" />
    <glyph glyph-name="Q.alt1" horiz-adv-x="748" 
d="M702 367q0 -96 -38 -177t-106 -132q21 -36 70 -81l-53 -44q-42 38 -72 90q-68 -35 -151 -35q-132 0 -209.5 87t-77.5 224q0 159 99.5 269t250.5 110q132 0 209.5 -87t77.5 -224zM629 370q0 111 -56 177t-158 66q-121 0 -199 -90.5t-78 -225.5q0 -112 56 -178t158 -66
q121 0 199 90.5t78 226.5z" />
    <glyph glyph-name="a.alt1" horiz-adv-x="647" 
d="M475 293q0 77 -41 125.5t-118 48.5q-94 0 -149 -70t-55 -169q0 -79 38 -129.5t114 -50.5q94 0 152.5 75t58.5 170zM587 515l-86 -400q-5 -25 -5 -33q0 -34 40 -34q22 0 42 13l14 -56q-24 -14 -65 -14q-40 0 -65 19.5t-25 55.5q0 8 1 13q-33 -43 -80.5 -67t-98.5 -24
q-98 0 -156 67t-58 172q0 123 76.5 211.5t188.5 88.5q61 0 112 -30.5t79 -95.5l24 114h62z" />
    <glyph glyph-name="l.alt1" horiz-adv-x="263" 
d="M49 115l127 599h62l-127 -599q-5 -25 -5 -33q0 -34 40 -34q22 0 42 13l14 -56q-24 -14 -65 -14t-67.5 20.5t-26.5 62.5q0 16 6 41z" />
    <glyph glyph-name="y.alt1" horiz-adv-x="587" 
d="M390 52l13 62q-33 -44 -82.5 -67.5t-104.5 -23.5q-74 0 -114.5 42.5t-40.5 109.5q0 23 7 56l60 284h62l-59 -279q-7 -32 -7 -52q0 -48 28 -74.5t80 -26.5q72 0 129.5 52t74.5 132l53 248h61l-100 -471q-49 -228 -256 -228q-121 0 -191 67l47 52q25 -28 64.5 -43.5
t80.5 -15.5q157 0 195 176z" />
    <glyph glyph-name="a.sc" horiz-adv-x="561" 
d="M485 0h-67l-31 162h-255l-99 -162h-72l340 547h73zM377 219l-48 267l-163 -267h211z" />
    <glyph glyph-name="b.sc" horiz-adv-x="577" 
d="M107 58h195q56 0 91 28.5t35 76.5t-34.5 73.5t-91.5 25.5h-152zM351 489h-153l-36 -171h184q47 0 77.5 22.5t30.5 66.5q0 40 -28.5 61t-74.5 21zM299 0h-267l116 547h205q77 0 122 -38.5t45 -96.5q0 -48 -29 -81.5t-75 -46.5q32 -14 55.5 -48t23.5 -78q0 -69 -55 -113.5
t-141 -44.5z" />
    <glyph glyph-name="c.sc" horiz-adv-x="578" 
d="M557 443l-54 -37q-52 94 -157 94q-100 0 -163.5 -73t-63.5 -180q0 -89 47 -144.5t127 -55.5q99 0 160 82l49 -36q-84 -105 -209 -105q-109 0 -175 73.5t-66 185.5q0 130 85 221t212 91q71 0 124.5 -31t83.5 -85z" />
    <glyph glyph-name="d.sc" horiz-adv-x="627" 
d="M108 59h168q105 0 165 69.5t60 173.5q0 88 -45 137.5t-136 49.5h-121zM270 0h-238l115 547h175q118 0 182.5 -68t64.5 -174q0 -129 -81 -217t-218 -88z" />
    <glyph glyph-name="e.sc" horiz-adv-x="538" 
d="M421 0h-389l115 547h390l-13 -58h-325l-37 -171h277l-12 -56h-276l-43 -203h326z" />
    <glyph glyph-name="f.sc" horiz-adv-x="522" 
d="M524 489h-325l-36 -171h275l-12 -58h-275l-54 -260h-65l115 547h389z" />
    <glyph glyph-name="g.sc" horiz-adv-x="628" 
d="M348 500q-101 0 -164.5 -72.5t-63.5 -178.5q0 -91 48.5 -146.5t132.5 -55.5q82 0 137 51t62 121h-173l11 57h226q4 -14 4 -35q0 -57 -31 -114t-95 -98t-145 -41q-112 0 -178 74t-66 187q0 130 84.5 220t211.5 90q143 0 209 -114l-56 -33q-49 88 -154 88z" />
    <glyph glyph-name="h.sc" horiz-adv-x="628" 
d="M474 0h-63l56 261h-317l-54 -261h-64l115 547h63l-48 -228h316l49 228h63z" />
    <glyph glyph-name="i.sc" horiz-adv-x="249" 
d="M96 0h-64l115 547h63z" />
    <glyph glyph-name="j.sc" horiz-adv-x="405" 
d="M374 547l-81 -388q-35 -170 -179 -170q-103 0 -144 80l53 35q29 -56 94 -56q89 0 115 123l78 376h64z" />
    <glyph glyph-name="jsc.alt1" horiz-adv-x="410" 
d="M379 547l-81 -388q-35 -170 -179 -170q-103 0 -144 80l53 35q29 -56 94 -56q89 0 115 123l66 318h-165l14 58h227z" />
    <glyph glyph-name="k.sc" horiz-adv-x="548" 
d="M474 0h-71l-148 271l-126 -113l-33 -158h-64l115 547h63l-63 -301l339 301h82l-265 -236z" />
    <glyph glyph-name="l.sc" horiz-adv-x="485" 
d="M406 0h-374l115 547h63l-103 -488h311z" />
    <glyph glyph-name="m.sc" horiz-adv-x="748" 
d="M595 0h-63l102 482l-292 -482h-57l-89 484l-102 -484h-62l115 547h94l86 -469l286 469h97z" />
    <glyph glyph-name="n.sc" horiz-adv-x="629" 
d="M476 0h-71l-213 471l-99 -471h-61l115 547h76l210 -459l98 459h59z" />
    <glyph glyph-name="o.sc" horiz-adv-x="649" 
d="M591 298q0 -129 -83.5 -219.5t-209.5 -90.5q-112 0 -178.5 74t-66.5 187q0 129 83.5 219.5t209.5 90.5q112 0 178.5 -73.5t66.5 -187.5zM523 301q0 91 -46.5 145t-130.5 54q-98 0 -161.5 -73t-63.5 -180q0 -91 46.5 -145t130.5 -54q98 0 161.5 73t63.5 180z" />
    <glyph glyph-name="p.sc" horiz-adv-x="548" 
d="M153 275h172q69 0 103 33t34 85q0 96 -119 96h-144zM317 217h-176l-45 -217h-64l115 547h202q88 0 134.5 -40.5t46.5 -111.5q0 -77 -55 -127.5t-158 -50.5z" />
    <glyph glyph-name="q.sc" horiz-adv-x="649" 
d="M591 298q0 -77 -31.5 -143t-87.5 -109l49 -70l-47 -33l-51 73q-61 -28 -125 -28q-112 0 -178.5 74t-66.5 187q0 129 83.5 219.5t209.5 90.5q112 0 178.5 -73.5t66.5 -187.5zM523 301q0 91 -46.5 145t-130.5 54q-98 0 -161.5 -73t-63.5 -180q0 -91 46.5 -145t130.5 -54
q51 0 90 19l-50 75l48 33l51 -77q86 73 86 203z" />
    <glyph glyph-name="qsc.alt1" horiz-adv-x="654" 
d="M591 298q0 -76 -31 -142t-86 -109q20 -30 58 -63l-47 -41q-34 31 -62 73q-61 -28 -125 -28q-112 0 -178.5 74t-66.5 187q0 129 83.5 219.5t209.5 90.5q112 0 178.5 -73.5t66.5 -187.5zM523 301q0 91 -46.5 145t-130.5 54q-98 0 -161.5 -73t-63.5 -180q0 -91 46.5 -145
t130.5 -54q98 0 161.5 73t63.5 180z" />
    <glyph glyph-name="r.sc" horiz-adv-x="577" 
d="M147 547h224q74 0 118 -40t44 -107q0 -61 -42.5 -105.5t-116.5 -58.5l105 -236h-68l-100 228h-168l-47 -228h-64zM361 489h-162l-43 -202h173q61 0 98.5 31t37.5 78q0 43 -27 68t-77 25z" />
    <glyph glyph-name="s.sc" horiz-adv-x="506" 
d="M151 417q0 -34 25 -53.5t87 -47.5q43 -19 67.5 -32t51 -33t38 -44.5t11.5 -55.5q1 -71 -56 -117t-147 -46q-74 0 -133 32t-85 83l58 32q24 -44 70 -66.5t97 -22.5q57 0 94 27.5t37 73.5q0 35 -26.5 55.5t-105.5 54.5q-78 34 -112 66t-35 86q-1 70 53 110t131 40
q65 0 116 -28t78 -72l-53 -35q-50 78 -145 78q-49 0 -82.5 -22.5t-33.5 -62.5z" />
    <glyph glyph-name="t.sc" horiz-adv-x="499" 
d="M515 489h-192l-102 -489h-63l103 489h-191l12 58h445z" />
    <glyph glyph-name="u.sc" horiz-adv-x="611" 
d="M581 547l-74 -351q-21 -98 -87 -153t-159 -55q-89 0 -144 47t-55 122q0 25 8 63l69 327h63l-71 -335q-5 -22 -5 -45q0 -54 36 -86.5t100 -32.5q73 0 121 42t63 115l73 342h62z" />
    <glyph glyph-name="v.sc" horiz-adv-x="528" 
d="M492 547h68l-323 -547h-73l-93 547h66l75 -479z" />
    <glyph glyph-name="w.sc" horiz-adv-x="805" 
d="M822 547l-268 -547h-75l-36 470l-235 -470h-77l-35 547h61l26 -477l239 477h69l36 -477l225 477h70z" />
    <glyph glyph-name="x.sc" horiz-adv-x="550" 
d="M470 0h-72l-129 234l-226 -234h-82l276 288l-147 259h74l118 -215l203 215h84l-256 -265z" />
    <glyph glyph-name="y.sc" horiz-adv-x="505" 
d="M546 547l-278 -324l-47 -223h-65l47 224l-141 323h70l114 -262l222 262h78z" />
    <glyph glyph-name="z.sc" horiz-adv-x="509" 
d="M400 0h-416l12 58l416 431h-312l12 58h398l-13 -57l-417 -431h334z" />
    <glyph glyph-name="aacute.alt1" horiz-adv-x="647" 
d="M475 293q0 77 -41 125.5t-118 48.5q-94 0 -149 -70t-55 -169q0 -79 38 -129.5t114 -50.5q94 0 152.5 75t58.5 170zM587 515l-86 -400q-5 -25 -5 -33q0 -34 40 -34q22 0 42 13l14 -56q-24 -14 -65 -14q-40 0 -65 19.5t-25 55.5q0 8 1 13q-33 -43 -80.5 -67t-98.5 -24
q-98 0 -156 67t-58 172q0 123 76.5 211.5t188.5 88.5q61 0 112 -30.5t79 -95.5l24 114h62zM312 579l-21 30q61 56 107 116l63 -28q-18 -31 -60 -64t-89 -54z" />
    <glyph glyph-name="aacute.sc" horiz-adv-x="561" 
d="M485 0h-67l-31 162h-255l-99 -162h-72l340 547h73zM377 219l-48 267l-163 -267h211zM330 579l-21 30q61 56 107 116l63 -28q-18 -31 -60 -64t-89 -54z" />
    <glyph glyph-name="abreve.alt1" horiz-adv-x="647" 
d="M475 293q0 77 -41 125.5t-118 48.5q-94 0 -149 -70t-55 -169q0 -79 38 -129.5t114 -50.5q94 0 152.5 75t58.5 170zM587 515l-86 -400q-5 -25 -5 -33q0 -34 40 -34q22 0 42 13l14 -56q-24 -14 -65 -14q-40 0 -65 19.5t-25 55.5q0 8 1 13q-33 -43 -80.5 -67t-98.5 -24
q-98 0 -156 67t-58 172q0 123 76.5 211.5t188.5 88.5q61 0 112 -30.5t79 -95.5l24 114h62zM336 595q-56 0 -93 27.5t-37 77.5q0 2 0.5 6t0.5 6l44 9q2 -30 24.5 -50.5t61.5 -20.5q45 0 77 20t46 52l42 -17q-15 -48 -59.5 -79t-106.5 -31z" />
    <glyph glyph-name="abreve.sc" horiz-adv-x="561" 
d="M485 0h-67l-31 162h-255l-99 -162h-72l340 547h73zM377 219l-48 267l-163 -267h211zM351 595q-56 0 -93 27.5t-37 77.5q0 2 0.5 6t0.5 6l44 9q2 -30 24.5 -50.5t61.5 -20.5q45 0 77 20t46 52l42 -17q-15 -48 -59.5 -79t-106.5 -31z" />
    <glyph glyph-name="acircumflex.alt1" horiz-adv-x="647" 
d="M475 293q0 77 -41 125.5t-118 48.5q-94 0 -149 -70t-55 -169q0 -79 38 -129.5t114 -50.5q94 0 152.5 75t58.5 170zM587 515l-86 -400q-5 -25 -5 -33q0 -34 40 -34q22 0 42 13l14 -56q-24 -14 -65 -14q-40 0 -65 19.5t-25 55.5q0 8 1 13q-33 -43 -80.5 -67t-98.5 -24
q-98 0 -156 67t-58 172q0 123 76.5 211.5t188.5 88.5q61 0 112 -30.5t79 -95.5l24 114h62zM352 725h54q45 -64 104 -105l-25 -34q-69 29 -114 82q-20 -20 -62 -44t-84 -38l-19 37q73 43 146 102z" />
    <glyph glyph-name="acircumflex.sc" horiz-adv-x="561" 
d="M485 0h-67l-31 162h-255l-99 -162h-72l340 547h73zM377 219l-48 267l-163 -267h211zM335 725h54q45 -64 104 -105l-25 -34q-69 29 -114 82q-20 -20 -62 -44t-84 -38l-19 37q73 43 146 102z" />
    <glyph glyph-name="adieresis.alt1" horiz-adv-x="647" 
d="M475 293q0 77 -41 125.5t-118 48.5q-94 0 -149 -70t-55 -169q0 -79 38 -129.5t114 -50.5q94 0 152.5 75t58.5 170zM587 515l-86 -400q-5 -25 -5 -33q0 -34 40 -34q22 0 42 13l14 -56q-24 -14 -65 -14q-40 0 -65 19.5t-25 55.5q0 8 1 13q-33 -43 -80.5 -67t-98.5 -24
q-98 0 -156 67t-58 172q0 123 76.5 211.5t188.5 88.5q61 0 112 -30.5t79 -95.5l24 114h62zM271 600h-63l15 66h63zM470 600h-63l15 66h63z" />
    <glyph glyph-name="adieresis.sc" horiz-adv-x="561" 
d="M485 0h-67l-31 162h-255l-99 -162h-72l340 547h73zM377 219l-48 267l-163 -267h211zM274 600h-63l15 66h63zM473 600h-63l15 66h63z" />
    <glyph glyph-name="AE.alt1" horiz-adv-x="869" 
d="M12 0h-79l479 666h482l-14 -64h-328l-46 -217h270l-13 -63h-270l-55 -258h328l-14 -64h-397l67 317q-197 -19 -343 -223zM444 601l-213 -297q80 63 205 77l47 220h-39z" />
    <glyph glyph-name="ae.alt1" horiz-adv-x="997" 
d="M742 527q94 0 151 -64t57 -155q0 -38 -9 -65h-408q-1 -9 -1 -25q0 -75 47.5 -122t124.5 -47q94 0 153 70l43 -43q-83 -88 -199 -88q-79 0 -135 36.5t-78 97.5q-37 -60 -95.5 -97t-131.5 -37q-100 0 -158 67t-58 172q0 123 76.5 211.5t188.5 88.5q61 0 112 -30.5t79 -95.5
l24 114h62l-16 -72q69 84 171 84zM475 293q0 77 -41 125.5t-118 48.5q-94 0 -149 -70t-55 -169q0 -79 38 -129.5t114 -50.5q94 0 152.5 75t58.5 170zM542 297h342q1 6 1 14q0 72 -42.5 114.5t-109.5 42.5q-72 0 -124 -48t-67 -123z" />
    <glyph glyph-name="ae.sc" horiz-adv-x="775" 
d="M658 0h-343l35 164h-208l-121 -164h-71l409 547h416l-13 -57h-281l-36 -172h231l-12 -57h-232l-43 -204h282zM362 222l57 267h-33l-200 -267h176z" />
    <glyph glyph-name="aesc.alt1" horiz-adv-x="774" 
d="M315 0l54 256q-175 -21 -280 -162l-69 -94h-70l409 547h415l-12 -57h-281l-37 -172h232l-12 -57h-232l-43 -204h281l-12 -57h-343zM385 489l-178 -239q58 47 175 63l37 176h-34z" />
    <glyph glyph-name="AEacute.alt1" horiz-adv-x="869" 
d="M12 0h-79l479 666h482l-14 -64h-328l-46 -217h270l-13 -63h-270l-55 -258h328l-14 -64h-397l67 317q-197 -19 -343 -223zM444 601l-213 -297q80 63 205 77l47 220h-39zM537 705l-21 30q61 56 107 116l63 -28q-18 -31 -60 -64t-89 -54z" />
    <glyph glyph-name="aeacute.alt1" horiz-adv-x="997" 
d="M742 527q94 0 151 -64t57 -155q0 -38 -9 -65h-408q-1 -9 -1 -25q0 -75 47.5 -122t124.5 -47q94 0 153 70l43 -43q-83 -88 -199 -88q-79 0 -135 36.5t-78 97.5q-37 -60 -95.5 -97t-131.5 -37q-100 0 -158 67t-58 172q0 123 76.5 211.5t188.5 88.5q61 0 112 -30.5t79 -95.5
l24 114h62l-16 -72q69 84 171 84zM475 293q0 77 -41 125.5t-118 48.5q-94 0 -149 -70t-55 -169q0 -79 38 -129.5t114 -50.5q94 0 152.5 75t58.5 170zM542 297h342q1 6 1 14q0 72 -42.5 114.5t-109.5 42.5q-72 0 -124 -48t-67 -123zM549 579l-21 30q61 56 107 116l63 -28
q-18 -31 -60 -64t-89 -54z" />
    <glyph glyph-name="aeacute.sc" horiz-adv-x="775" 
d="M658 0h-343l35 164h-208l-121 -164h-71l409 547h416l-13 -57h-281l-36 -172h231l-12 -57h-232l-43 -204h282zM362 222l57 267h-33l-200 -267h176zM452 579l-21 30q61 56 107 116l63 -28q-18 -31 -60 -64t-89 -54z" />
    <glyph glyph-name="aeacutesc.alt1" horiz-adv-x="774" 
d="M315 0l54 256q-175 -21 -280 -162l-69 -94h-70l409 547h415l-12 -57h-281l-37 -172h232l-12 -57h-232l-43 -204h281l-12 -57h-343zM385 489l-178 -239q58 47 175 63l37 176h-34zM452 579l-21 30q61 56 107 116l63 -28q-18 -31 -60 -64t-89 -54z" />
    <glyph glyph-name="agrave.alt1" horiz-adv-x="647" 
d="M475 293q0 77 -41 125.5t-118 48.5q-94 0 -149 -70t-55 -169q0 -79 38 -129.5t114 -50.5q94 0 152.5 75t58.5 170zM587 515l-86 -400q-5 -25 -5 -33q0 -34 40 -34q22 0 42 13l14 -56q-24 -14 -65 -14q-40 0 -65 19.5t-25 55.5q0 8 1 13q-33 -43 -80.5 -67t-98.5 -24
q-98 0 -156 67t-58 172q0 123 76.5 211.5t188.5 88.5q61 0 112 -30.5t79 -95.5l24 114h62zM386 609l-27 -29q-42 26 -80 64t-52 70l69 11q35 -61 90 -116z" />
    <glyph glyph-name="agrave.sc" horiz-adv-x="561" 
d="M387 609l-27 -29q-42 26 -80 64t-52 70l69 11q35 -61 90 -116zM485 0h-67l-31 162h-255l-99 -162h-72l340 547h73zM377 219l-48 267l-163 -267h211z" />
    <glyph glyph-name="amacron.alt1" horiz-adv-x="647" 
d="M475 293q0 77 -41 125.5t-118 48.5q-94 0 -149 -70t-55 -169q0 -79 38 -129.5t114 -50.5q94 0 152.5 75t58.5 170zM587 515l-86 -400q-5 -25 -5 -33q0 -34 40 -34q22 0 42 13l14 -56q-24 -14 -65 -14q-40 0 -65 19.5t-25 55.5q0 8 1 13q-33 -43 -80.5 -67t-98.5 -24
q-98 0 -156 67t-58 172q0 123 76.5 211.5t188.5 88.5q61 0 112 -30.5t79 -95.5l24 114h62zM499 616h-283l11 50h283z" />
    <glyph glyph-name="amacron.sc" horiz-adv-x="561" 
d="M485 0h-67l-31 162h-255l-99 -162h-72l340 547h73zM377 219l-48 267l-163 -267h211zM488 616h-283l11 50h283z" />
    <glyph glyph-name="aogonek.alt1" horiz-adv-x="645" 
d="M476 2q-39 20 -39 64q0 8 1 13q-33 -43 -80.5 -67t-98.5 -24q-98 0 -156 67t-58 172q0 123 76.5 211.5t188.5 88.5q61 0 112 -30.5t79 -95.5l24 114h62l-86 -400q-5 -25 -5 -33q0 -34 40 -34q22 0 42 13l14 -56q-24 -14 -65 -14q-9 0 -14 1q-60 -45 -60 -84
q0 -17 12.5 -27t32.5 -10q27 0 54 22l22 -25q-37 -39 -92 -39q-35 0 -59.5 17t-24.5 50q0 57 78 106zM475 293q0 77 -41 125.5t-118 48.5q-94 0 -149 -70t-55 -169q0 -79 38 -129.5t114 -50.5q94 0 152.5 75t58.5 170z" />
    <glyph glyph-name="aogonek.sc" horiz-adv-x="561" 
d="M374 547l111 -547q-37 -7 -68.5 -34.5t-31.5 -57.5q0 -17 12.5 -27t32.5 -10q27 0 54 22l22 -25q-37 -39 -92 -39q-35 0 -59.5 17.5t-24.5 48.5q0 56 88 105l-31 162h-255l-99 -162h-72l340 547h73zM377 219l-48 267l-163 -267h211z" />
    <glyph glyph-name="aring.alt1" horiz-adv-x="647" 
d="M475 293q0 77 -41 125.5t-118 48.5q-94 0 -149 -70t-55 -169q0 -79 38 -129.5t114 -50.5q94 0 152.5 75t58.5 170zM587 515l-86 -400q-5 -25 -5 -33q0 -34 40 -34q22 0 42 13l14 -56q-24 -14 -65 -14q-40 0 -65 19.5t-25 55.5q0 8 1 13q-33 -43 -80.5 -67t-98.5 -24
q-98 0 -156 67t-58 172q0 123 76.5 211.5t188.5 88.5q61 0 112 -30.5t79 -95.5l24 114h62zM454 681q0 -41 -29 -70.5t-70 -29.5t-70.5 29.5t-29.5 70.5t29.5 71t70.5 30t70 -30t29 -71zM413 681q0 25 -17 42.5t-41 17.5q-25 0 -42 -17.5t-17 -42.5t17 -42t42 -17q24 0 41 17
t17 42z" />
    <glyph glyph-name="aring.sc" horiz-adv-x="561" 
d="M403 606q0 25 -17 42.5t-41 17.5q-25 0 -42 -17.5t-17 -42.5t17 -42t42 -17q24 0 41 17t17 42zM377 219l-48 267l-163 -267h211zM485 0h-67l-31 162h-255l-99 -162h-72l326 524q-42 29 -42 82q0 41 29.5 71t70.5 30t70 -30t29 -71q0 -31 -17.5 -56.5t-45.5 -36.5z" />
    <glyph glyph-name="aringacute.alt1" horiz-adv-x="647" 
d="M475 293q0 77 -41 125.5t-118 48.5q-94 0 -149 -70t-55 -169q0 -79 38 -129.5t114 -50.5q94 0 152.5 75t58.5 170zM587 515l-86 -400q-5 -25 -5 -33q0 -34 40 -34q22 0 42 13l14 -56q-24 -14 -65 -14q-40 0 -65 19.5t-25 55.5q0 8 1 13q-33 -43 -80.5 -67t-98.5 -24
q-98 0 -156 67t-58 172q0 123 76.5 211.5t188.5 88.5q61 0 112 -30.5t79 -95.5l24 114h62zM331 766l-21 30q61 56 107 116l63 -28q-18 -31 -60 -64t-89 -54zM447 647q0 -41 -29 -70.5t-70 -29.5t-70.5 29.5t-29.5 70.5t29.5 71t70.5 30t70 -30t29 -71zM406 647
q0 25 -17 42.5t-41 17.5q-25 0 -42 -17.5t-17 -42.5t17 -42t42 -17q24 0 41 17t17 42z" />
    <glyph glyph-name="aringacute.sc" horiz-adv-x="561" 
d="M332 725l-21 30q61 56 107 116l63 -28q-18 -31 -60 -64t-89 -54zM403 606q0 25 -17 42.5t-41 17.5q-25 0 -42 -17.5t-17 -42.5t17 -42t42 -17q24 0 41 17t17 42zM377 219l-48 267l-163 -267h211zM485 0h-67l-31 162h-255l-99 -162h-72l326 524q-42 29 -42 82
q0 41 29.5 71t70.5 30t70 -30t29 -71q0 -31 -17.5 -56.5t-45.5 -36.5z" />
    <glyph glyph-name="atilde.alt1" horiz-adv-x="647" 
d="M475 293q0 77 -41 125.5t-118 48.5q-94 0 -149 -70t-55 -169q0 -79 38 -129.5t114 -50.5q94 0 152.5 75t58.5 170zM587 515l-86 -400q-5 -25 -5 -33q0 -34 40 -34q22 0 42 13l14 -56q-24 -14 -65 -14q-40 0 -65 19.5t-25 55.5q0 8 1 13q-33 -43 -80.5 -67t-98.5 -24
q-98 0 -156 67t-58 172q0 123 76.5 211.5t188.5 88.5q61 0 112 -30.5t79 -95.5l24 114h62zM480 698l27 -21q-38 -77 -95 -77q-20 0 -67.5 18.5t-66.5 18.5q-34 0 -63 -37l-27 21q38 77 95 77q20 0 67.5 -18.5t66.5 -18.5q34 0 63 37z" />
    <glyph glyph-name="atilde.sc" horiz-adv-x="561" 
d="M484 698l27 -21q-38 -77 -95 -77q-20 0 -67.5 18.5t-66.5 18.5q-34 0 -63 -37l-27 21q38 77 95 77q20 0 67.5 -18.5t66.5 -18.5q34 0 63 37zM485 0h-67l-31 162h-255l-99 -162h-72l340 547h73zM377 219l-48 267l-163 -267h211z" />
    <glyph glyph-name="cacute.sc" horiz-adv-x="578" 
d="M342 579l-21 30q61 56 107 116l63 -28q-18 -31 -60 -64t-89 -54zM557 443l-54 -37q-52 94 -157 94q-100 0 -163.5 -73t-63.5 -180q0 -89 47 -144.5t127 -55.5q99 0 160 82l49 -36q-84 -105 -209 -105q-109 0 -175 73.5t-66 185.5q0 130 85 221t212 91q71 0 124.5 -31
t83.5 -85z" />
    <glyph glyph-name="ccaron.sc" horiz-adv-x="578" 
d="M370 586h-54q-45 64 -104 105l25 34q69 -29 114 -82q20 20 62 44t84 38l19 -37q-73 -43 -146 -102zM557 443l-54 -37q-52 94 -157 94q-100 0 -163.5 -73t-63.5 -180q0 -89 47 -144.5t127 -55.5q99 0 160 82l49 -36q-84 -105 -209 -105q-109 0 -175 73.5t-66 185.5
q0 130 85 221t212 91q71 0 124.5 -31t83.5 -85z" />
    <glyph glyph-name="ccedilla.sc" horiz-adv-x="578" 
d="M94 -106l29 26q28 -35 69 -35q22 0 35.5 14.5t13.5 35.5q0 29 -22 64q-77 22 -121.5 89t-44.5 159q0 130 85 221t212 91q71 0 124.5 -31t83.5 -85l-54 -37q-52 94 -157 94q-100 0 -163.5 -73t-63.5 -180q0 -89 47 -144.5t127 -55.5q99 0 160 82l49 -36
q-84 -105 -209 -105q-11 0 -31 2q30 -35 30 -73q0 -37 -26.5 -58.5t-64.5 -21.5q-66 0 -108 57z" />
    <glyph glyph-name="cdotaccent.sc" horiz-adv-x="578" 
d="M557 443l-54 -37q-52 94 -157 94q-100 0 -163.5 -73t-63.5 -180q0 -89 47 -144.5t127 -55.5q99 0 160 82l49 -36q-84 -105 -209 -105q-109 0 -175 73.5t-66 185.5q0 130 85 221t212 91q71 0 124.5 -31t83.5 -85zM414 600h-63l15 66h63z" />
    <glyph glyph-name="ccircumflex.sc" horiz-adv-x="578" 
d="M557 443l-54 -37q-52 94 -157 94q-100 0 -163.5 -73t-63.5 -180q0 -89 47 -144.5t127 -55.5q99 0 160 82l49 -36q-84 -105 -209 -105q-109 0 -175 73.5t-66 185.5q0 130 85 221t212 91q71 0 124.5 -31t83.5 -85zM370 725h54q45 -64 104 -105l-25 -34q-69 29 -114 82
q-20 -20 -62 -44t-84 -38l-19 37q73 43 146 102z" />
    <glyph glyph-name="dcaron.sc" horiz-adv-x="627" 
d="M366 586h-54q-45 64 -104 105l25 34q69 -29 114 -82q20 20 62 44t84 38l19 -37q-73 -43 -146 -102zM108 59h168q105 0 165 69.5t60 173.5q0 88 -45 137.5t-136 49.5h-121zM270 0h-238l115 547h175q118 0 182.5 -68t64.5 -174q0 -129 -81 -217t-218 -88z" />
    <glyph glyph-name="dcroat.sc" horiz-adv-x="628" 
d="M271 0h-238l51 245h-63l12 58h63l52 244h175q118 0 182.5 -68t64.5 -174q0 -129 -81 -217t-218 -88zM109 59h168q105 0 165 69.5t60 173.5q0 88 -45 137.5t-136 49.5h-121l-40 -186h146l-12 -58h-146z" />
    <glyph glyph-name="eacute.sc" horiz-adv-x="538" 
d="M421 0h-389l115 547h390l-13 -58h-325l-37 -171h277l-12 -56h-276l-43 -203h326zM318 579l-21 30q61 56 107 116l63 -28q-18 -31 -60 -64t-89 -54z" />
    <glyph glyph-name="ebreve.sc" horiz-adv-x="538" 
d="M421 0h-389l115 547h390l-13 -58h-325l-37 -171h277l-12 -56h-276l-43 -203h326zM351 595q-56 0 -93 27.5t-37 77.5q0 2 0.5 6t0.5 6l44 9q2 -30 24.5 -50.5t61.5 -20.5q45 0 77 20t46 52l42 -17q-15 -48 -59.5 -79t-106.5 -31z" />
    <glyph glyph-name="ecaron.sc" horiz-adv-x="538" 
d="M421 0h-389l115 547h390l-13 -58h-325l-37 -171h277l-12 -56h-276l-43 -203h326zM366 586h-54q-45 64 -104 105l25 34q69 -29 114 -82q20 20 62 44t84 38l19 -37q-73 -43 -146 -102z" />
    <glyph glyph-name="ecircumflex.sc" horiz-adv-x="538" 
d="M421 0h-389l115 547h390l-13 -58h-325l-37 -171h277l-12 -56h-276l-43 -203h326zM342 725h54q45 -64 104 -105l-25 -34q-69 29 -114 82q-20 -20 -62 -44t-84 -38l-19 37q73 43 146 102z" />
    <glyph glyph-name="edieresis.sc" horiz-adv-x="538" 
d="M421 0h-389l115 547h390l-13 -58h-325l-37 -171h277l-12 -56h-276l-43 -203h326zM280 600h-63l15 66h63zM479 600h-63l15 66h63z" />
    <glyph glyph-name="edotaccent.sc" horiz-adv-x="538" 
d="M421 0h-389l115 547h390l-13 -58h-325l-37 -171h277l-12 -56h-276l-43 -203h326zM378 600h-63l15 66h63z" />
    <glyph glyph-name="egrave.sc" horiz-adv-x="538" 
d="M421 0h-389l115 547h390l-13 -58h-325l-37 -171h277l-12 -56h-276l-43 -203h326zM394 609l-27 -29q-42 26 -80 64t-52 70l69 11q35 -61 90 -116z" />
    <glyph glyph-name="emacron.sc" horiz-adv-x="538" 
d="M421 0h-389l115 547h390l-13 -58h-325l-37 -171h277l-12 -56h-276l-43 -203h326zM495 616h-283l11 50h283z" />
    <glyph glyph-name="eogonek.sc" horiz-adv-x="538" 
d="M397 -107l22 -25q-37 -39 -92 -39q-35 0 -59.5 17t-24.5 50q0 53 74 104h-285l115 547h390l-13 -58h-325l-37 -171h277l-12 -56h-276l-43 -203h326l-13 -59h-51q-72 -49 -72 -92q0 -17 12.5 -27t32.5 -10q27 0 54 22z" />
    <glyph glyph-name="eth.sc" horiz-adv-x="628" 
d="M271 0h-238l51 245h-63l12 58h63l52 244h175q118 0 182.5 -68t64.5 -174q0 -129 -81 -217t-218 -88zM109 59h168q105 0 165 69.5t60 173.5q0 88 -45 137.5t-136 49.5h-121l-40 -186h146l-12 -58h-146z" />
    <glyph glyph-name="gbreve.sc" horiz-adv-x="628" 
d="M348 500q-101 0 -164.5 -72.5t-63.5 -178.5q0 -91 48.5 -146.5t132.5 -55.5q82 0 137 51t62 121h-173l11 57h226q4 -14 4 -35q0 -57 -31 -114t-95 -98t-145 -41q-112 0 -178 74t-66 187q0 130 84.5 220t211.5 90q143 0 209 -114l-56 -33q-49 88 -154 88zM355 595
q-56 0 -93 27.5t-37 77.5q0 2 0.5 6t0.5 6l44 9q2 -30 24.5 -50.5t61.5 -20.5q45 0 77 20t46 52l42 -17q-15 -48 -59.5 -79t-106.5 -31z" />
    <glyph glyph-name="gcommaaccent.sc" horiz-adv-x="628" 
d="M348 500q-101 0 -164.5 -72.5t-63.5 -178.5q0 -91 48.5 -146.5t132.5 -55.5q82 0 137 51t62 121h-173l11 57h226q4 -14 4 -35q0 -57 -31 -114t-95 -98t-145 -41q-112 0 -178 74t-66 187q0 130 84.5 220t211.5 90q143 0 209 -114l-56 -33q-49 88 -154 88zM147 -196l-21 30
q63 57 106 114l65 -17q-21 -34 -64.5 -71.5t-85.5 -55.5z" />
    <glyph glyph-name="gdotaccent.sc" horiz-adv-x="628" 
d="M348 500q-101 0 -164.5 -72.5t-63.5 -178.5q0 -91 48.5 -146.5t132.5 -55.5q82 0 137 51t62 121h-173l11 57h226q4 -14 4 -35q0 -57 -31 -114t-95 -98t-145 -41q-112 0 -178 74t-66 187q0 130 84.5 220t211.5 90q143 0 209 -114l-56 -33q-49 88 -154 88zM421 600h-63
l15 66h63z" />
    <glyph glyph-name="gcircumflex.sc" horiz-adv-x="628" 
d="M348 500q-101 0 -164.5 -72.5t-63.5 -178.5q0 -91 48.5 -146.5t132.5 -55.5q82 0 137 51t62 121h-173l11 57h226q4 -14 4 -35q0 -57 -31 -114t-95 -98t-145 -41q-112 0 -178 74t-66 187q0 130 84.5 220t211.5 90q143 0 209 -114l-56 -33q-49 88 -154 88zM355 725h54
q45 -64 104 -105l-25 -34q-69 29 -114 82q-20 -20 -62 -44t-84 -38l-19 37q73 43 146 102z" />
    <glyph glyph-name="hbar.sc" horiz-adv-x="625" 
d="M471 0h-62l55 261h-315l-55 -261h-62l90 422h-49l9 44h49l17 81h62l-17 -81h315l17 81h63l-18 -81h49l-9 -44h-49zM161 318h315l22 104h-315z" />
    <glyph glyph-name="hcircumflex.sc" horiz-adv-x="628" 
d="M474 0h-63l56 261h-317l-54 -261h-64l115 547h63l-48 -228h316l49 228h63zM365 725h54q45 -64 104 -105l-25 -34q-69 29 -114 82q-20 -20 -62 -44t-84 -38l-19 37q73 43 146 102z" />
    <glyph glyph-name="iacute.sc" horiz-adv-x="249" 
d="M96 0h-64l115 547h63zM174 579l-21 30q61 56 107 116l63 -28q-18 -31 -60 -64t-89 -54z" />
    <glyph glyph-name="ibreve.sc" horiz-adv-x="249" 
d="M96 0h-64l115 547h63zM191 595q-56 0 -93 27.5t-37 77.5q0 2 0.5 6t0.5 6l44 9q2 -30 24.5 -50.5t61.5 -20.5q45 0 77 20t46 52l42 -17q-15 -48 -59.5 -79t-106.5 -31z" />
    <glyph glyph-name="icircumflex.sc" horiz-adv-x="249" 
d="M96 0h-64l115 547h63zM176 725h54q45 -64 104 -105l-25 -34q-69 29 -114 82q-20 -20 -62 -44t-84 -38l-19 37q73 43 146 102z" />
    <glyph glyph-name="idieresis.sc" horiz-adv-x="249" 
d="M137 600h-61l14 65h61zM296 600h-62l14 65h61zM96 0h-64l115 547h63z" />
    <glyph glyph-name="idotaccent.sc" horiz-adv-x="249" 
d="M96 0h-64l115 547h63zM217 600h-63l15 66h63z" />
    <glyph glyph-name="igrave.sc" horiz-adv-x="249" 
d="M96 0h-64l115 547h63zM234 609l-27 -29q-42 26 -80 64t-52 70l69 11q35 -61 90 -116z" />
    <glyph glyph-name="imacron.sc" horiz-adv-x="249" 
d="M96 0h-64l115 547h63zM330 616h-283l11 50h283z" />
    <glyph glyph-name="iogonek.sc" horiz-adv-x="249" 
d="M210 547l-114 -547q-36 -19 -59.5 -43.5t-23.5 -48.5q0 -17 12.5 -27t32.5 -10q27 0 54 22l22 -25q-37 -39 -92 -39q-35 0 -59.5 17t-24.5 50q0 53 74 104l115 547h63z" />
    <glyph glyph-name="itilde.sc" horiz-adv-x="249" 
d="M96 0h-64l115 547h63zM330 698l27 -21q-38 -77 -95 -77q-20 0 -67.5 18.5t-66.5 18.5q-34 0 -63 -37l-27 21q38 77 95 77q20 0 67.5 -18.5t66.5 -18.5q34 0 63 37z" />
    <glyph glyph-name="Jcircumflex.alt1" horiz-adv-x="463" 
d="M452 666l-100 -474q-43 -204 -211 -204q-119 0 -165 91l58 40q34 -66 111 -66q34 0 59 13t41 36.5t25 47.5t16 56l83 396h-197l14 64h266zM328 851h54q45 -64 104 -105l-25 -34q-69 29 -114 82q-20 -20 -62 -44t-84 -38l-19 37q73 43 146 102z" />
    <glyph glyph-name="jcircumflex.sc" horiz-adv-x="406" 
d="M374 547l-81 -388q-35 -170 -179 -170q-103 0 -144 80l53 35q29 -56 94 -56q89 0 115 123l78 376h64zM344 725h54q45 -64 104 -105l-25 -34q-69 29 -114 82q-20 -20 -62 -44t-84 -38l-19 37q73 43 146 102z" />
    <glyph glyph-name="jcircumflexsc.alt1" horiz-adv-x="411" 
d="M379 547l-81 -388q-35 -170 -179 -170q-103 0 -144 80l53 35q29 -56 94 -56q89 0 115 123l66 318h-165l14 58h227zM279 725h54q45 -64 104 -105l-25 -34q-69 29 -114 82q-20 -20 -62 -44t-84 -38l-19 37q73 43 146 102z" />
    <glyph glyph-name="kcommaaccent.sc" horiz-adv-x="546" 
d="M474 0h-71l-148 271l-126 -113l-33 -158h-64l115 547h63l-63 -301l339 301h82l-265 -236zM122 -196l-21 30q63 57 106 114l65 -17q-21 -34 -64.5 -71.5t-85.5 -55.5z" />
    <glyph glyph-name="lacute.alt1" horiz-adv-x="263" 
d="M49 115l127 599h62l-127 -599q-5 -25 -5 -33q0 -34 40 -34q22 0 42 13l14 -56q-24 -14 -65 -14t-67.5 20.5t-26.5 62.5q0 16 6 41zM203 747l-21 30q61 56 107 116l63 -28q-18 -31 -60 -64t-89 -54z" />
    <glyph glyph-name="lacute.sc" horiz-adv-x="485" 
d="M406 0h-374l115 547h63l-103 -488h311zM173 579l-21 30q61 56 107 116l63 -28q-18 -31 -60 -64t-89 -54z" />
    <glyph glyph-name="lcaron.alt1" horiz-adv-x="270" 
d="M49 115l127 599h62l-127 -599q-5 -25 -5 -33q0 -34 40 -34q22 0 42 13l14 -56q-24 -14 -65 -14t-67.5 20.5t-26.5 62.5q0 16 6 41zM406 714l-15 -70q-18 -85 -95 -138l-19 24q57 50 57 104q0 10 -3 26t-3 25q0 16 6 29h72z" />
    <glyph glyph-name="lcaron.sc" horiz-adv-x="485" 
d="M406 0h-374l115 547h63l-103 -488h311zM366 547l-15 -70q-18 -85 -95 -138l-19 24q57 50 57 104q0 10 -3 26t-3 25q0 16 6 29h72z" />
    <glyph glyph-name="lcommaaccent.alt1" horiz-adv-x="263" 
d="M49 115l127 599h62l-127 -599q-5 -25 -5 -33q0 -34 40 -34q22 0 42 13l14 -56q-24 -14 -65 -14t-67.5 20.5t-26.5 62.5q0 16 6 41zM-13 -196l-21 30q63 57 106 114l65 -17q-21 -34 -64.5 -71.5t-85.5 -55.5z" />
    <glyph glyph-name="lcommaaccent.sc" horiz-adv-x="484" 
d="M406 0h-374l115 547h63l-103 -488h311zM112 -196l-21 30q63 57 106 114l65 -17q-21 -34 -64.5 -71.5t-85.5 -55.5z" />
    <glyph glyph-name="ldot.alt1" horiz-adv-x="404" 
d="M49 115l127 599h62l-127 -599q-5 -25 -5 -33q0 -34 40 -34q22 0 42 13l14 -56q-24 -14 -65 -14t-67.5 20.5t-26.5 62.5q0 16 6 41zM280 305q0 21 15 36t36 15t36 -15t15 -36t-15 -36t-36 -15t-36 15t-15 36z" />
    <glyph glyph-name="ldot.sc" horiz-adv-x="485" 
d="M406 0h-374l115 547h63l-103 -488h311zM313 305q0 21 15 36t36 15t36 -15t15 -36t-15 -36t-36 -15t-36 15t-15 36z" />
    <glyph glyph-name="lslash.alt1" horiz-adv-x="309" 
d="M168 -9q-62 0 -83 40q-13 27 -1 84l57 271l-124 -41l12 58l125 40l57 271h62l-53 -250l126 40l-12 -57l-126 -39l-62 -293q-8 -37 1 -52t37 -15q33 0 53 12l5 -55q-30 -14 -74 -14z" />
    <glyph glyph-name="lslash.sc" horiz-adv-x="498" 
d="M418 0h-371l46 218l-105 -32l11 52l105 34l59 275h62l-54 -254l202 68l-12 -53l-202 -67l-39 -184h310z" />
    <glyph glyph-name="nacute.sc" horiz-adv-x="629" 
d="M476 0h-71l-213 471l-99 -471h-61l115 547h76l210 -459l98 459h59zM369 580l-27 29q55 55 90 116l69 -11q-14 -32 -52 -70t-80 -64z" />
    <glyph glyph-name="ncaron.sc" horiz-adv-x="629" 
d="M476 0h-71l-213 471l-99 -471h-61l115 547h76l210 -459l98 459h59zM405 586h-54q-45 64 -104 105l25 34q69 -29 114 -82q20 20 62 44t84 38l19 -37q-73 -43 -146 -102z" />
    <glyph glyph-name="ncommaaccent.sc" horiz-adv-x="628" 
d="M476 0h-71l-213 471l-99 -471h-61l115 547h76l210 -459l98 459h59zM125 -196l-21 30q63 57 106 114l65 -17q-21 -34 -64.5 -71.5t-85.5 -55.5z" />
    <glyph glyph-name="ntilde.sc" horiz-adv-x="629" 
d="M476 0h-71l-213 471l-99 -471h-61l115 547h76l210 -459l98 459h59zM517 698l27 -21q-38 -77 -95 -77q-20 0 -67.5 18.5t-66.5 18.5q-34 0 -63 -37l-27 21q38 77 95 77q20 0 67.5 -18.5t66.5 -18.5q34 0 63 37z" />
    <glyph glyph-name="eng.sc" horiz-adv-x="629" 
d="M303 -110q85 0 112 110l-224 463l-98 -463h-61l115 547h70l218 -451l96 451h59l-114 -547q-35 -169 -176 -169q-72 0 -118 44l42 48q30 -33 79 -33z" />
    <glyph glyph-name="oacute.sc" horiz-adv-x="649" 
d="M591 298q0 -129 -83.5 -219.5t-209.5 -90.5q-112 0 -178.5 74t-66.5 187q0 129 83.5 219.5t209.5 90.5q112 0 178.5 -73.5t66.5 -187.5zM523 301q0 91 -46.5 145t-130.5 54q-98 0 -161.5 -73t-63.5 -180q0 -91 46.5 -145t130.5 -54q98 0 161.5 73t63.5 180zM345 579
l-21 30q61 56 107 116l63 -28q-18 -31 -60 -64t-89 -54z" />
    <glyph glyph-name="obreve.sc" horiz-adv-x="649" 
d="M591 298q0 -129 -83.5 -219.5t-209.5 -90.5q-112 0 -178.5 74t-66.5 187q0 129 83.5 219.5t209.5 90.5q112 0 178.5 -73.5t66.5 -187.5zM523 301q0 91 -46.5 145t-130.5 54q-98 0 -161.5 -73t-63.5 -180q0 -91 46.5 -145t130.5 -54q98 0 161.5 73t63.5 180zM361 595
q-56 0 -93 27.5t-37 77.5q0 2 0.5 6t0.5 6l44 9q2 -30 24.5 -50.5t61.5 -20.5q45 0 77 20t46 52l42 -17q-15 -48 -59.5 -79t-106.5 -31z" />
    <glyph glyph-name="ocircumflex.sc" horiz-adv-x="649" 
d="M591 298q0 -129 -83.5 -219.5t-209.5 -90.5q-112 0 -178.5 74t-66.5 187q0 129 83.5 219.5t209.5 90.5q112 0 178.5 -73.5t66.5 -187.5zM523 301q0 91 -46.5 145t-130.5 54q-98 0 -161.5 -73t-63.5 -180q0 -91 46.5 -145t130.5 -54q98 0 161.5 73t63.5 180zM346 725h54
q45 -64 104 -105l-25 -34q-69 29 -114 82q-20 -20 -62 -44t-84 -38l-19 37q73 43 146 102z" />
    <glyph glyph-name="odieresis.sc" horiz-adv-x="649" 
d="M591 298q0 -129 -83.5 -219.5t-209.5 -90.5q-112 0 -178.5 74t-66.5 187q0 129 83.5 219.5t209.5 90.5q112 0 178.5 -73.5t66.5 -187.5zM523 301q0 91 -46.5 145t-130.5 54q-98 0 -161.5 -73t-63.5 -180q0 -91 46.5 -145t130.5 -54q98 0 161.5 73t63.5 180zM284 600h-63
l15 66h63zM483 600h-63l15 66h63z" />
    <glyph glyph-name="OE.alt1" horiz-adv-x="1046" 
d="M930 0h-488q-42 -12 -90 -12q-132 0 -209.5 87t-77.5 224q0 159 99.5 269t250.5 110q48 0 88 -12h568l-14 -64h-445q81 -81 86 -217h255l-14 -63h-243q-16 -163 -131 -258h378zM629 370q0 111 -56 177t-158 66q-121 0 -199 -90.5t-78 -225.5q0 -112 56 -178t158 -66
q121 0 199 90.5t78 226.5z" />
    <glyph glyph-name="oe.sc" horiz-adv-x="863" 
d="M352 547h510l-13 -58h-310l-37 -171h262l-12 -56h-261l-43 -203h311l-13 -59h-446q-118 0 -182.5 68t-64.5 174q0 129 81 217t218 88zM478 489h-132q-104 0 -164.5 -69.5t-60.5 -174.5q0 -88 45 -137t136 -49h85z" />
    <glyph glyph-name="oesc.alt1" horiz-adv-x="893" 
d="M777 0h-396q-45 -12 -83 -12q-112 0 -178.5 74t-66.5 187q0 129 83.5 219.5t209.5 90.5q44 0 81 -12h466l-13 -58h-360q62 -65 68 -171h209l-13 -56h-197q-14 -127 -102 -204h304zM523 301q0 91 -46.5 145t-130.5 54q-98 0 -161.5 -73t-63.5 -180q0 -91 46.5 -145
t130.5 -54q98 0 161.5 73t63.5 180z" />
    <glyph glyph-name="ograve.sc" horiz-adv-x="649" 
d="M591 298q0 -129 -83.5 -219.5t-209.5 -90.5q-112 0 -178.5 74t-66.5 187q0 129 83.5 219.5t209.5 90.5q112 0 178.5 -73.5t66.5 -187.5zM523 301q0 91 -46.5 145t-130.5 54q-98 0 -161.5 -73t-63.5 -180q0 -91 46.5 -145t130.5 -54q98 0 161.5 73t63.5 180zM397 609
l-27 -29q-42 26 -80 64t-52 70l69 11q35 -61 90 -116z" />
    <glyph glyph-name="ohungarumlaut.sc" horiz-adv-x="649" 
d="M591 298q0 -129 -83.5 -219.5t-209.5 -90.5q-112 0 -178.5 74t-66.5 187q0 129 83.5 219.5t209.5 90.5q112 0 178.5 -73.5t66.5 -187.5zM523 301q0 91 -46.5 145t-130.5 54q-98 0 -161.5 -73t-63.5 -180q0 -91 46.5 -145t130.5 -54q98 0 161.5 73t63.5 180zM273 579
l-21 29q59 46 111 118l50 -35q-18 -29 -61.5 -63t-78.5 -49zM420 579l-21 29q59 46 111 118l50 -35q-18 -29 -61.5 -63t-78.5 -49z" />
    <glyph glyph-name="omacron.sc" horiz-adv-x="649" 
d="M591 298q0 -129 -83.5 -219.5t-209.5 -90.5q-112 0 -178.5 74t-66.5 187q0 129 83.5 219.5t209.5 90.5q112 0 178.5 -73.5t66.5 -187.5zM523 301q0 91 -46.5 145t-130.5 54q-98 0 -161.5 -73t-63.5 -180q0 -91 46.5 -145t130.5 -54q98 0 161.5 73t63.5 180zM500 616h-283
l11 50h283z" />
    <glyph glyph-name="oslash.sc" horiz-adv-x="649" 
d="M130 -9l-36 28l30 38q-71 73 -71 192q0 129 83.5 219.5t209.5 90.5q79 0 137 -39l29 37l36 -28l-29 -38q72 -74 72 -193q0 -129 -83.5 -219.5t-209.5 -90.5q-82 0 -139 40zM523 301q0 86 -43 140l-284 -365q42 -28 102 -28q98 0 161.5 73t63.5 180zM121 247
q0 -87 42 -140l283 365q-42 28 -100 28q-98 0 -161.5 -73t-63.5 -180z" />
    <glyph glyph-name="oslashacute.sc" horiz-adv-x="649" 
d="M320 579l-21 30q61 56 107 116l63 -28q-18 -31 -60 -64t-89 -54zM130 -9l-36 28l30 38q-71 73 -71 192q0 129 83.5 219.5t209.5 90.5q79 0 137 -39l29 37l36 -28l-29 -38q72 -74 72 -193q0 -129 -83.5 -219.5t-209.5 -90.5q-82 0 -139 40zM523 301q0 86 -43 140
l-284 -365q42 -28 102 -28q98 0 161.5 73t63.5 180zM121 247q0 -87 42 -140l283 365q-42 28 -100 28q-98 0 -161.5 -73t-63.5 -180z" />
    <glyph glyph-name="otilde.sc" horiz-adv-x="649" 
d="M591 298q0 -129 -83.5 -219.5t-209.5 -90.5q-112 0 -178.5 74t-66.5 187q0 129 83.5 219.5t209.5 90.5q112 0 178.5 -73.5t66.5 -187.5zM523 301q0 91 -46.5 145t-130.5 54q-98 0 -161.5 -73t-63.5 -180q0 -91 46.5 -145t130.5 -54q98 0 161.5 73t63.5 180zM497 698
l27 -21q-38 -77 -95 -77q-20 0 -67.5 18.5t-66.5 18.5q-34 0 -63 -37l-27 21q38 77 95 77q20 0 67.5 -18.5t66.5 -18.5q34 0 63 37z" />
    <glyph glyph-name="racute.sc" horiz-adv-x="577" 
d="M147 547h224q74 0 118 -40t44 -107q0 -61 -42.5 -105.5t-116.5 -58.5l105 -236h-68l-100 228h-168l-47 -228h-64zM361 489h-162l-43 -202h173q61 0 98.5 31t37.5 78q0 43 -27 68t-77 25zM313 579l-21 30q61 56 107 116l63 -28q-18 -31 -60 -64t-89 -54z" />
    <glyph glyph-name="rcaron.sc" horiz-adv-x="577" 
d="M147 547h224q74 0 118 -40t44 -107q0 -61 -42.5 -105.5t-116.5 -58.5l105 -236h-68l-100 228h-168l-47 -228h-64zM361 489h-162l-43 -202h173q61 0 98.5 31t37.5 78q0 43 -27 68t-77 25zM370 586h-54q-45 64 -104 105l25 34q69 -29 114 -82q20 20 62 44t84 38l19 -37
q-73 -43 -146 -102z" />
    <glyph glyph-name="rcommaaccent.sc" horiz-adv-x="576" 
d="M147 547h224q74 0 118 -40t44 -107q0 -61 -42.5 -105.5t-116.5 -58.5l105 -236h-68l-100 228h-168l-47 -228h-64zM361 489h-162l-43 -202h173q61 0 98.5 31t37.5 78q0 43 -27 68t-77 25zM135 -196l-21 30q63 57 106 114l65 -17q-21 -34 -64.5 -71.5t-85.5 -55.5z" />
    <glyph glyph-name="scircumflex.sc" horiz-adv-x="506" 
d="M151 417q0 -34 25 -53.5t87 -47.5q43 -19 67.5 -32t51 -33t38 -44.5t11.5 -55.5q1 -71 -56 -117t-147 -46q-74 0 -133 32t-85 83l58 32q24 -44 70 -66.5t97 -22.5q57 0 94 27.5t37 73.5q0 35 -26.5 55.5t-105.5 54.5q-78 34 -112 66t-35 86q-1 70 53 110t131 40
q65 0 116 -28t78 -72l-53 -35q-50 78 -145 78q-49 0 -82.5 -22.5t-33.5 -62.5zM295 725h54q45 -64 104 -105l-25 -34q-69 29 -114 82q-20 -20 -62 -44t-84 -38l-19 37q73 43 146 102z" />
    <glyph glyph-name="sacute.sc" horiz-adv-x="506" 
d="M151 417q0 -34 25 -53.5t87 -47.5q43 -19 67.5 -32t51 -33t38 -44.5t11.5 -55.5q1 -71 -56 -117t-147 -46q-74 0 -133 32t-85 83l58 32q24 -44 70 -66.5t97 -22.5q57 0 94 27.5t37 73.5q0 35 -26.5 55.5t-105.5 54.5q-78 34 -112 66t-35 86q-1 70 53 110t131 40
q65 0 116 -28t78 -72l-53 -35q-50 78 -145 78q-49 0 -82.5 -22.5t-33.5 -62.5zM281 580l-27 29q55 55 90 116l69 -11q-14 -32 -52 -70t-80 -64z" />
    <glyph glyph-name="scaron.sc" horiz-adv-x="506" 
d="M151 417q0 -34 25 -53.5t87 -47.5q43 -19 67.5 -32t51 -33t38 -44.5t11.5 -55.5q1 -71 -56 -117t-147 -46q-74 0 -133 32t-85 83l58 32q24 -44 70 -66.5t97 -22.5q57 0 94 27.5t37 73.5q0 35 -26.5 55.5t-105.5 54.5q-78 34 -112 66t-35 86q-1 70 53 110t131 40
q65 0 116 -28t78 -72l-53 -35q-50 78 -145 78q-49 0 -82.5 -22.5t-33.5 -62.5zM311 586h-54q-45 64 -104 105l25 34q69 -29 114 -82q20 20 62 44t84 38l19 -37q-73 -43 -146 -102z" />
    <glyph glyph-name="scedilla.sc" horiz-adv-x="508" 
d="M63 -106l29 26q28 -35 69 -35q22 0 35.5 14.5t13.5 35.5q0 25 -16 55q-62 7 -111 37.5t-72 75.5l58 32q24 -44 70 -66.5t97 -22.5q57 0 94 27.5t37 73.5q0 35 -26.5 55.5t-105.5 54.5q-78 34 -112 66t-35 86q-1 70 53 110t131 40q65 0 116 -28t78 -72l-53 -35
q-50 78 -145 78q-49 0 -82.5 -22.5t-33.5 -62.5q0 -34 25 -53.5t87 -47.5q43 -19 67.5 -32t51 -33t38 -44.5t11.5 -55.5q1 -70 -54.5 -116t-143.5 -47q28 -37 28 -71q0 -37 -26.5 -58.5t-64.5 -21.5q-66 0 -108 57z" />
    <glyph glyph-name="scommaaccent.sc" horiz-adv-x="507" 
d="M152 417q0 -34 25 -53.5t87 -47.5q43 -19 67.5 -32t51 -33t38 -44.5t11.5 -55.5q1 -71 -56 -117t-147 -46q-74 0 -133 32t-85 83l58 32q24 -44 70 -66.5t97 -22.5q57 0 94 27.5t37 73.5q0 35 -26.5 55.5t-105.5 54.5q-78 34 -112 66t-35 86q-1 70 53 110t131 40
q65 0 116 -28t78 -72l-53 -35q-50 78 -145 78q-49 0 -82.5 -22.5t-33.5 -62.5zM87 -196l-21 30q63 57 106 114l65 -17q-21 -34 -64.5 -71.5t-85.5 -55.5z" />
    <glyph glyph-name="tcaron.sc" horiz-adv-x="499" 
d="M515 489h-192l-102 -489h-63l103 489h-191l12 58h445zM348 586h-54q-45 64 -104 105l25 34q69 -29 114 -82q20 20 62 44t84 38l19 -37q-73 -43 -146 -102z" />
    <glyph glyph-name="tcommaaccent.sc" horiz-adv-x="501" 
d="M516 489h-192l-102 -489h-63l103 489h-191l12 58h445zM63 -196l-21 30q63 57 106 114l65 -17q-21 -34 -64.5 -71.5t-85.5 -55.5z" />
    <glyph glyph-name="tbar.sc" horiz-adv-x="499" 
d="M392 284h-111l-61 -284h-62l61 284h-110l9 44h110l34 161h-190l12 58h444l-13 -58h-191l-34 -161h111z" />
    <glyph glyph-name="thorn.sc" horiz-adv-x="548" 
d="M301 139h-176l-29 -139h-64l116 547h63l-17 -78h139q88 0 134.5 -40.5t46.5 -111.5q0 -77 -55 -127.5t-158 -50.5zM137 197h172q69 0 103 33t34 85q0 96 -119 96h-145z" />
    <glyph glyph-name="uacute.sc" horiz-adv-x="612" 
d="M582 547l-74 -351q-21 -98 -87 -153t-159 -55q-89 0 -144 47t-55 122q0 25 8 63l69 327h63l-71 -335q-5 -22 -5 -45q0 -54 36 -86.5t100 -32.5q73 0 121 42t63 115l73 342h62zM353 579l-21 30q61 56 107 116l63 -28q-18 -31 -60 -64t-89 -54z" />
    <glyph glyph-name="ubreve.sc" horiz-adv-x="612" 
d="M582 547l-74 -351q-21 -98 -87 -153t-159 -55q-89 0 -144 47t-55 122q0 25 8 63l69 327h63l-71 -335q-5 -22 -5 -45q0 -54 36 -86.5t100 -32.5q73 0 121 42t63 115l73 342h62zM363 595q-56 0 -93 27.5t-37 77.5q0 2 0.5 6t0.5 6l44 9q2 -30 24.5 -50.5t61.5 -20.5
q45 0 77 20t46 52l42 -17q-15 -48 -59.5 -79t-106.5 -31z" />
    <glyph glyph-name="ucircumflex.sc" horiz-adv-x="612" 
d="M582 547l-74 -351q-21 -98 -87 -153t-159 -55q-89 0 -144 47t-55 122q0 25 8 63l69 327h63l-71 -335q-5 -22 -5 -45q0 -54 36 -86.5t100 -32.5q73 0 121 42t63 115l73 342h62zM360 725h54q45 -64 104 -105l-25 -34q-69 29 -114 82q-20 -20 -62 -44t-84 -38l-19 37
q73 43 146 102z" />
    <glyph glyph-name="udieresis.sc" horiz-adv-x="612" 
d="M582 547l-74 -351q-21 -98 -87 -153t-159 -55q-89 0 -144 47t-55 122q0 25 8 63l69 327h63l-71 -335q-5 -22 -5 -45q0 -54 36 -86.5t100 -32.5q73 0 121 42t63 115l73 342h62zM300 600h-63l15 66h63zM499 600h-63l15 66h63z" />
    <glyph glyph-name="ugrave.sc" horiz-adv-x="612" 
d="M582 547l-74 -351q-21 -98 -87 -153t-159 -55q-89 0 -144 47t-55 122q0 25 8 63l69 327h63l-71 -335q-5 -22 -5 -45q0 -54 36 -86.5t100 -32.5q73 0 121 42t63 115l73 342h62zM407 609l-27 -29q-42 26 -80 64t-52 70l69 11q35 -61 90 -116z" />
    <glyph glyph-name="uhungarumlaut.sc" horiz-adv-x="612" 
d="M582 547l-74 -351q-21 -98 -87 -153t-159 -55q-89 0 -144 47t-55 122q0 25 8 63l69 327h63l-71 -335q-5 -22 -5 -45q0 -54 36 -86.5t100 -32.5q73 0 121 42t63 115l73 342h62zM284 579l-21 29q59 46 111 118l50 -35q-18 -29 -61.5 -63t-78.5 -49zM431 579l-21 29
q59 46 111 118l50 -35q-18 -29 -61.5 -63t-78.5 -49z" />
    <glyph glyph-name="umacron.sc" horiz-adv-x="612" 
d="M582 547l-74 -351q-21 -98 -87 -153t-159 -55q-89 0 -144 47t-55 122q0 25 8 63l69 327h63l-71 -335q-5 -22 -5 -45q0 -54 36 -86.5t100 -32.5q73 0 121 42t63 115l73 342h62zM512 616h-283l11 50h283z" />
    <glyph glyph-name="uogonek.sc" horiz-adv-x="612" 
d="M384 -107l22 -25q-37 -39 -92 -39q-35 0 -59.5 17t-24.5 50q0 49 59 94q-18 -2 -27 -2q-89 0 -144 47t-55 122q0 25 8 63l69 327h63l-71 -335q-5 -22 -5 -45q0 -54 36 -86.5t100 -32.5q73 0 121 42t63 115l73 342h62l-74 -351q-25 -121 -118 -175q-105 -65 -105 -113
q0 -17 12.5 -27t32.5 -10q27 0 54 22z" />
    <glyph glyph-name="uring.sc" horiz-adv-x="612" 
d="M582 547l-74 -351q-21 -98 -87 -153t-159 -55q-89 0 -144 47t-55 122q0 25 8 63l69 327h63l-71 -335q-5 -22 -5 -45q0 -54 36 -86.5t100 -32.5q73 0 121 42t63 115l73 342h62zM470 681q0 -41 -29 -70.5t-70 -29.5t-70.5 29.5t-29.5 70.5t29.5 71t70.5 30t70 -30t29 -71z
M429 681q0 25 -17 42.5t-41 17.5q-25 0 -42 -17.5t-17 -42.5t17 -42t42 -17q24 0 41 17t17 42z" />
    <glyph glyph-name="Utilde.sc" horiz-adv-x="612" 
d="M582 547l-74 -351q-21 -98 -87 -153t-159 -55q-89 0 -144 47t-55 122q0 25 8 63l69 327h63l-71 -335q-5 -22 -5 -45q0 -54 36 -86.5t100 -32.5q73 0 121 42t63 115l73 342h62zM507 698l27 -21q-38 -77 -95 -77q-20 0 -67.5 18.5t-66.5 18.5q-34 0 -63 -37l-27 21
q38 77 95 77q20 0 67.5 -18.5t66.5 -18.5q34 0 63 37z" />
    <glyph glyph-name="wacute.sc" horiz-adv-x="805" 
d="M456 579l-21 30q61 56 107 116l63 -28q-18 -31 -60 -64t-89 -54zM822 547l-268 -547h-75l-36 470l-235 -470h-77l-35 547h61l26 -477l239 477h69l36 -477l225 477h70z" />
    <glyph glyph-name="wcircumflex.sc" horiz-adv-x="805" 
d="M449 725h54q45 -64 104 -105l-25 -34q-69 29 -114 82q-20 -20 -62 -44t-84 -38l-19 37q73 43 146 102zM822 547l-268 -547h-75l-36 470l-235 -470h-77l-35 547h61l26 -477l239 477h69l36 -477l225 477h70z" />
    <glyph glyph-name="wdieresis.sc" horiz-adv-x="805" 
d="M393 600h-63l15 66h63zM592 600h-63l15 66h63zM822 547l-268 -547h-75l-36 470l-235 -470h-77l-35 547h61l26 -477l239 477h69l36 -477l225 477h70z" />
    <glyph glyph-name="wgrave.sc" horiz-adv-x="805" 
d="M492 609l-27 -29q-42 26 -80 64t-52 70l69 11q35 -61 90 -116zM822 547l-268 -547h-75l-36 470l-235 -470h-77l-35 547h61l26 -477l239 477h69l36 -477l225 477h70z" />
    <glyph glyph-name="yacute.alt1" horiz-adv-x="587" 
d="M337 579l-21 30q61 56 107 116l63 -28q-18 -31 -60 -64t-89 -54zM390 52l13 62q-33 -44 -82.5 -67.5t-104.5 -23.5q-74 0 -114.5 42.5t-40.5 109.5q0 23 7 56l60 284h62l-59 -279q-7 -32 -7 -52q0 -48 28 -74.5t80 -26.5q72 0 129.5 52t74.5 132l53 248h61l-100 -471
q-49 -228 -256 -228q-121 0 -191 67l47 52q25 -28 64.5 -43.5t80.5 -15.5q157 0 195 176z" />
    <glyph glyph-name="yacute.sc" horiz-adv-x="505" 
d="M289 579l-21 30q61 56 107 116l63 -28q-18 -31 -60 -64t-89 -54zM546 547l-278 -324l-47 -223h-65l47 224l-141 323h70l114 -262l222 262h78z" />
    <glyph glyph-name="ycircumflex.alt1" horiz-adv-x="587" 
d="M345 725h54q45 -64 104 -105l-25 -34q-69 29 -114 82q-20 -20 -62 -44t-84 -38l-19 37q73 43 146 102zM390 52l13 62q-33 -44 -82.5 -67.5t-104.5 -23.5q-74 0 -114.5 42.5t-40.5 109.5q0 23 7 56l60 284h62l-59 -279q-7 -32 -7 -52q0 -48 28 -74.5t80 -26.5
q72 0 129.5 52t74.5 132l53 248h61l-100 -471q-49 -228 -256 -228q-121 0 -191 67l47 52q25 -28 64.5 -43.5t80.5 -15.5q157 0 195 176z" />
    <glyph glyph-name="ycircumflex.sc" horiz-adv-x="505" 
d="M300 725h54q45 -64 104 -105l-25 -34q-69 29 -114 82q-20 -20 -62 -44t-84 -38l-19 37q73 43 146 102zM546 547l-278 -324l-47 -223h-65l47 224l-141 323h70l114 -262l222 262h78z" />
    <glyph glyph-name="ydieresis.alt1" horiz-adv-x="587" 
d="M286 600h-63l15 66h63zM485 600h-63l15 66h63zM390 52l13 62q-33 -44 -82.5 -67.5t-104.5 -23.5q-74 0 -114.5 42.5t-40.5 109.5q0 23 7 56l60 284h62l-59 -279q-7 -32 -7 -52q0 -48 28 -74.5t80 -26.5q72 0 129.5 52t74.5 132l53 248h61l-100 -471q-49 -228 -256 -228
q-121 0 -191 67l47 52q25 -28 64.5 -43.5t80.5 -15.5q157 0 195 176z" />
    <glyph glyph-name="ydieresis.sc" horiz-adv-x="505" 
d="M237 600h-63l15 66h63zM436 600h-63l15 66h63zM546 547l-278 -324l-47 -223h-65l47 224l-141 323h70l114 -262l222 262h78z" />
    <glyph glyph-name="ygrave.alt1" horiz-adv-x="587" 
d="M384 609l-27 -29q-42 26 -80 64t-52 70l69 11q35 -61 90 -116zM390 52l13 62q-33 -44 -82.5 -67.5t-104.5 -23.5q-74 0 -114.5 42.5t-40.5 109.5q0 23 7 56l60 284h62l-59 -279q-7 -32 -7 -52q0 -48 28 -74.5t80 -26.5q72 0 129.5 52t74.5 132l53 248h61l-100 -471
q-49 -228 -256 -228q-121 0 -191 67l47 52q25 -28 64.5 -43.5t80.5 -15.5q157 0 195 176z" />
    <glyph glyph-name="ygrave.sc" horiz-adv-x="505" 
d="M338 609l-27 -29q-42 26 -80 64t-52 70l69 11q35 -61 90 -116zM546 547l-278 -324l-47 -223h-65l47 224l-141 323h70l114 -262l222 262h78z" />
    <glyph glyph-name="zacute.sc" horiz-adv-x="509" 
d="M294 580l-27 29q55 55 90 116l69 -11q-14 -32 -52 -70t-80 -64zM400 0h-416l12 58l416 431h-312l12 58h398l-13 -57l-417 -431h334z" />
    <glyph glyph-name="zcaron.sc" horiz-adv-x="509" 
d="M333 586h-54q-45 64 -104 105l25 34q69 -29 114 -82q20 20 62 44t84 38l19 -37q-73 -43 -146 -102zM400 0h-416l12 58l416 431h-312l12 58h398l-13 -57l-417 -431h334z" />
    <glyph glyph-name="zdotaccent.sc" horiz-adv-x="509" 
d="M336 600h-63l15 66h63zM400 0h-416l12 58l416 431h-312l12 58h398l-13 -57l-417 -431h334z" />
    <glyph glyph-name="fl.alt1" horiz-adv-x="582" 
d="M368 115l127 599h62l-127 -599q-5 -25 -5 -33q0 -34 40 -34q23 0 42 13l14 -56q-24 -14 -65 -14t-67.5 20.5t-26.5 62.5q0 16 6 41zM116 280q0 1 4.5 30t11 69.5t13.5 78.5h-88l12 57h86q11 63 18 89q31 121 149 121q50 0 88 -21l-25 -54q-29 19 -70 19q-35 0 -51.5 -17
t-27.5 -51q-8 -26 -19 -86h127l-12 -57h-124l-29 -174q-49 -295 -63 -347q-15 -57 -51.5 -88.5t-87.5 -31.5q-61 0 -98 41l41 42q23 -29 60 -29q54 0 75 69q13 43 61 340z" />
    <glyph glyph-name="one.alt1" 
d="M446 666l-142 -666h-70l123 577q-17 -12 -72.5 -29.5t-107.5 -24.5l-5 55q149 29 221 88h53z" />
    <glyph glyph-name="zero.lin" horiz-adv-x="590" 
d="M477 440q0 72 -29 124t-99 52q-51 0 -91 -31t-62.5 -76.5t-38 -101.5t-20.5 -100.5t-5 -79.5q0 -32 5.5 -60.5t18.5 -56t40 -44t64 -16.5q51 0 91.5 32t63.5 77.5t37.5 102.5t19.5 100.5t5 77.5zM352 678q101 0 147.5 -71.5t46.5 -179.5q0 -47 -8 -101t-29 -115.5
t-52 -110t-82.5 -80.5t-115.5 -32q-69 0 -115 37.5t-63.5 91.5t-17.5 123q0 48 8.5 102t29.5 115t52.5 109.5t83 80t115.5 31.5z" />
    <glyph glyph-name="one.lin" horiz-adv-x="363" 
d="M336 666l-142 -666h-69l123 579q-65 -36 -173 -51l-5 52q142 28 213 86h53z" />
    <glyph glyph-name="two.lin" horiz-adv-x="561" 
d="M464 0h-442l12 55q240 184 323.5 270t83.5 162q0 59 -38 92t-96 33q-98 0 -158 -92l-60 38q86 120 224 120q91 0 147 -52.5t56 -135.5q0 -94 -85 -184.5t-297 -241.5h344z" />
    <glyph glyph-name="three.lin" horiz-adv-x="581" 
d="M429 187q0 61 -44 94.5t-115 33.5h-42l13 63h83q58 0 95.5 30t37.5 86q0 59 -42 89.5t-98 30.5q-51 0 -93 -21.5t-66 -51.5l-48 48q82 89 208 89q94 0 152.5 -51t58.5 -127q0 -58 -34.5 -100.5t-92.5 -60.5q39 -18 69.5 -59t30.5 -97q0 -85 -67 -140t-170 -55
q-85 0 -149 39t-95 105l63 35q26 -58 77 -86.5t109 -28.5q70 0 114.5 36.5t44.5 98.5z" />
    <glyph glyph-name="four.lin" horiz-adv-x="546" 
d="M503 165h-100l-35 -165h-68l35 165h-325l13 61q131 116 204 238t79 202h70q-2 -80 -82.5 -215t-188.5 -223h243l47 220h68l-47 -220h101z" />
    <glyph glyph-name="five.lin" horiz-adv-x="562" 
d="M16 142l65 27q18 -58 65 -87.5t104 -29.5q74 0 124 44.5t50 119.5q0 66 -40.5 107t-111.5 41q-88 0 -145 -62l-38 29l86 335h369l-13 -64h-308l-59 -218q49 42 130 42q90 0 146.5 -60t56.5 -148q0 -97 -70 -163.5t-179 -66.5q-88 0 -149 44t-83 110z" />
    <glyph glyph-name="six.lin" horiz-adv-x="570" 
d="M375 666h112q-96 -52 -198 -137.5t-136 -160.5q61 58 151 58q93 0 152 -59t59 -151q0 -98 -66.5 -163t-173.5 -65q-104 0 -166.5 63t-62.5 171q0 245 329 444zM289 365q-75 0 -123 -42t-48 -118q0 -70 42 -111.5t114 -41.5q80 0 124.5 48.5t44.5 119.5q0 67 -41 106
t-113 39z" />
    <glyph glyph-name="seven.lin" horiz-adv-x="503" 
d="M555 666l-14 -63q-61 -56 -131 -144.5t-139.5 -217t-91.5 -241.5h-75q34 156 140 325t214 277h-382l14 64h465z" />
    <glyph glyph-name="eight.lin" horiz-adv-x="592" 
d="M414 348q39 -19 69 -61.5t30 -101.5q0 -84 -62 -140.5t-171 -56.5q-105 0 -171 53.5t-66 141.5q0 71 44 121t115 66q-83 47 -83 138q0 76 58.5 123t149.5 47q95 0 154 -50.5t59 -124.5q0 -56 -34 -96.5t-92 -58.5zM468 498q0 57 -42.5 85.5t-100.5 28.5
q-59 0 -96.5 -28.5t-37.5 -80.5q0 -55 42 -85t102 -30q58 0 95.5 28.5t37.5 81.5zM440 188q0 67 -45.5 101.5t-116.5 34.5q-73 0 -117 -35.5t-44 -99.5q0 -65 45.5 -100t118.5 -35q72 0 115.5 34.5t43.5 99.5z" />
    <glyph glyph-name="nine.lin" horiz-adv-x="571" 
d="M215 0h-112q96 52 198 137.5t136 160.5q-61 -58 -151 -58q-93 0 -152 59t-59 151q0 98 66.5 163t173.5 65q104 0 166.5 -63t62.5 -171q0 -245 -329 -444zM301 301q75 0 123 42t48 118q0 70 -42 111.5t-114 41.5q-80 0 -124.5 -48.5t-44.5 -119.5q0 -67 41 -106t113 -39z
" />
    <glyph glyph-name="hyphen.lin" horiz-adv-x="455" 
d="M353 305h-249l12 56h249z" />
    <glyph glyph-name="endash.lin" 
d="M514 305h-451l12 56h451z" />
    <glyph glyph-name="emdash.lin" horiz-adv-x="1002" 
d="M900 305h-796l12 56h796z" />
    <glyph glyph-name="parenleft.lin" horiz-adv-x="319" 
d="M346 706l25 -52q-123 -58 -192 -155.5t-69 -219.5q0 -162 131 -275l-38 -44q-151 131 -151 319q0 139 78 250.5t216 176.5z" />
    <glyph glyph-name="parenright.lin" horiz-adv-x="319" 
d="M97 662l38 44q151 -131 151 -319q0 -139 -78 -250.5t-216 -176.5l-25 52q123 58 192 155.5t69 219.5q0 162 -131 275z" />
    <glyph glyph-name="bracketleft.lin" horiz-adv-x="323" 
d="M218 1h-189l141 665h190l-12 -58h-130l-117 -549h130z" />
    <glyph glyph-name="bracketright.lin" horiz-adv-x="324" 
d="M173 1h-190l12 58h131l116 549h-130l12 58h191z" />
    <glyph glyph-name="braceleft.lin" horiz-adv-x="370" 
d="M266 -11h-25q-64 0 -99.5 32t-35.5 85q0 24 7 55l7 35q6 30 6 46q0 63 -71 63h-29l12 57h38q45 0 68 27.5t35 80.5l11 51q33 157 189 157h35l-12 -58h-33q-52 0 -80 -26.5t-40 -80.5l-12 -57q-21 -101 -106 -124q55 -25 55 -91q0 -22 -5 -47l-9 -40q-6 -28 -6 -44
q0 -63 79 -63h34z" />
    <glyph glyph-name="braceright.lin" horiz-adv-x="369" 
d="M123 678h25q64 0 99.5 -32t35.5 -85q0 -23 -7 -55l-7 -35q-6 -30 -6 -46q0 -63 71 -63h29l-12 -57h-38q-45 0 -68 -27.5t-35 -80.5l-11 -51q-33 -157 -189 -157h-35l12 58h33q52 0 80 26.5t40 80.5l12 57q21 101 106 124q-55 25 -55 91q0 22 5 47l9 40q6 28 6 44
q0 63 -79 63h-34z" />
    <glyph glyph-name="registered.alt" horiz-adv-x="791" 
d="M757 333q0 -145 -103 -248t-248 -103t-248.5 103t-103.5 248t103 248t249 103q145 0 248 -103t103 -248zM710 333q0 127 -89 216t-215 89t-215.5 -89t-89.5 -216q0 -126 89 -215t216 -89q126 0 215 89t89 215zM569 144h-56l-86 150h-107v-150h-50v380h161q56 0 92 -31.5
t36 -83.5q0 -38 -22 -66.5t-57 -40.5zM508 409q0 31 -20.5 50.5t-55.5 19.5h-112v-141h112q36 0 56 20t20 51z" />
    <glyph glyph-name="copyright.sc" horiz-adv-x="676" 
d="M439 212l35 -24q-20 -36 -57.5 -57t-82.5 -21q-67 0 -115 48t-48 115q0 68 48 116.5t115 48.5q44 0 81.5 -21.5t58.5 -57.5l-36 -25q-37 60 -104 60q-49 0 -84.5 -35.5t-35.5 -85.5q0 -49 35 -84t85 -35q66 0 105 58zM44 273q0 121 85 206.5t206 85.5t206.5 -85.5
t85.5 -206.5t-85.5 -206t-206.5 -85t-206 85t-85 206zM84 273q0 -104 73.5 -177.5t177.5 -73.5t178 73.5t74 177.5t-74 178t-178 74t-177.5 -74t-73.5 -178z" />
    <glyph glyph-name="uni2117.sc" horiz-adv-x="676" 
d="M369 238h-90v-124h-45v318h134q48 0 78.5 -27t30.5 -70q0 -41 -29 -69t-79 -28zM430 334q0 25 -16 40.5t-45 15.5h-90v-112h90q29 0 45 16t16 40zM44 273q0 121 85 206.5t206 85.5t206.5 -85.5t85.5 -206.5t-85.5 -206t-206.5 -85t-206 85t-85 206zM84 273
q0 -104 73.5 -177.5t177.5 -73.5t178 73.5t74 177.5t-74 178t-178 74t-177.5 -74t-73.5 -178z" />
    <glyph glyph-name="registered.sc" horiz-adv-x="388" 
d="M364 418q0 -60 -42.5 -102.5t-102.5 -42.5q-61 0 -103.5 42.5t-42.5 102.5q0 61 42.5 103.5t103.5 42.5q60 0 102.5 -42.5t42.5 -103.5zM345 418q0 53 -37 90t-89 37q-53 0 -90 -37t-37 -90t37 -89.5t90 -36.5q52 0 89 37t37 89zM250 404l39 -65h-27l-36 62h-42v-62h-23
v160h71q22 0 36.5 -13.5t14.5 -35.5q0 -34 -33 -46zM259 450q0 12 -7.5 19.5t-18.5 7.5h-49v-55h49q11 0 18.5 8t7.5 20z" />
    <glyph glyph-name="at.lin" horiz-adv-x="762" 
d="M555 157q-69 0 -84 60q-57 -63 -136 -63q-56 0 -87.5 38.5t-31.5 99.5q0 87 57 150.5t143 63.5q64 0 96 -49l8 42h56l-51 -238q-12 -56 40 -56q57 0 88 53t31 129q0 102 -62 169t-166 67q-142 0 -247.5 -104t-105.5 -241q0 -102 62 -169.5t165 -67.5q78 0 149 37l17 -48
q-80 -44 -179 -44q-123 0 -198 80.5t-75 201.5q0 107 58 202t156 151.5t209 56.5q125 0 200.5 -80.5t75.5 -198.5q0 -106 -54.5 -174t-133.5 -68zM488 359q0 42 -21 67.5t-61 25.5q-60 0 -95 -45.5t-35 -107.5q0 -41 20 -66t59 -25q60 0 96.5 45t36.5 106z" />
    <glyph glyph-name="Euro.tab" 
d="M488 106l40 -50q-76 -68 -175 -68q-110 0 -182.5 70.5t-86.5 185.5h-84l10 47h71v7q0 42 7 77h-60l10 47h61q35 114 126 185t211 71q103 0 175 -55l-41 -55q-54 45 -136 45q-92 0 -161 -52t-100 -139h286l-10 -47h-289q-7 -34 -7 -76v-8h278l-10 -47h-264q12 -89 64 -140
t133 -51q78 0 134 53z" />
    <glyph glyph-name="onehalf.alt1" horiz-adv-x="922" 
d="M312 666l-89 -420h-53l76 356q-12 -7 -46 -17.5t-65 -14.5l-4 40q94 17 142 56h39zM789 0h-284l9 40q150 114 201.5 166t51.5 98q0 35 -22.5 55t-57.5 20q-59 0 -97 -58l-43 27q56 79 145 79q58 0 94.5 -33.5t36.5 -86.5q0 -60 -53 -118t-178 -141h208zM758 666
l-569 -666h-53l569 666h53z" />
    <glyph glyph-name="onethird.alt1" horiz-adv-x="922" 
d="M312 666l-89 -420h-53l76 356q-12 -7 -46 -17.5t-65 -14.5l-4 40q94 17 142 56h39zM753 119q0 37 -25.5 56.5t-68.5 19.5h-27l10 45h51q34 0 56.5 18t22.5 51q0 35 -25 53t-59 18q-60 0 -97 -45l-36 33q53 59 135 59q60 0 98 -32t38 -81q0 -36 -22.5 -62.5t-58.5 -37.5
q25 -12 43.5 -38t18.5 -60q0 -54 -42.5 -89t-108.5 -35q-55 0 -96 25t-61 68l47 25q31 -70 112 -70q42 0 68.5 21.5t26.5 57.5zM758 666l-569 -666h-53l569 666h53z" />
    <glyph glyph-name="onequarter.alt1" horiz-adv-x="922" 
d="M316 666l-89 -420h-53l76 356q-12 -7 -46 -17.5t-65 -14.5l-4 40q94 17 142 56h39zM810 101h-62l-21 -101h-52l22 101h-203l9 44q79 71 124 147.5t48 127.5h53q-1 -50 -50 -134t-115 -139h144l30 136h50l-29 -136h62zM762 666l-569 -666h-53l569 666h53z" />
    <glyph glyph-name="uni2155.alt1" horiz-adv-x="838" 
d="M263 666l-89 -420h-53l76 356q-12 -7 -46 -17.5t-65 -14.5l-4 40q94 17 142 56h39zM457 92l47 19q12 -36 40.5 -53.5t63.5 -17.5q44 0 74 26.5t30 71.5q0 39 -24.5 63.5t-67.5 24.5q-53 0 -88 -38l-28 21l54 211h239l-10 -48h-194l-35 -127q30 25 80 25q57 0 93 -38
t36 -93q0 -62 -45 -104.5t-115 -42.5q-55 0 -95 28.5t-55 71.5zM709 666l-569 -666h-53l569 666h53z" />
    <glyph glyph-name="uni2159.alt1" horiz-adv-x="816" 
d="M263 666l-89 -420h-53l76 356q-12 -7 -46 -17.5t-65 -14.5l-4 40q94 17 142 56h39zM657 420h83q-61 -33 -123.5 -85t-83.5 -97q36 34 89 34q58 0 95.5 -37.5t37.5 -96.5q0 -63 -42.5 -104.5t-111.5 -41.5q-66 0 -106.5 40.5t-40.5 109.5q0 154 203 278zM610 228
q-45 0 -73.5 -26t-28.5 -71q0 -42 25 -66.5t67 -24.5q48 0 74.5 29t26.5 72q0 40 -24.5 63.5t-66.5 23.5zM709 666l-569 -666h-53l569 666h53z" />
    <glyph glyph-name="oneeighth.alt1" horiz-adv-x="922" 
d="M310 666l-89 -420h-53l76 356q-12 -7 -46 -17.5t-65 -14.5l-4 40q94 17 142 56h39zM748 218q24 -13 42.5 -39t18.5 -63q0 -53 -39.5 -88.5t-108.5 -35.5q-67 0 -110 34t-43 90q0 44 27.5 75t71.5 42q-50 29 -50 86q0 48 37 78t96 30q61 0 99 -31.5t38 -79.5
q0 -36 -21.5 -61t-57.5 -37zM774 312q0 34 -25 51t-59 17q-36 0 -58 -17t-22 -48q0 -33 24.5 -51t60.5 -18q34 0 56.5 17.5t22.5 48.5zM755 120q0 40 -27.5 60.5t-69.5 20.5q-43 0 -69 -21.5t-26 -59.5q0 -39 27 -60t70 -21t69 21t26 60zM756 666l-569 -666h-53l569 666h53z
" />
    <glyph glyph-name="onesuperior.alt1" horiz-adv-x="253" 
d="M278 759l-89 -420h-53l76 356q-12 -7 -46 -17.5t-65 -14.5l-4 40q94 17 142 56h39z" />
    <glyph glyph-name="oneinferior.alt1" horiz-adv-x="253" 
d="M187 327l-89 -420h-53l76 356q-12 -7 -46 -17.5t-65 -14.5l-4 40q94 17 142 56h39z" />
    <glyph glyph-name="periodcentered.lin" horiz-adv-x="253" 
d="M83 334q0 21 15 36t36 15t36 -15t15 -36t-15 -36t-36 -15t-36 15t-15 36z" />
    <glyph glyph-name="slash.lin" horiz-adv-x="301" 
d="M364 666l-354 -666h-53l354 666h53z" />
    <glyph glyph-name="bar.lin" horiz-adv-x="224" 
d="M64 -48h-47l162 762h47z" />
    <glyph glyph-name="backslash.lin" horiz-adv-x="281" 
d="M212 0h-47l-77 666h47z" />
    <glyph glyph-name="exclamdown.lin" horiz-adv-x="259" 
d="M60 140l96 333h30l-51 -333l-31 -140h-74zM172 666h74l-20 -96h-75z" />
    <glyph glyph-name="questiondown.lin" horiz-adv-x="466" 
d="M270 382l18 89h57l-30 -145q-23 3 -37 3q-81 0 -137.5 -48t-56.5 -122q0 -51 30.5 -80t91.5 -29q79 0 159 64l38 -45q-96 -83 -205 -83q-81 0 -133 47.5t-52 125.5q0 92 72 155.5t185 67.5zM371 570h-74l20 96h75z" />
    <glyph glyph-name="plus.lin" 
d="M515 305h-197l-43 -201h-57l43 201h-197l12 56h197l43 202h57l-43 -202h197z" />
    <glyph glyph-name="minus.lin" 
d="M513 305h-451l12 56h451z" />
    <glyph glyph-name="divide.lin" 
d="M516 305h-451l12 56h451zM282 514q0 22 15.5 37.5t37.5 15.5t37.5 -15.5t15.5 -37.5t-15.5 -37.5t-37.5 -15.5t-37.5 15.5t-15.5 37.5zM205 152q0 22 15.5 37.5t37.5 15.5t37.5 -15.5t15.5 -37.5t-15.5 -37.5t-37.5 -15.5t-37.5 15.5t-15.5 37.5z" />
    <glyph glyph-name="equal.lin" 
d="M534 400h-451l12 56h451zM494 210h-451l12 57h451z" />
    <glyph glyph-name="multiply.lin" 
d="M83 118l-36 42l211 177l-136 176l44 34l134 -174l211 176l36 -42l-213 -178l137 -177l-44 -34l-135 175z" />
    <glyph glyph-name="less.lin" 
d="M441 601l36 -42l-274 -230l177 -230l-44 -34l-209 272z" />
    <glyph glyph-name="greater.lin" 
d="M150 65l-36 42l274 230l-177 230l44 34l209 -272z" />
    <glyph glyph-name="zero.osf" horiz-adv-x="647" 
d="M589 298q0 -129 -83.5 -219.5t-209.5 -90.5q-112 0 -178.5 74t-66.5 187q0 129 83.5 219.5t209.5 90.5q112 0 178.5 -73.5t66.5 -187.5zM521 301q0 91 -46.5 145t-130.5 54q-98 0 -161.5 -73t-63.5 -180q0 -91 46.5 -145t130.5 -54q98 0 161.5 73t63.5 180z" />
    <glyph glyph-name="one.osf" horiz-adv-x="357" 
d="M60 408l-6 51q137 26 220 88h47l-117 -547h-61l99 467q-19 -14 -74.5 -32.5t-107.5 -26.5z" />
    <glyph glyph-name="two.osf" horiz-adv-x="541" 
d="M290 495q-103 0 -166 -91l-52 40q86 115 219 115q84 0 134.5 -45.5t50.5 -118.5q0 -90 -81 -165t-251 -168h319l-14 -62h-437l12 55q183 109 222 136q139 94 157 176q3 14 3 28q0 47 -31.5 73.5t-84.5 26.5z" />
    <glyph glyph-name="three.osf" horiz-adv-x="559" 
d="M-12 -8l50 38q61 -99 189 -99q72 0 117.5 36.5t45.5 99.5t-44.5 96.5t-118.5 33.5h-39l13 61h81q60 0 98 30.5t38 86.5q0 60 -42.5 91t-100.5 31q-52 0 -94.5 -21t-65.5 -50l-45 45q90 88 206 88q93 0 150.5 -51t57.5 -127q0 -58 -35 -100.5t-93 -60.5q39 -18 70 -59
t31 -98q0 -85 -66.5 -140t-168.5 -55q-78 0 -139 35t-95 89z" />
    <glyph glyph-name="four.osf" horiz-adv-x="534" 
d="M457 45h-101l-35 -166h-62l35 166h-316l13 60q126 109 204.5 235t89.5 207h64q-4 -83 -87.5 -219t-196.5 -222h242l47 221h62l-47 -221h102z" />
    <glyph glyph-name="five.osf" horiz-adv-x="529" 
d="M206 -69q75 0 126 44.5t51 120.5q0 68 -41.5 109t-113.5 41q-86 0 -147 -61l-34 27l87 335h364l-13 -62h-309l-62 -227q59 48 136 48q89 0 145 -60t56 -148q0 -97 -70 -163.5t-177 -66.5q-78 0 -139 35t-95 89l50 38q61 -99 186 -99z" />
    <glyph glyph-name="six.osf" horiz-adv-x="548" 
d="M35 219q0 140 98.5 265t269.5 202l28 -51q-105 -47 -190 -122.5t-113 -152.5q64 67 165 67q90 0 148.5 -56.5t58.5 -147.5q0 -99 -67.5 -167t-176.5 -68q-100 0 -160.5 61t-60.5 170zM101 201q0 -71 42.5 -110t116.5 -39q82 0 127.5 49t45.5 121q0 68 -41.5 106
t-114.5 38q-82 0 -129 -45.5t-47 -119.5z" />
    <glyph glyph-name="seven.osf" horiz-adv-x="505" 
d="M67 485l13 62h457l-13 -62q-99 -94 -213.5 -271t-150.5 -334h-69q37 154 144.5 327.5t211.5 277.5h-380z" />
    <glyph glyph-name="eight.osf" horiz-adv-x="578" 
d="M402 354q44 -19 74 -60.5t30 -99.5q0 -92 -70 -149t-176 -57q-99 0 -161.5 50t-62.5 134q0 67 41.5 117t123.5 73q-88 50 -88 136q0 82 63 131.5t157 49.5q90 0 145.5 -46t55.5 -115q0 -56 -35.5 -98.5t-96.5 -65.5zM465 508q0 54 -40 81t-99 27q-61 0 -103.5 -31
t-42.5 -87q0 -53 37 -82t95 -29q63 0 108 32t45 89zM436 195q0 64 -42 98t-112 34q-74 0 -124.5 -37t-50.5 -108q0 -64 43.5 -97.5t113.5 -33.5q74 0 123 37t49 107z" />
    <glyph glyph-name="nine.osf" horiz-adv-x="551" 
d="M510 328q0 -140 -98.5 -265t-269.5 -202l-28 51q105 48 190.5 123t113.5 152q-64 -67 -166 -67q-90 0 -148.5 56.5t-58.5 147.5q0 99 67.5 167t176.5 68q100 0 160.5 -61t60.5 -170zM444 346q0 71 -42.5 110t-116.5 39q-82 0 -127.5 -49t-45.5 -121q0 -68 41.5 -106
t114.5 -38q82 0 129 45.5t47 119.5z" />
    <glyph glyph-name="zero.tosf" 
d="M316 559q104 0 152.5 -64.5t48.5 -160.5q0 -39 -8 -82.5t-27.5 -91.5t-48.5 -85.5t-76.5 -62t-106.5 -24.5q-54 0 -94.5 19t-63 52t-33 71.5t-10.5 83.5q0 39 7.5 82t27.5 91t49 85.5t76.5 62t106.5 24.5zM116 206q0 -158 136 -158q47 0 84 24t57.5 58t34 77t18 76.5
t4.5 60.5q0 68 -32.5 111t-103.5 43q-47 0 -84.5 -24t-58 -58t-33.5 -77t-17.5 -75.5t-4.5 -57.5z" />
    <glyph glyph-name="one.tosf" 
d="M140 408l-6 51q137 26 220 88h47l-105 -493h158l-12 -54h-385l11 54h167l87 413q-19 -14 -74.5 -32.5t-107.5 -26.5z" />
    <glyph glyph-name="onetosf.alt1" 
d="M168 408l-6 51q137 26 220 88h47l-117 -547h-61l99 467q-19 -14 -74.5 -32.5t-107.5 -26.5z" />
    <glyph glyph-name="two.tosf" 
d="M306 495q-103 0 -166 -91l-52 40q86 115 219 115q84 0 134.5 -45.5t50.5 -118.5q0 -90 -81 -165t-251 -168h319l-14 -62h-437l12 55q183 109 222 136q139 94 157 176q3 14 3 28q0 47 -31.5 73.5t-84.5 26.5z" />
    <glyph glyph-name="three.tosf" 
d="M-5 -8l50 38q61 -99 189 -99q72 0 117.5 36.5t45.5 99.5t-44.5 96.5t-118.5 33.5h-39l13 61h81q60 0 98 30.5t38 86.5q0 60 -42.5 91t-100.5 31q-52 0 -94.5 -21t-65.5 -50l-45 45q90 88 206 88q93 0 150.5 -51t57.5 -127q0 -58 -35 -100.5t-93 -60.5q39 -18 70 -59
t31 -98q0 -85 -66.5 -140t-168.5 -55q-78 0 -139 35t-95 89z" />
    <glyph glyph-name="four.tosf" 
d="M476 45h-101l-35 -166h-62l35 166h-316l13 60q126 109 204.5 235t89.5 207h64q-4 -83 -87.5 -219t-196.5 -222h242l47 221h62l-47 -221h102z" />
    <glyph glyph-name="five.tosf" 
d="M228 -69q75 0 126 44.5t51 120.5q0 68 -41.5 109t-113.5 41q-86 0 -147 -61l-34 27l87 335h364l-13 -62h-309l-62 -227q59 48 136 48q89 0 145 -60t56 -148q0 -97 -70 -163.5t-177 -66.5q-78 0 -139 35t-95 89l50 38q61 -99 186 -99z" />
    <glyph glyph-name="six.tosf" 
d="M47 219q0 140 98.5 265t269.5 202l28 -51q-105 -47 -190 -122.5t-113 -152.5q64 67 165 67q90 0 148.5 -56.5t58.5 -147.5q0 -99 -67.5 -167t-176.5 -68q-100 0 -160.5 61t-60.5 170zM113 201q0 -71 42.5 -110t116.5 -39q82 0 127.5 49t45.5 121q0 68 -41.5 106
t-114.5 38q-82 0 -129 -45.5t-47 -119.5z" />
    <glyph glyph-name="seven.tosf" 
d="M101 485l13 62h457l-13 -62q-99 -94 -213.5 -271t-150.5 -334h-69q37 154 144.5 327.5t211.5 277.5h-380z" />
    <glyph glyph-name="eight.tosf" 
d="M404 350q38 -19 68 -63t30 -103q0 -83 -62 -139.5t-170 -56.5q-104 0 -170 53t-66 141q0 71 45 121t118 67q-86 48 -86 140q0 76 57.5 122.5t148.5 46.5q94 0 153 -50t59 -124q0 -56 -34 -96.5t-91 -58.5zM463 500q0 58 -44 87.5t-104 29.5t-99 -30t-39 -82q0 -56 43 -87
t105 -31q60 0 99 29.5t39 83.5zM434 187q0 68 -46.5 104t-119.5 36q-75 0 -120 -36.5t-45 -102.5t46.5 -102t121.5 -36q74 0 118.5 35.5t44.5 101.5z" />
    <glyph glyph-name="nine.tosf" 
d="M521 328q0 -140 -98.5 -265t-269.5 -202l-28 51q104 47 188.5 122t114.5 152l-2 1q-64 -67 -163 -67q-90 0 -148.5 56.5t-58.5 147.5q0 99 67.5 167t176.5 68q100 0 160.5 -61t60.5 -170zM455 346q0 71 -42.5 110t-116.5 39q-82 0 -127.5 -49t-45.5 -121q0 -68 41.5 -106
t114.5 -38q82 0 129 45.5t47 119.5z" />
    <glyph glyph-name="dollar.osf" 
d="M235 -79h-45l17 79q-55 10 -96 38.5t-61 68.5l56 31q34 -62 113 -81l43 202q-72 32 -104 63.5t-33 83.5q-1 67 51.5 106.5t127.5 39.5q14 0 20 -1l14 65h45l-16 -72q83 -22 126 -90l-51 -34q-33 50 -87 67l-38 -182q72 -33 107.5 -65t35.5 -86q1 -69 -54.5 -114
t-143.5 -45q-2 0 -6 0.5t-5 0.5zM397 150q0 30 -20 48.5t-74 42.5l-40 -189h6q55 0 91.5 27t36.5 71zM187 413q0 -30 20.5 -49t68.5 -41l36 172q-4 1 -12 1q-48 0 -80.5 -22t-32.5 -61z" />
    <glyph glyph-name="sterling.osf" 
d="M145 61l1 -2q37 17 78 17q26 0 70 -14t61 -14q43 0 60 61l55 -22q-32 -97 -114 -97q-28 0 -79 17t-84 17q-59 0 -129 -36l-23 42q121 70 121 153q0 29 -6 51h-86l10 49h66q-17 70 -17 100q0 78 54.5 127t136.5 49q111 0 183 -95l-52 -38q-49 75 -135 75q-55 0 -90 -31.5
t-35 -90.5q0 -32 18 -96h174l-10 -49h-155q3 -23 3 -47q-2 -78 -76 -126z" />
    <glyph glyph-name="Euro.osf" 
d="M572 443l-54 -37q-52 94 -157 94q-75 0 -130.5 -42.5t-80.5 -112.5h249l-9 -43h-251q-5 -30 -5 -55v-3h244l-9 -43h-232q11 -70 56.5 -112t114.5 -42q99 0 160 82l49 -36q-84 -105 -209 -105q-97 0 -160.5 59t-77.5 154h-75l9 43h63v3q0 31 4 55h-55l10 43h55
q29 95 105.5 154.5t177.5 59.5q71 0 124.5 -31t83.5 -85z" />
    <glyph glyph-name="yen.osf" 
d="M559 547l-206 -260h114l-9 -46h-140l-17 -20l-10 -47h152l-9 -45h-152l-28 -129h-59l27 129h-153l9 45h153l11 47l-10 20h-139l10 46h114q-25 70 -94 260h65l93 -269l205 269h73z" />
    <glyph glyph-name="cent.osf" 
d="M421 131l42 -39q-77 -95 -187 -95h-8l-16 -76h-47l17 82q-72 17 -112 76.5t-40 144.5q0 117 75 201.5t185 84.5l17 76h47l-18 -81q88 -18 132 -98l-52 -34q-35 63 -92 76l-84 -395q81 0 141 77zM132 227q0 -62 26.5 -107t75.5 -60l84 393q-84 -4 -135 -70t-51 -156z" />
    <glyph glyph-name="ampersand.sc" horiz-adv-x="578" 
d="M21 147q0 116 152 165q-30 58 -30 108q0 62 40.5 100.5t104.5 38.5q57 0 95.5 -31.5t38.5 -85.5q0 -55 -43 -92.5t-127 -65.5q65 -114 105 -171q57 60 87 147l53 -18q-35 -102 -106 -172q27 -28 63 -28q26 0 43 13l14 -49q-28 -16 -65 -16q-61 0 -101 44
q-67 -44 -148 -44q-75 0 -125.5 41.5t-50.5 115.5zM204 43q57 0 107 33q-52 74 -116 191q-110 -35 -110 -119q0 -49 33.5 -77t85.5 -28zM202 421q0 -42 28 -93q73 22 103.5 49t30.5 61q0 31 -21 50t-56 19q-38 0 -61.5 -22.5t-23.5 -63.5z" />
    <glyph glyph-name="percent.osf" horiz-adv-x="641" 
d="M545 547l-402 -547h-49l401 547h50zM575 135q0 -60 -40.5 -102t-102.5 -42q-54 0 -87 35t-33 87q0 60 40.5 102t102.5 42q55 0 87.5 -34.5t32.5 -87.5zM528 135q0 37 -19.5 59t-55.5 22q-41 0 -67.5 -29.5t-26.5 -72.5q0 -37 19.5 -59t55.5 -22q41 0 67.5 29.5t26.5 72.5
zM327 434q0 -60 -40.5 -102t-102.5 -42q-54 0 -87 35t-33 87q0 60 40.5 102t102.5 42q55 0 87.5 -34.5t32.5 -87.5zM280 434q0 37 -19.5 59t-55.5 22q-41 0 -67.5 -29.5t-26.5 -72.5q0 -37 19.5 -59t55.5 -22q41 0 67.5 29.5t26.5 72.5z" />
    <glyph glyph-name="perthousand.osf" horiz-adv-x="924" 
d="M545 547l-402 -547h-49l401 547h50zM575 135q0 -60 -40.5 -102t-102.5 -42q-54 0 -87 35t-33 87q0 60 40.5 102t102.5 42q55 0 87.5 -34.5t32.5 -87.5zM528 135q0 37 -19.5 59t-55.5 22q-41 0 -67.5 -29.5t-26.5 -72.5q0 -37 19.5 -59t55.5 -22q41 0 67.5 29.5t26.5 72.5
zM327 434q0 -60 -40.5 -102t-102.5 -42q-54 0 -87 35t-33 87q0 60 40.5 102t102.5 42q55 0 87.5 -34.5t32.5 -87.5zM280 434q0 37 -19.5 59t-55.5 22q-41 0 -67.5 -29.5t-26.5 -72.5q0 -37 19.5 -59t55.5 -22q41 0 67.5 29.5t26.5 72.5zM864 135q0 -60 -40.5 -102
t-102.5 -42q-54 0 -87 35t-33 87q0 60 40.5 102t102.5 42q55 0 87.5 -34.5t32.5 -87.5zM817 135q0 37 -19.5 59t-55.5 22q-41 0 -67.5 -29.5t-26.5 -72.5q0 -37 19.5 -59t55.5 -22q41 0 67.5 29.5t26.5 72.5z" />
    <glyph glyph-name="exclam.sc" horiz-adv-x="258" 
d="M192 427l-75 -270h-30l38 270l25 120h68zM104 0h-70l19 92h70z" />
    <glyph glyph-name="exclamdown.sc" horiz-adv-x="267" 
d="M64 120l75 270h30l-38 -270l-25 -120h-68zM203 455h-70l19 92h70z" />
    <glyph glyph-name="question.sc" horiz-adv-x="423" 
d="M192 231l-14 -70h-54l26 120q18 -3 32 -3q66 0 112.5 38.5t46.5 97.5q0 41 -25.5 64.5t-75.5 23.5q-68 0 -132 -52l-34 40q80 69 174 69q69 0 113.5 -39t44.5 -105q0 -76 -60 -128t-154 -56zM155 0h-70l19 92h70z" />
    <glyph glyph-name="questiondown.sc" horiz-adv-x="424" 
d="M228 316l15 74h53l-26 -124q-18 3 -32 3q-66 0 -112.5 -38.5t-46.5 -97.5q0 -41 25.5 -64.5t75.5 -23.5q68 0 132 52l34 -40q-80 -69 -174 -69q-69 0 -113.5 39t-44.5 105q0 76 60 128t154 56zM315 455h-70l19 92h70z" />
    <glyph glyph-name="i.dot" horiz-adv-x="232" 
d="M86 0h-62l109 514h62zM214 601h-63l14 65h62z" />
    <glyph glyph-name="zero.num" horiz-adv-x="389" 
d="M258 673q66 0 96.5 -46.5t30.5 -117.5q0 -31 -5.5 -65t-18.5 -71.5t-33 -67t-52 -48.5t-72 -19q-67 0 -97.5 47.5t-30.5 117.5q0 39 9.5 82.5t28.5 87t57 72t87 28.5zM128 394q0 -110 77 -110q37 0 64.5 27.5t40 69t18 76t5.5 62.5q0 108 -77 108q-37 0 -64.5 -27.5
t-40 -69t-18 -76t-5.5 -60.5z" />
    <glyph glyph-name="one.num" horiz-adv-x="310" 
d="M289 246h-254l9 43h104l66 313q-37 -22 -111 -32l-4 40q94 17 142 56h40l-81 -377h99z" />
    <glyph glyph-name="onenum.alt1" horiz-adv-x="266" 
d="M259 666l-89 -420h-53l76 356q-12 -7 -46 -17.5t-65 -14.5l-4 40q94 17 142 56h39z" />
    </font>
</defs>
</svg>
