<?xml version="1.0" encoding="UTF-8"?>
<svg enable-background="new 0 0 365 50" version="1.1" viewBox="0 0 365 50" xml:space="preserve" xmlns="http://www.w3.org/2000/svg">
	<style type="text/css">
		.st0{fill:#FD5300;}
	</style>
	<path class="st0" d="m179 34.7h-10.3c-3.4 0-6.2-2.7-6.2-6.2v-13h-7.2v13c0 7.9 5.2 13 13 13h17.8v-26h-7.2l0.1 19.2z"/>
	<path class="st0" d="m100.8 15.5h-11.2v-8.6h-7.2v22.3c0 6.7 5.9 12.3 12.8 12.3h5.6c7.2 0 13-5.9 13-13s-5.8-13-13-13zm-0.3 19h-4.6c-4 0-6.2-2.6-6.2-6v-6.2h10.7c3.4 0 6.2 2.9 6.2 6.2s-2.8 6-6.1 6z"/>
	<path class="st0" d="m137.9 15.5h-7.3c-7.2 0-13 5.9-13 13s5.9 13 13 13h7.3c7.2 0 13-5.9 13-13s-5.8-13-13-13zm-0.6 19.2h-6.3c-3.4 0-6.2-2.9-6.2-6.2s2.7-6.2 6.2-6.2h6.3c3.4 0 6.2 2.7 6.2 6.2 0 3.3-2.7 6.2-6.2 6.2z"/>
	<rect class="st0" x="192.9" y="6.9" width="7.2" height="34.7"/>
	<path class="st0" d="m327.8 15.5h-4.3c-7.7 0-12.9 5.9-12.9 13 0 7.9 5.4 13 13.3 13h16v-6.7h-15.8c-3.3 0-5.3-1.3-6.2-3.6h21.9v-4.3c0.2-7-5-11.4-12-11.4zm-9.7 9.9c0.9-2.3 2.7-3.7 5.4-3.6h4.3c3.6 0 5.2 1.6 5.2 3.6h-14.9z"/>
	<path class="st0" d="m357.7 15.5c-7.9 0-13 5.2-13 13v13h7.2v-13c0-3.4 2.7-6.2 6.2-6.2h6.9v-6.9h-7.3v0.1z"/>
	<path class="st0" d="m257.6 15.5h-17.8v25.9h7.2v-19.2h10.3c3.4 0 6.2 2.7 6.2 6.2v13h7.2v-13c0-7.2-5.9-12.9-13.1-12.9z"/>
	<path class="st0" d="m275 27.1c0 7.3 5.9 11.7 13.2 11.6h11v2.4c0 1.4-1 2.3-2.4 2.3h-13.9v6.6h13.6c6.4 0 9.9-3.2 9.9-8.9v-25.8h-18.3c-7.2 0-13.1 4.6-13.1 11.8zm24.1-4.9v9.7h-10.2c-3.4 0-6.2-1.4-6.2-4.9 0-3.4 2.7-4.9 6.2-4.9l10.2 0.1z"/>
	<path class="st0" d="m204.2 28.4c0 7.2 5.9 13 13 13h17.2v-26.1h-17.2c-7.1 0-13 5.9-13 13.1zm23.1-6.1v12.2h-9.5c-3.4 0-6.2-2.7-6.2-6 0-3.4 2.7-6.2 6.2-6.2h9.5z"/>
	<path class="st0" d="M45,0H24.2C10.9,0,0,10.9,0,24.2s10.7,24.1,24.1,24.1H45c13.3,0,24.1-10.7,24.1-24.1S58.5,0,45,0 M40.5,41.5h-9  c-8.6,0-15.6-7-15.6-15.6V13.8c0-6,3.3-11.2,8.3-13.8v10.3h16.3c8.6,0.1,15.5,7,15.5,15.6C55.9,34.5,49,41.4,40.5,41.5"/>
	<path class="st0" d="m40.3 18.5h-16v7.3c0 4 3.3 7.3 7.3 7.3h8.7c4 0 7.3-3.3 7.3-7.3s-3.2-7.3-7.3-7.3"/>
</svg>